<?xml version="1.0" encoding="utf-8"?>
<!-- Generator: Adobe Illustrator 23.0.6, SVG Export Plug-In . SVG Version: 6.00 Build 0)  -->
<svg version="1.1" id="Layer_1" xmlns="http://www.w3.org/2000/svg" xmlns:xlink="http://www.w3.org/1999/xlink" x="0px" y="0px"
	 viewBox="0 0 566.9 141.7" style="enable-background:new 0 0 566.9 141.7;" xml:space="preserve">
<style type="text/css">
	.st0{opacity:0.86;fill:#A9ABD5;stroke:#FFFFFF;stroke-width:0.2835;stroke-miterlimit:10;}
	.st1{opacity:0.86;fill:#E693AD;stroke:#FFFFFF;stroke-width:0.2835;stroke-miterlimit:10;}
	.st2{opacity:0.86;fill:#DDCDE4;stroke:#FFFFFF;stroke-width:0.2835;stroke-miterlimit:10;}
	.st3{opacity:0.86;fill:#DCBAD8;stroke:#FFFFFF;stroke-width:0.2835;stroke-miterlimit:10;}
	.st4{fill:#FFFFFF;}
	.st5{fill:none;}
</style>
<polygon class="st0" points="484.6,67.3 480.6,54.7 489.5,45.1 502.3,47.9 506.3,60.5 497.4,70.1 "/>
<polygon class="st1" points="533.7,35.7 529.9,23.5 538.5,14.2 550.9,16.9 554.7,29.1 546.1,38.5 "/>
<polygon class="st2" points="465.1,128.1 467.7,117.4 478.2,114.3 486.2,121.8 483.6,132.6 473,135.7 "/>
<polygon class="st3" points="521.4,111.3 524.6,98 537.8,94.2 547.7,103.6 544.5,116.9 531.3,120.8 "/>
<path class="st4" d="M333.4,83.4H26.4c-7.8,0-14.2-6.4-14.2-14.2V46c0-7.8,6.4-14.2,14.2-14.2h307.1c7.8,0,14.2,6.4,14.2,14.2v23.3
	C347.6,77,341.2,83.4,333.4,83.4z"/>
<g>
	<rect x="29" y="43.7" class="st5" width="301.9" height="35.4"/>
	<path d="M40.3,49.6c0-2,0-3.8,0-4.8h0c-0.5,1.1-3.1,6.4-4.7,9.7h-0.3c-1.2-2.5-4.2-8.8-4.6-9.7h0c0,0.9,0,3.4,0,5.1v4.5h-0.3v-10
		h0.4c1.8,3.7,4.4,9.1,4.6,9.7h0c0.4-0.8,3-6.2,4.7-9.7h0.4v10h-0.3V49.6z"/>
	<path d="M43.1,50.9c0,2.2,1.3,3.5,3.1,3.5c1.5,0,2.4-0.8,2.9-1.7h0.3c-0.4,1.1-1.5,1.9-3.2,1.9c-2.5,0-3.4-2-3.4-3.7
		c0-2.2,1.3-3.7,3.4-3.7c2.6,0,3.3,2,3.3,3.4c0,0.1,0,0.2,0,0.3H43.1z M49.2,50.7c-0.1-1.7-0.9-3.2-3.1-3.2c-1.9,0-3,1.4-3.1,3.2
		H49.2z"/>
	<path d="M58,43.7v8.9c0,0.5,0,1.6,0,1.8h-0.3c0-0.4,0-1.3,0-2c-0.4,1-1.1,2.2-3.2,2.2c-2.1,0-3.5-1.5-3.5-3.7
		c0-2.4,1.8-3.8,3.6-3.8c2,0,2.7,1.2,3,1.9v-5.5H58z M51.4,51c0,1.9,1.2,3.4,3.2,3.4c1.9,0,3.2-1,3.2-3.6c0-2.5-1.4-3.3-3.1-3.3
		C52.6,47.5,51.4,49.2,51.4,51z"/>
	<path d="M60.7,43.7H61V45h-0.3V43.7z M60.7,47.4H61v7h-0.3V47.4z"/>
	<path d="M69.6,52.5c-0.4,1.3-1.4,2.2-3.1,2.2c-2.3,0-3.5-1.7-3.5-3.7c0-2.1,1.4-3.8,3.4-3.8c2.1,0,2.9,1.3,3.1,2.3h-0.3
		c-0.4-1.1-1.2-2-2.8-2c-1.8,0-3.1,1.4-3.1,3.5c0,1.9,1.2,3.4,3.2,3.4c1.5,0,2.3-0.7,2.8-1.9H69.6z"/>
	<path d="M77.1,52.9c0,0.8,0.1,1.4,0.1,1.6h-0.3c0-0.1-0.1-0.9-0.1-1.5c-0.4,1.1-1.3,1.7-3.1,1.7c-2,0-2.6-1.2-2.6-2.1
		c0-1.7,1.6-2.2,3.6-2.2c1.3,0,1.7,0,2,0v-0.7c0-1.1-0.5-2.1-2.4-2.1c-1.7,0-2.4,0.8-2.5,1.9h-0.3c0.2-1.1,0.9-2.2,2.9-2.2
		c2,0,2.7,1.1,2.7,2.3V52.9z M76.8,50.6c-0.5,0-1.2,0-2.1,0c-1.4,0-3.3,0.2-3.3,2c0,1.1,0.9,1.9,2.3,1.9c2.3,0,3.1-1.1,3.1-2.8V50.6
		z"/>
	<path d="M79.8,54.5V43.7h0.3v10.8H79.8z"/>
	<path d="M87,49.5v5h-0.3v-10h4.1c1.7,0,3,0.9,3,2.5c0,1.3-0.7,2.2-2.2,2.5c1.3,0.3,2.2,0.9,2.2,2.9v0.1c0,1.2,0,1.8,0.1,2.1h-0.3
		c-0.1-0.5-0.1-1.1-0.1-2.1v-0.1c0-1.7-0.6-2.7-3.1-2.7H87z M87,49.3h3.4c2,0,3.1-0.6,3.1-2.3c0-1.5-1.1-2.3-2.8-2.3H87V49.3z"/>
	<path d="M96.1,50.9c0,2.2,1.3,3.5,3.1,3.5c1.5,0,2.4-0.8,2.9-1.7h0.3c-0.4,1.1-1.5,1.9-3.2,1.9c-2.5,0-3.4-2-3.4-3.7
		c0-2.2,1.3-3.7,3.4-3.7c2.6,0,3.3,2,3.3,3.4c0,0.1,0,0.2,0,0.3H96.1z M102.2,50.7c-0.1-1.7-0.9-3.2-3.1-3.2c-1.9,0-3,1.4-3.1,3.2
		H102.2z"/>
	<path d="M110.7,52.5c-0.4,1.3-1.4,2.2-3.1,2.2c-2.3,0-3.5-1.7-3.5-3.7c0-2.1,1.4-3.8,3.4-3.8c2.1,0,2.9,1.3,3.1,2.3h-0.3
		c-0.4-1.1-1.2-2-2.8-2c-1.8,0-3.1,1.4-3.1,3.5c0,1.9,1.2,3.4,3.2,3.4c1.5,0,2.3-0.7,2.8-1.9H110.7z"/>
	<path d="M119.2,50.9c0,1.9-1.2,3.7-3.6,3.7c-2.1,0-3.5-1.6-3.5-3.7c0-2.2,1.5-3.8,3.6-3.8C117.9,47.2,119.2,49,119.2,50.9z
		 M112.4,51c0,2,1.4,3.4,3.3,3.4c2.1,0,3.2-1.6,3.2-3.5c0-1.9-1.3-3.4-3.3-3.4C113.7,47.5,112.4,49,112.4,51z"/>
	<path d="M121.3,49.8c0-1.1,0-1.9,0-2.4h0.3c0,0.4,0,1.5,0,2.1c0.3-1.1,1.4-2.2,2.9-2.3v0.3c-1.6,0-2.9,1.5-2.9,3.1v3.8h-0.3V49.8z"
		/>
	<path d="M132.2,43.7v8.9c0,0.5,0,1.6,0,1.8h-0.3c0-0.4,0-1.3,0-2c-0.4,1-1.1,2.2-3.2,2.2c-2.1,0-3.5-1.5-3.5-3.7
		c0-2.4,1.8-3.8,3.6-3.8c2,0,2.7,1.2,3,1.9v-5.5H132.2z M125.6,51c0,1.9,1.2,3.4,3.2,3.4c1.9,0,3.2-1,3.2-3.6c0-2.5-1.4-3.3-3.1-3.3
		C126.8,47.5,125.6,49.2,125.6,51z"/>
	<path d="M134.5,52.6c0.3,1.2,1.2,1.8,2.6,1.8c1.5,0,2.4-0.6,2.4-1.7c0-0.7-0.2-1.4-2.3-1.8c-2.4-0.4-2.6-1-2.6-1.9
		c0-0.8,0.6-1.8,2.4-1.8c2,0,2.5,1.1,2.6,1.9h-0.3c-0.1-0.7-0.6-1.6-2.4-1.6c-1.6,0-2.1,0.9-2.1,1.5c0,1,0.6,1.3,2.4,1.6
		c2.1,0.4,2.5,1.1,2.5,2c0,1.2-1.1,2-2.7,2c-1.8,0-2.7-0.9-2.9-2.1H134.5z"/>
	<path d="M145.9,44.4h3.6c3,0,5.2,2,5.2,4.8c0,3.1-2.1,5.2-5.1,5.2h-3.6V44.4z M146.2,54.2h3.2c3.1,0,4.9-2.2,4.9-4.9
		c0-2.7-2.1-4.6-4.9-4.6h-3.2V54.2z"/>
	<path d="M156.4,50.9c0,2.2,1.3,3.5,3.1,3.5c1.5,0,2.4-0.8,2.9-1.7h0.3c-0.4,1.1-1.5,1.9-3.2,1.9c-2.5,0-3.4-2-3.4-3.7
		c0-2.2,1.3-3.7,3.4-3.7c2.6,0,3.3,2,3.3,3.4c0,0.1,0,0.2,0,0.3H156.4z M162.6,50.7c-0.1-1.7-0.9-3.2-3.1-3.2c-1.9,0-3,1.4-3.1,3.2
		H162.6z"/>
	<path d="M164.6,52.6c0.3,1.2,1.2,1.8,2.6,1.8c1.5,0,2.4-0.6,2.4-1.7c0-0.7-0.2-1.4-2.3-1.8c-2.4-0.4-2.6-1-2.6-1.9
		c0-0.8,0.6-1.8,2.4-1.8c2,0,2.5,1.1,2.6,1.9h-0.3c-0.1-0.7-0.6-1.6-2.4-1.6c-1.6,0-2.1,0.9-2.1,1.5c0,1,0.6,1.3,2.4,1.6
		c2.1,0.4,2.5,1.1,2.5,2c0,1.2-1.1,2-2.7,2c-1.8,0-2.7-0.9-2.9-2.1H164.6z"/>
	<path d="M172.3,51.3c0.7-0.5,3.7-2.9,4.9-3.8h0.5l-3.6,2.8l4.1,4.2h-0.4l-3.9-4l-1.5,1.2v2.9H172V43.7h0.3V51.3z"/>
	<path d="M178.6,47.4h1.4v-2.4h0.3v2.4h1.9v0.3h-1.9v5.1c0,1,0.2,1.5,1.1,1.5c0.2,0,0.4,0,0.6-0.1v0.3c-0.2,0.1-0.4,0.1-0.6,0.1
		c-1,0-1.4-0.5-1.4-1.9v-5h-1.4V47.4z"/>
	<path d="M190.2,50.9c0,1.9-1.2,3.7-3.6,3.7c-2.1,0-3.5-1.6-3.5-3.7c0-2.2,1.5-3.8,3.6-3.8C188.9,47.2,190.2,49,190.2,50.9z
		 M183.4,51c0,2,1.4,3.4,3.3,3.4c2.1,0,3.2-1.6,3.2-3.5c0-1.9-1.3-3.4-3.3-3.4C184.7,47.5,183.4,49,183.4,51z"/>
	<path d="M192.6,52.6v5.1h-0.3v-8.2c0-1,0-1.6,0-2.1h0.3c0,0.1,0,1.2,0,2c0.4-1.1,1.4-2.1,3.2-2.1c1.9,0,3.4,1.5,3.4,3.6
		c0,2.4-1.5,3.8-3.5,3.8C194,54.6,193.1,53.8,192.6,52.6z M198.9,50.8c0-1.7-1.1-3.3-3.2-3.3c-1.9,0-3.2,1.4-3.2,3.4
		c0,2.2,1.2,3.4,3.2,3.4C197.5,54.4,198.9,53,198.9,50.8z"/>
	<path d="M206.3,50.5l-1.7,4h-0.3l4.4-10h0.3l4.3,10h-0.3l-1.7-4H206.3z M211.1,50.2c-1.5-3.4-2.2-5-2.3-5.4h0
		c-0.1,0.3-1.2,2.7-2.4,5.4H211.1z"/>
	<path d="M215.4,52.6v5.1h-0.3v-8.2c0-1,0-1.6,0-2.1h0.3c0,0.1,0,1.2,0,2c0.4-1.1,1.4-2.1,3.2-2.1c1.9,0,3.4,1.5,3.4,3.6
		c0,2.4-1.5,3.8-3.5,3.8C216.7,54.6,215.8,53.8,215.4,52.6z M221.7,50.8c0-1.7-1.1-3.3-3.2-3.3c-1.9,0-3.2,1.4-3.2,3.4
		c0,2.2,1.2,3.4,3.2,3.4C220.3,54.4,221.7,53,221.7,50.8z"/>
	<path d="M224.3,52.6v5.1H224v-8.2c0-1,0-1.6,0-2.1h0.3c0,0.1,0,1.2,0,2c0.4-1.1,1.4-2.1,3.2-2.1c1.9,0,3.4,1.5,3.4,3.6
		c0,2.4-1.5,3.8-3.5,3.8C225.7,54.6,224.8,53.8,224.3,52.6z M230.7,50.8c0-1.7-1.1-3.3-3.2-3.3c-1.9,0-3.2,1.4-3.2,3.4
		c0,2.2,1.2,3.4,3.2,3.4C229.3,54.4,230.7,53,230.7,50.8z"/>
	<path d="M233.1,54.5V43.7h0.3v10.8H233.1z"/>
	<path d="M236,43.7h0.3V45H236V43.7z M236,47.4h0.3v7H236V47.4z"/>
	<path d="M245,52.5c-0.4,1.3-1.4,2.2-3.1,2.2c-2.3,0-3.5-1.7-3.5-3.7c0-2.1,1.4-3.8,3.4-3.8c2.1,0,2.9,1.3,3.1,2.3h-0.3
		c-0.4-1.1-1.2-2-2.8-2c-1.8,0-3.1,1.4-3.1,3.5c0,1.9,1.2,3.4,3.2,3.4c1.5,0,2.3-0.7,2.8-1.9H245z"/>
	<path d="M252.5,52.9c0,0.8,0.1,1.4,0.1,1.6h-0.3c0-0.1-0.1-0.9-0.1-1.5c-0.4,1.1-1.3,1.7-3.1,1.7c-2,0-2.6-1.2-2.6-2.1
		c0-1.7,1.6-2.2,3.6-2.2c1.3,0,1.7,0,2,0v-0.7c0-1.1-0.5-2.1-2.4-2.1c-1.7,0-2.4,0.8-2.5,1.9h-0.3c0.2-1.1,0.9-2.2,2.9-2.2
		c2,0,2.7,1.1,2.7,2.3V52.9z M252.2,50.6c-0.5,0-1.2,0-2.1,0c-1.4,0-3.3,0.2-3.3,2c0,1.1,0.9,1.9,2.3,1.9c2.3,0,3.1-1.1,3.1-2.8
		V50.6z"/>
	<path d="M253.9,47.4h1.4v-2.4h0.3v2.4h1.9v0.3h-1.9v5.1c0,1,0.2,1.5,1.1,1.5c0.2,0,0.4,0,0.6-0.1v0.3c-0.2,0.1-0.4,0.1-0.6,0.1
		c-1,0-1.4-0.5-1.4-1.9v-5h-1.4V47.4z"/>
	<path d="M259.3,43.7h0.3V45h-0.3V43.7z M259.3,47.4h0.3v7h-0.3V47.4z"/>
	<path d="M268.8,50.9c0,1.9-1.2,3.7-3.6,3.7c-2.1,0-3.5-1.6-3.5-3.7c0-2.2,1.5-3.8,3.6-3.8C267.4,47.2,268.8,49,268.8,50.9z
		 M261.9,51c0,2,1.4,3.4,3.3,3.4c2.1,0,3.2-1.6,3.2-3.5c0-1.9-1.3-3.4-3.3-3.4C263.2,47.5,261.9,49,261.9,51z"/>
	<path d="M270.8,49.6c0-1.4,0-1.9,0-2.2h0.3c0,0.2,0,1.3,0,1.9c0.3-0.7,1-2.1,3-2.1c1.6,0,2.8,1,2.8,3.1v4.2h-0.3v-4.1
		c0-1.7-0.9-2.8-2.5-2.8c-2,0-3,1.6-3,3.2v3.8h-0.3V49.6z"/>
	<path d="M152.1,68.5c0.3,1.5,1.5,2.7,3.7,2.7c2.3,0,3.4-1.1,3.4-2.4c0-1.4-0.6-2.1-3.5-2.7c-2.3-0.5-3.4-1-3.4-2.6
		c0-1.6,1.5-2.5,3.3-2.5c2.8,0,3.5,1.6,3.6,2.6H159c-0.3-1.1-1-2.3-3.3-2.3c-1.5,0-3,0.7-3,2.2c0,1.2,0.6,1.8,3.2,2.3
		c3.1,0.6,3.7,1.5,3.7,2.9c0,1.9-1.7,2.7-3.7,2.7c-2.2,0-3.7-1-4-2.9H152.1z"/>
	<path d="M171.3,66.2c0,3-1.9,5.3-5.1,5.3c-3,0-5-2.3-5-5.2c0-2.8,2.1-5.2,5.1-5.2C169.2,61,171.3,63.3,171.3,66.2z M161.5,66.2
		c0,2.6,1.8,5,4.7,5c2.8,0,4.8-2.1,4.8-5c0-2.6-1.9-4.9-4.7-4.9C163.6,61.3,161.5,63.4,161.5,66.2z M168.5,70.8l3.3,2.2l-0.2,0.2
		l-3.4-2.3L168.5,70.8z"/>
	<path d="M173.7,61.2h0.3V71h6.2l-0.1,0.3h-6.4V61.2z"/>
	<path d="M181.9,60.5h0.3v1.3h-0.3V60.5z M181.9,64.2h0.3v7h-0.3V64.2z"/>
	<path d="M183.8,64.2h1.4v-2.4h0.3v2.4h1.9v0.3h-1.9v5.1c0,1,0.2,1.5,1.1,1.5c0.2,0,0.4,0,0.6-0.1v0.3c-0.2,0.1-0.4,0.1-0.6,0.1
		c-1,0-1.4-0.5-1.4-1.9v-5h-1.4V64.2z"/>
	<path d="M188.7,67.7c0,2.2,1.3,3.5,3.1,3.5c1.5,0,2.4-0.8,2.9-1.7h0.3c-0.4,1.1-1.5,1.9-3.2,1.9c-2.5,0-3.4-2-3.4-3.7
		c0-2.2,1.3-3.7,3.4-3.7c2.6,0,3.3,2,3.3,3.4c0,0.1,0,0.2,0,0.3H188.7z M194.8,67.5c-0.1-1.7-0.9-3.2-3.1-3.2c-1.9,0-3,1.4-3.1,3.2
		H194.8z"/>
	<path d="M204.2,64v3.3h3.3v0.3h-3.3v3.7h-0.3v-3.7h-3.4v-0.3h3.4V64H204.2z"/>
	<path d="M213.7,61.2h4.1c1.9,0,3.1,1.1,3.1,2.7c0,1.6-0.9,2.8-3.2,2.8H214v4.5h-0.3V61.2z M214,66.5h3.8c1.9,0,2.8-1,2.8-2.6
		c0-1.2-0.9-2.4-2.8-2.4H214V66.5z"/>
	<path d="M222.7,64.2c2.1,4.3,3,6.2,3.2,6.7h0c0.2-0.5,1.1-2.5,3.1-6.7h0.3l-3.3,7.2c-1,2.1-1.4,3.2-2.9,3.2c-0.3,0-0.7-0.1-0.8-0.1
		l0.1-0.3c0.1,0,0.5,0.1,0.8,0.1c1.1,0,1.6-0.6,2.6-3l-3.4-7H222.7z"/>
	<path d="M230.4,64.2h1.4v-2.4h0.3v2.4h1.9v0.3h-1.9v5.1c0,1,0.2,1.5,1.1,1.5c0.2,0,0.4,0,0.6-0.1v0.3c-0.2,0.1-0.4,0.1-0.6,0.1
		c-1,0-1.4-0.5-1.4-1.9v-5h-1.4V64.2z"/>
	<path d="M235.9,60.5v5.7c0.4-1.1,1.4-2.1,3-2.1c1.4,0,2.8,0.8,2.8,3.1v4.1h-0.3v-4.1c0-1.6-0.7-2.9-2.5-2.9c-1.8,0-3,1.3-3,3.2v3.7
		h-0.3V60.5H235.9z"/>
	<path d="M251,67.7c0,1.9-1.2,3.7-3.6,3.7c-2.1,0-3.5-1.6-3.5-3.7c0-2.2,1.5-3.8,3.6-3.8C249.6,64,251,65.8,251,67.7z M244.2,67.8
		c0,2,1.4,3.4,3.3,3.4c2.1,0,3.2-1.6,3.2-3.5c0-1.9-1.3-3.4-3.3-3.4C245.5,64.3,244.2,65.8,244.2,67.8z"/>
	<path d="M253.1,66.4c0-1.4,0-1.9,0-2.2h0.3c0,0.2,0,1.3,0,1.9c0.3-0.7,1-2.1,3-2.1c1.6,0,2.8,1,2.8,3.1v4.2h-0.3v-4.1
		c0-1.7-0.9-2.8-2.5-2.8c-2,0-3,1.6-3,3.2v3.8h-0.3V66.4z"/>
</g>
<g>
</g>
<g>
</g>
<g>
</g>
<g>
</g>
<g>
</g>
<g>
</g>
</svg>
