<?xml version="1.0" encoding="utf-8"?>
<!-- Generator: Adobe Illustrator 23.0.6, SVG Export Plug-In . SVG Version: 6.00 Build 0)  -->
<svg version="1.1" id="Layer_1" xmlns="http://www.w3.org/2000/svg" xmlns:xlink="http://www.w3.org/1999/xlink" x="0px" y="0px"
	 viewBox="0 0 566.9 111.4" style="enable-background:new 0 0 566.9 111.4;" xml:space="preserve">
<style type="text/css">
	.st0{opacity:0.86;fill:#72A8B6;stroke:#FFFFFF;stroke-width:0.2835;stroke-miterlimit:10;}
	.st1{opacity:0.86;fill:#DEDEEF;stroke:#FFFFFF;stroke-width:0.2835;stroke-miterlimit:10;}
	.st2{fill:#FFFFFF;}
	.st3{fill:none;}
</style>
<polygon class="st0" points="521.6,12.6 540.4,15.6 547.3,33.4 535.3,48.2 516.4,45.2 509.6,27.4 "/>
<polygon class="st1" points="452,96.2 442.2,64.9 464.4,40.8 496.3,48 506.1,79.2 483.9,103.3 "/>
<path class="st2" d="M212.8,67.7H27.9c-7.8,0-14.2-6.4-14.2-14.2V42.2c0-7.8,6.4-14.2,14.2-14.2h184.9c7.8,0,14.2,6.4,14.2,14.2
	v11.3C227,61.4,220.6,67.7,212.8,67.7z"/>
<g>
	<rect x="36.2" y="40.4" class="st3" width="173.7" height="21.2"/>
	<path d="M40.2,41.4h-4v-0.3h8.3v0.3h-4v9.8h-0.3V41.4z"/>
	<path d="M50.9,47.7c0,1.9-1.2,3.7-3.6,3.7c-2.1,0-3.5-1.6-3.5-3.7c0-2.2,1.5-3.8,3.6-3.8C49.5,44,50.9,45.7,50.9,47.7z M44.1,47.7
		c0,2,1.4,3.4,3.3,3.4c2.1,0,3.2-1.6,3.2-3.5c0-1.9-1.3-3.4-3.3-3.4C45.3,44.2,44.1,45.8,44.1,47.7z"/>
	<path d="M53.2,49.4v5.1H53v-8.2c0-1,0-1.6,0-2.1h0.3c0,0.1,0,1.2,0,2c0.4-1.1,1.4-2.1,3.2-2.1c1.9,0,3.4,1.5,3.4,3.6
		c0,2.4-1.5,3.8-3.5,3.8C54.6,51.4,53.7,50.5,53.2,49.4z M59.6,47.6c0-1.7-1.1-3.3-3.2-3.3c-1.9,0-3.2,1.4-3.2,3.4
		c0,2.2,1.2,3.4,3.2,3.4C58.2,51.1,59.6,49.8,59.6,47.6z"/>
	<path d="M62,40.4h0.3v1.3H62V40.4z M62,44.2h0.3v7H62V44.2z"/>
	<path d="M70.9,49.2c-0.4,1.3-1.4,2.2-3.1,2.2c-2.3,0-3.5-1.7-3.5-3.7c0-2.1,1.4-3.8,3.4-3.8c2.1,0,2.9,1.3,3.1,2.3h-0.3
		c-0.4-1.1-1.2-2-2.8-2c-1.8,0-3.1,1.4-3.1,3.5c0,1.9,1.2,3.4,3.2,3.4c1.5,0,2.3-0.7,2.8-1.9H70.9z"/>
	<path d="M72.5,49.3c0.3,1.2,1.2,1.8,2.6,1.8c1.5,0,2.4-0.6,2.4-1.7c0-0.7-0.2-1.4-2.3-1.8c-2.4-0.4-2.6-1-2.6-1.9
		c0-0.8,0.6-1.8,2.4-1.8c2,0,2.5,1.1,2.6,1.9h-0.3c-0.1-0.7-0.6-1.6-2.4-1.6c-1.6,0-2.1,0.9-2.1,1.5c0,1,0.6,1.3,2.4,1.6
		c2.1,0.4,2.5,1.1,2.5,2c0,1.2-1.1,2-2.7,2c-1.8,0-2.7-0.9-2.9-2.1H72.5z"/>
	<path d="M80.3,45.8v-1.7h0.3v1.7H80.3z M80.3,51.2v-1.7h0.3v1.7H80.3z"/>
	<path d="M96.2,48.6c-0.7,1.8-2,2.8-4.5,2.8c-3.1,0-4.9-2.4-4.9-5.2c0-3.1,2-5.2,5-5.2c2.5,0,3.9,1.2,4.4,2.9h-0.3
		c-0.5-1.4-1.7-2.6-4.1-2.6c-2.8,0-4.7,2-4.7,5c0,2.7,1.8,4.9,4.6,4.9c2.3,0,3.5-1,4.2-2.6L96.2,48.6z"/>
	<path d="M98.2,46.6c0-1.1,0-1.9,0-2.4h0.3c0,0.4,0,1.5,0,2.1c0.3-1.1,1.4-2.2,2.9-2.3v0.3c-1.6,0-2.9,1.5-2.9,3.1v3.8h-0.3V46.6z"
		/>
	<path d="M103,44.2c2.1,4.3,3,6.2,3.2,6.7h0c0.2-0.5,1.1-2.5,3.1-6.7h0.3l-3.3,7.2c-1,2.1-1.4,3.2-2.9,3.2c-0.3,0-0.7-0.1-0.8-0.1
		l0.1-0.3c0.1,0,0.5,0.1,0.8,0.1c1.1,0,1.6-0.6,2.6-3l-3.4-7H103z"/>
	<path d="M111.6,49.4v5.1h-0.3v-8.2c0-1,0-1.6,0-2.1h0.3c0,0.1,0,1.2,0,2C112,45,113,44,114.8,44c1.9,0,3.4,1.5,3.4,3.6
		c0,2.4-1.5,3.8-3.5,3.8C113,51.4,112,50.5,111.6,49.4z M117.9,47.6c0-1.7-1.1-3.3-3.2-3.3c-1.9,0-3.2,1.4-3.2,3.4
		c0,2.2,1.2,3.4,3.2,3.4C116.5,51.1,117.9,49.8,117.9,47.6z"/>
	<path d="M119.1,44.2h1.4v-2.4h0.3v2.4h1.9v0.3h-1.9v5.1c0,1,0.2,1.5,1.1,1.5c0.2,0,0.4,0,0.6-0.1v0.3c-0.2,0.1-0.4,0.1-0.6,0.1
		c-1,0-1.4-0.5-1.4-1.9v-5h-1.4V44.2z"/>
	<path d="M130.7,47.7c0,1.9-1.2,3.7-3.6,3.7c-2.1,0-3.5-1.6-3.5-3.7c0-2.2,1.5-3.8,3.6-3.8C129.3,44,130.7,45.7,130.7,47.7z
		 M123.9,47.7c0,2,1.4,3.4,3.3,3.4c2.1,0,3.2-1.6,3.2-3.5c0-1.9-1.3-3.4-3.3-3.4C125.2,44.2,123.9,45.8,123.9,47.7z"/>
	<path d="M138.9,49.2c-0.4,1.3-1.4,2.2-3.1,2.2c-2.3,0-3.5-1.7-3.5-3.7c0-2.1,1.4-3.8,3.4-3.8c2.1,0,2.9,1.3,3.1,2.3h-0.3
		c-0.4-1.1-1.2-2-2.8-2c-1.8,0-3.1,1.4-3.1,3.5c0,1.9,1.2,3.4,3.2,3.4c1.5,0,2.3-0.7,2.8-1.9H138.9z"/>
	<path d="M146.8,49c0,0.7,0,1.9,0,2.2h-0.3c0-0.3,0-1.4,0-2c-0.5,1.5-1.4,2.2-2.9,2.2c-1.3,0-2.8-0.6-2.8-2.9v-4.3h0.3v4.3
		c0,1.4,0.7,2.6,2.5,2.6c2.1,0,2.9-1.6,2.9-3.6v-3.3h0.3V49z"/>
	<path d="M149.4,46.6c0-1.1,0-1.9,0-2.4h0.3c0,0.4,0,1.5,0,2.1c0.3-1.1,1.4-2.2,2.9-2.3v0.3c-1.6,0-2.9,1.5-2.9,3.1v3.8h-0.3V46.6z"
		/>
	<path d="M154.2,46.6c0-1.1,0-1.9,0-2.4h0.3c0,0.4,0,1.5,0,2.1c0.3-1.1,1.4-2.2,2.9-2.3v0.3c-1.6,0-2.9,1.5-2.9,3.1v3.8h-0.3V46.6z"
		/>
	<path d="M158.4,47.7c0,2.2,1.3,3.5,3.1,3.5c1.5,0,2.4-0.8,2.9-1.7h0.3c-0.4,1.1-1.5,1.9-3.2,1.9c-2.5,0-3.4-2-3.4-3.7
		c0-2.2,1.3-3.7,3.4-3.7c2.6,0,3.3,2,3.3,3.4c0,0.1,0,0.2,0,0.3H158.4z M164.6,47.4c-0.1-1.7-0.9-3.2-3.1-3.2c-1.9,0-3,1.4-3.1,3.2
		H164.6z"/>
	<path d="M167,46.4c0-1.4,0-1.9,0-2.2h0.3c0,0.2,0,1.3,0,1.9c0.3-0.7,1-2.1,3-2.1c1.6,0,2.8,1,2.8,3.1v4.2h-0.3v-4.1
		c0-1.7-0.9-2.8-2.5-2.8c-2,0-3,1.6-3,3.2v3.8H167V46.4z"/>
	<path d="M181.8,49.2c-0.4,1.3-1.4,2.2-3.1,2.2c-2.3,0-3.5-1.7-3.5-3.7c0-2.1,1.4-3.8,3.4-3.8c2.1,0,2.9,1.3,3.1,2.3h-0.3
		c-0.4-1.1-1.2-2-2.8-2c-1.8,0-3.1,1.4-3.1,3.5c0,1.9,1.2,3.4,3.2,3.4c1.5,0,2.3-0.7,2.8-1.9H181.8z"/>
	<path d="M183.3,44.2c2.1,4.3,3,6.2,3.2,6.7h0c0.2-0.5,1.1-2.5,3.1-6.7h0.3l-3.3,7.2c-1,2.1-1.4,3.2-2.9,3.2c-0.3,0-0.7-0.1-0.8-0.1
		l0.1-0.3c0.1,0,0.5,0.1,0.8,0.1c1.1,0,1.6-0.6,2.6-3l-3.4-7H183.3z"/>
</g>
<rect x="0" class="st3" width="566.9" height="111.4"/>
<g>
</g>
<g>
</g>
<g>
</g>
<g>
</g>
<g>
</g>
<g>
</g>
</svg>
