<?xml version="1.0" encoding="utf-8"?>
<!-- Generator: Adobe Illustrator 23.0.6, SVG Export Plug-In . SVG Version: 6.00 Build 0)  -->
<svg version="1.1" id="Layer_1" xmlns="http://www.w3.org/2000/svg" xmlns:xlink="http://www.w3.org/1999/xlink" x="0px" y="0px"
	 viewBox="0 0 566.9 171.6" style="enable-background:new 0 0 566.9 171.6;" xml:space="preserve">
<style type="text/css">
	.st0{opacity:0.86;clip-path:url(#SVGID_2_);fill:#7880A3;stroke:#FFFFFF;stroke-width:0.2835;stroke-miterlimit:10;}
	.st1{opacity:0.86;clip-path:url(#SVGID_2_);fill:#295F84;stroke:#FFFFFF;stroke-width:0.2835;stroke-miterlimit:10;}
	.st2{opacity:0.86;clip-path:url(#SVGID_2_);fill:#72A8B6;stroke:#FFFFFF;stroke-width:0.2835;stroke-miterlimit:10;}
	.st3{opacity:0.86;clip-path:url(#SVGID_2_);fill:#DCBAD8;stroke:#FFFFFF;stroke-width:0.2835;stroke-miterlimit:10;}
	.st4{opacity:0.86;clip-path:url(#SVGID_2_);fill:#E693AD;stroke:#FFFFFF;stroke-width:0.2835;stroke-miterlimit:10;}
	.st5{opacity:0.86;clip-path:url(#SVGID_2_);fill:#A9ABD5;stroke:#FFFFFF;stroke-width:0.2835;stroke-miterlimit:10;}
	.st6{clip-path:url(#SVGID_2_);fill:#FFFFFF;}
	.st7{clip-path:url(#SVGID_2_);}
	.st8{fill:none;}
</style>
<g>
	<defs>
		<rect id="SVGID_1_" y="-0.7" width="566.9" height="172.3"/>
	</defs>
	<clipPath id="SVGID_2_">
		<use xlink:href="#SVGID_1_"  style="overflow:visible;"/>
	</clipPath>
	<polygon class="st0" points="452.8,22 449.5,11.5 457,3.4 467.7,5.8 471,16.3 463.6,24.4 	"/>
	<polygon class="st1" points="481.5,159.3 437.2,144.4 428,98.6 463,67.7 507.3,82.5 516.5,128.3 	"/>
	<polygon class="st2" points="514.2,131.3 547.8,159.6 540.2,202.9 498.9,217.9 465.3,189.7 472.9,146.4 	"/>
	<polygon class="st3" points="488.9,44.6 496.6,12.7 528,3.5 551.8,26.1 544.1,57.9 512.6,67.2 	"/>
	<polygon class="st4" points="531.6,105 534.6,92.7 546.8,89.1 556.1,97.8 553.1,110.2 540.9,113.8 	"/>
	<polygon class="st5" points="372.7,80 375.8,67.2 388.4,63.5 397.9,72.6 394.8,85.4 382.2,89.1 	"/>
	<polygon class="st3" points="401.4,186.9 395.2,167.1 409.3,151.8 429.5,156.3 435.7,176.2 421.7,191.5 	"/>
	<path class="st6" d="M212.8,105.9H27.9c-7.8,0-14.2-6.4-14.2-14.2V71c0-7.8,6.4-14.2,14.2-14.2h184.9c7.8,0,14.2,6.4,14.2,14.2
		v20.8C227,99.6,220.6,105.9,212.8,105.9z"/>
	<g class="st7">
		<rect x="39.6" y="68.3" class="st8" width="172.9" height="37.6"/>
		<path d="M43.6,69.3h-4v-0.3h8.3v0.3h-4v9.8h-0.3V69.3z"/>
		<path d="M54.3,75.6c0,1.9-1.2,3.7-3.6,3.7c-2.1,0-3.5-1.6-3.5-3.7c0-2.2,1.5-3.8,3.6-3.8C52.9,71.9,54.3,73.6,54.3,75.6z
			 M47.5,75.6c0,2,1.4,3.4,3.3,3.4c2.1,0,3.2-1.6,3.2-3.5c0-1.9-1.3-3.4-3.3-3.4C48.8,72.1,47.5,73.7,47.5,75.6z"/>
		<path d="M56.7,77.3v5.1h-0.3v-8.2c0-1,0-1.6,0-2.1h0.3c0,0.1,0,1.2,0,2c0.4-1.1,1.4-2.1,3.2-2.1c1.9,0,3.4,1.5,3.4,3.6
			c0,2.4-1.5,3.8-3.5,3.8C58.1,79.3,57.2,78.4,56.7,77.3z M63,75.5c0-1.7-1.1-3.3-3.2-3.3c-1.9,0-3.2,1.4-3.2,3.4
			c0,2.2,1.2,3.4,3.2,3.4C61.6,79,63,77.7,63,75.5z"/>
		<path d="M65.4,68.3h0.3v1.3h-0.3V68.3z M65.4,72.1h0.3v7h-0.3V72.1z"/>
		<path d="M74.4,77.1c-0.4,1.3-1.4,2.2-3.1,2.2c-2.3,0-3.5-1.7-3.5-3.7c0-2.1,1.4-3.8,3.4-3.8c2.1,0,2.9,1.3,3.1,2.3H74
			c-0.4-1.1-1.2-2-2.8-2c-1.8,0-3.1,1.4-3.1,3.5c0,1.9,1.2,3.4,3.2,3.4c1.5,0,2.3-0.7,2.8-1.9H74.4z"/>
		<path d="M76,77.2c0.3,1.2,1.2,1.8,2.6,1.8c1.5,0,2.4-0.6,2.4-1.7c0-0.7-0.2-1.4-2.3-1.8c-2.4-0.4-2.6-1-2.6-1.9
			c0-0.8,0.6-1.8,2.4-1.8c2,0,2.5,1.1,2.6,1.9h-0.3c-0.1-0.7-0.6-1.6-2.4-1.6c-1.6,0-2.1,0.9-2.1,1.5c0,1,0.6,1.3,2.4,1.6
			c2.1,0.4,2.5,1.1,2.5,2c0,1.2-1.1,2-2.7,2c-1.8,0-2.7-0.9-2.9-2.1H76z"/>
		<path d="M83.8,73.7v-1.7h0.3v1.7H83.8z M83.8,79.1v-1.7h0.3v1.7H83.8z"/>
		<path d="M90.4,76.4c0.3,1.5,1.5,2.7,3.7,2.7c2.3,0,3.4-1.1,3.4-2.4c0-1.4-0.6-2.1-3.5-2.7c-2.3-0.5-3.4-1-3.4-2.6
			c0-1.6,1.5-2.5,3.3-2.5c2.8,0,3.5,1.6,3.6,2.6h-0.3c-0.3-1.1-1-2.3-3.3-2.3c-1.5,0-3,0.7-3,2.2c0,1.2,0.6,1.8,3.2,2.3
			c3.1,0.6,3.7,1.5,3.7,2.9c0,1.9-1.7,2.7-3.7,2.7c-2.2,0-3.7-1-4-2.9H90.4z"/>
		<path d="M100.1,68.3V74c0.4-1.1,1.4-2.1,3-2.1c1.4,0,2.8,0.8,2.8,3.1v4.1h-0.3V75c0-1.6-0.7-2.9-2.5-2.9c-1.8,0-3,1.3-3,3.2v3.7
			h-0.3V68.3H100.1z"/>
		<path d="M115.1,75.6c0,1.9-1.2,3.7-3.6,3.7c-2.1,0-3.5-1.6-3.5-3.7c0-2.2,1.5-3.8,3.6-3.8C113.8,71.9,115.1,73.6,115.1,75.6z
			 M108.3,75.6c0,2,1.4,3.4,3.3,3.4c2.1,0,3.2-1.6,3.2-3.5c0-1.9-1.3-3.4-3.3-3.4C109.6,72.1,108.3,73.7,108.3,75.6z"/>
		<path d="M117.2,74.5c0-1.1,0-1.9,0-2.4h0.3c0,0.3,0,1.5,0,2.1c0.3-1.1,1.4-2.2,2.9-2.3v0.3c-1.6,0-2.9,1.5-2.9,3.1v3.8h-0.3V74.5z
			"/>
		<path d="M121.4,72.1h1.4v-2.4h0.3v2.4h1.9v0.3h-1.9v5.1c0,1,0.2,1.5,1.1,1.5c0.2,0,0.4,0,0.6-0.1v0.3c-0.2,0.1-0.4,0.1-0.6,0.1
			c-1,0-1.4-0.5-1.4-1.9v-5h-1.4V72.1z"/>
		<path d="M126.2,75.6c0,2.2,1.3,3.5,3.1,3.5c1.5,0,2.4-0.8,2.9-1.7h0.3c-0.4,1.1-1.5,1.9-3.2,1.9c-2.5,0-3.4-2-3.4-3.7
			c0-2.2,1.3-3.7,3.4-3.7c2.6,0,3.3,2,3.3,3.4c0,0.1,0,0.2,0,0.3H126.2z M132.4,75.3c-0.1-1.7-0.9-3.2-3.1-3.2c-1.9,0-3,1.4-3.1,3.2
			H132.4z"/>
		<path d="M134.4,77.2c0.3,1.2,1.2,1.8,2.6,1.8c1.5,0,2.4-0.6,2.4-1.7c0-0.7-0.2-1.4-2.3-1.8c-2.4-0.4-2.6-1-2.6-1.9
			c0-0.8,0.6-1.8,2.4-1.8c2,0,2.5,1.1,2.6,1.9h-0.3c-0.1-0.7-0.6-1.6-2.4-1.6c-1.6,0-2.1,0.9-2.1,1.5c0,1,0.6,1.3,2.4,1.6
			c2.1,0.4,2.5,1.1,2.5,2c0,1.2-1.1,2-2.7,2c-1.8,0-2.7-0.9-2.9-2.1H134.4z"/>
		<path d="M140.7,72.1h1.4v-2.4h0.3v2.4h1.9v0.3h-1.9v5.1c0,1,0.2,1.5,1.1,1.5c0.2,0,0.4,0,0.6-0.1v0.3c-0.2,0.1-0.4,0.1-0.6,0.1
			c-1,0-1.4-0.5-1.4-1.9v-5h-1.4V72.1z"/>
		<path d="M149.9,69.1h4.1c1.9,0,3.1,1.1,3.1,2.7c0,1.6-0.9,2.8-3.2,2.8h-3.8v4.5h-0.3V69.1z M150.2,74.3h3.8c1.9,0,2.8-1,2.8-2.6
			c0-1.2-0.9-2.4-2.8-2.4h-3.9V74.3z"/>
		<path d="M164.2,77.5c0,0.8,0.1,1.4,0.1,1.6H164c0-0.1-0.1-0.9-0.1-1.5c-0.4,1.1-1.3,1.7-3.1,1.7c-2,0-2.6-1.2-2.6-2.1
			c0-1.7,1.6-2.2,3.6-2.2c1.3,0,1.7,0,2,0v-0.7c0-1.1-0.5-2.1-2.4-2.1c-1.7,0-2.4,0.8-2.5,1.9h-0.3c0.2-1.1,0.9-2.2,2.9-2.2
			c2,0,2.7,1.1,2.7,2.3V77.5z M163.9,75.2c-0.5,0-1.2,0-2.1,0c-1.4,0-3.3,0.2-3.3,2c0,1.1,0.9,1.9,2.3,1.9c2.3,0,3.1-1.1,3.1-2.8
			V75.2z"/>
		<path d="M165.7,72.1h1.4v-2.4h0.3v2.4h1.9v0.3h-1.9v5.1c0,1,0.2,1.5,1.1,1.5c0.2,0,0.4,0,0.6-0.1v0.3c-0.2,0.1-0.4,0.1-0.6,0.1
			c-1,0-1.4-0.5-1.4-1.9v-5h-1.4V72.1z"/>
		<path d="M171.2,68.3V74c0.4-1.1,1.4-2.1,3-2.1c1.4,0,2.8,0.8,2.8,3.1v4.1h-0.3V75c0-1.6-0.7-2.9-2.5-2.9c-1.8,0-3,1.3-3,3.2v3.7
			h-0.3V68.3H171.2z"/>
		<path d="M42,91.9l-1.7,4H40l4.4-10h0.3l4.3,10h-0.3l-1.7-4H42z M46.8,91.7c-1.5-3.4-2.2-5-2.3-5.4h0c-0.1,0.3-1.2,2.7-2.4,5.4
			H46.8z"/>
		<path d="M50.8,95.9V85.1h0.3v10.8H50.8z"/>
		<path d="M60.2,95.6c0,2.2-0.9,3.7-3.5,3.7c-2.2,0-3.1-1.1-3.3-2.2h0.3c0.3,1.3,1.4,1.9,3,1.9c2.7,0,3.2-1.6,3.2-3.6v-1.7
			c-0.4,1.2-1.3,2.1-3.2,2.1c-2,0-3.4-1.4-3.4-3.5c0-2.4,1.8-3.7,3.5-3.7c1.9,0,2.8,1,3.1,2c0-1,0-1.7,0-1.8h0.3c0,0.2,0,1.4,0,1.9
			V95.6z M53.6,92.4c0,2,1.4,3.3,3.2,3.3c2.1,0,3.2-1.4,3.2-3.4c0-1.9-1-3.3-3.1-3.3C54.7,89,53.6,90.6,53.6,92.4z"/>
		<path d="M69.4,92.4c0,1.9-1.2,3.7-3.6,3.7c-2.1,0-3.5-1.6-3.5-3.7c0-2.2,1.5-3.8,3.6-3.8C68,88.7,69.4,90.4,69.4,92.4z M62.6,92.4
			c0,2,1.4,3.4,3.3,3.4c2.1,0,3.2-1.6,3.2-3.5c0-1.9-1.3-3.4-3.3-3.4C63.9,88.9,62.6,90.5,62.6,92.4z"/>
		<path d="M71.5,91.3c0-1.1,0-1.9,0-2.4h0.3c0,0.3,0,1.5,0,2.1c0.3-1.1,1.4-2.2,2.9-2.3V89c-1.6,0-2.9,1.5-2.9,3.1v3.8h-0.3V91.3z"
			/>
		<path d="M76.2,85.1h0.3v1.3h-0.3V85.1z M76.2,88.9h0.3v7h-0.3V88.9z"/>
		<path d="M78.1,88.9h1.4v-2.4h0.3v2.4h1.9v0.3h-1.9v5.1c0,1,0.2,1.5,1.1,1.5c0.2,0,0.4,0,0.6-0.1v0.3C81.4,96,81.2,96,81,96
			c-1,0-1.4-0.5-1.4-1.9v-5h-1.4V88.9z"/>
		<path d="M83.7,85.1v5.7c0.4-1.1,1.4-2.1,3-2.1c1.4,0,2.8,0.8,2.8,3.1v4.1h-0.3v-4.1c0-1.6-0.7-2.9-2.5-2.9c-1.8,0-3,1.3-3,3.2v3.7
			h-0.3V85.1H83.7z"/>
		<path d="M92.2,91.2c0-1.1,0-2,0-2.3h0.3c0,0.4,0,1.4,0,1.7c0.3-0.9,1.1-1.9,2.6-1.9c1.3,0,2.1,0.7,2.4,1.8
			c0.4-0.9,1.2-1.8,2.6-1.8c1.3,0,2.5,0.6,2.5,2.8v4.5h-0.3v-4.4c0-1.3-0.5-2.5-2.2-2.5c-1.5,0-2.5,1.1-2.5,2.9v4.1h-0.3v-4.7
			c0-0.9-0.5-2.2-2.2-2.2c-1.7,0-2.6,1.5-2.6,3.1v3.9h-0.3V91.2z"/>
		<path d="M104.7,94c0.3,1.2,1.2,1.8,2.6,1.8c1.5,0,2.4-0.6,2.4-1.7c0-0.7-0.2-1.4-2.3-1.8c-2.4-0.4-2.6-1-2.6-1.9
			c0-0.8,0.6-1.8,2.4-1.8c2,0,2.5,1.1,2.6,1.9h-0.3c-0.1-0.7-0.6-1.6-2.4-1.6c-1.6,0-2.1,0.9-2.1,1.5c0,1,0.6,1.3,2.4,1.6
			c2.1,0.4,2.5,1.1,2.5,2c0,1.2-1.1,2-2.7,2c-1.8,0-2.7-0.9-2.9-2.1H104.7z"/>
		<path d="M115.9,85.1h0.3v1.3h-0.3V85.1z M115.9,88.9h0.3v7h-0.3V88.9z"/>
		<path d="M118.8,91.1c0-1.4,0-1.9,0-2.2h0.3c0,0.2,0,1.3,0,1.9c0.3-0.7,1-2.1,3-2.1c1.6,0,2.8,1,2.8,3.1v4.2h-0.3v-4.1
			c0-1.7-0.9-2.8-2.5-2.8c-2,0-3,1.6-3,3.2v3.8h-0.3V91.1z"/>
		<path d="M132.4,91.9l-1.7,4h-0.3l4.4-10h0.3l4.3,10h-0.3l-1.7-4H132.4z M137.3,91.7c-1.5-3.4-2.2-5-2.3-5.4h0
			c-0.1,0.3-1.2,2.7-2.4,5.4H137.3z"/>
		<path d="M141.5,85.9v10h-0.3v-10H141.5z"/>
	</g>
</g>
<g>
</g>
<g>
</g>
<g>
</g>
<g>
</g>
<g>
</g>
<g>
</g>
</svg>
