<?xml version="1.0" encoding="utf-8"?>
<!-- Generator: Adobe Illustrator 23.0.6, SVG Export Plug-In . SVG Version: 6.00 Build 0)  -->
<svg version="1.1" id="Layer_1" xmlns="http://www.w3.org/2000/svg" xmlns:xlink="http://www.w3.org/1999/xlink" x="0px" y="0px"
	 viewBox="0 0 566.9 142.6" style="enable-background:new 0 0 566.9 142.6;" xml:space="preserve">
<style type="text/css">
	.st0{opacity:0.86;clip-path:url(#SVGID_2_);fill:#DCBAD8;stroke:#FFFFFF;stroke-width:0.2835;stroke-miterlimit:10;}
	.st1{opacity:0.86;clip-path:url(#SVGID_2_);fill:#AAB6D5;stroke:#FFFFFF;stroke-width:0.2835;stroke-miterlimit:10;}
	.st2{opacity:0.86;clip-path:url(#SVGID_2_);fill:#72A8B6;stroke:#FFFFFF;stroke-width:0.2835;stroke-miterlimit:10;}
	.st3{opacity:0.86;clip-path:url(#SVGID_2_);fill:#7880A3;stroke:#FFFFFF;stroke-width:0.2835;stroke-miterlimit:10;}
	.st4{clip-path:url(#SVGID_2_);fill:#FFFFFF;}
	.st5{clip-path:url(#SVGID_2_);}
	.st6{fill:none;}
</style>
<g>
	<defs>
		<rect id="SVGID_1_" width="566.9" height="142.6"/>
	</defs>
	<clipPath id="SVGID_2_">
		<use xlink:href="#SVGID_1_"  style="overflow:visible;"/>
	</clipPath>
	<polygon class="st0" points="401.4,15.3 395.2,-4.5 409.3,-19.8 429.5,-15.3 435.7,4.5 421.7,19.8 	"/>
	<polygon class="st0" points="6.3,126.1 9.5,112.8 22.7,108.9 32.6,118.4 29.4,131.7 16.2,135.5 	"/>
	<polygon class="st1" points="206.7,124.6 206.7,106.2 222.6,97 238.5,106.2 238.5,124.6 222.6,133.8 	"/>
	<polygon class="st2" points="514.2,-40.3 547.8,-12 540.2,31.2 498.9,46.3 465.3,18.1 472.9,-25.2 	"/>
	<polygon class="st1" points="412.7,70.4 449.1,9.9 519.7,11.1 553.9,72.8 517.5,133.3 446.9,132.1 	"/>
	<polygon class="st0" points="345.5,95.5 356.3,51 400.1,38.1 433.3,69.6 422.5,114.1 378.6,127 	"/>
	<polygon class="st1" points="128.1,109.1 128.2,82.8 150.9,69.7 173.6,82.8 173.6,109.1 150.9,122.2 	"/>
	<polygon class="st0" points="302.2,94.7 296,74.9 310.1,59.6 330.4,64.2 336.6,84 322.5,99.3 	"/>
	<polygon class="st3" points="246.6,81.5 243.3,71 250.7,62.9 261.5,65.3 264.8,75.8 257.3,83.9 	"/>
	<path class="st4" d="M248.8,53.9H27.9c-7.8,0-14.2-6.4-14.2-14.2V30c0-7.8,6.4-14.2,14.2-14.2h220.9c7.8,0,14.2,6.4,14.2,14.2v9.7
		C263,47.5,256.6,53.9,248.8,53.9z"/>
	<g class="st5">
		<rect x="30.2" y="25.3" class="st6" width="216.4" height="19.1"/>
		<path d="M34.2,26.3h-4V26h8.3v0.3h-4v9.8h-0.3V26.3z"/>
		<path d="M38.1,32.5c0,2.2,1.3,3.5,3.1,3.5c1.5,0,2.4-0.8,2.9-1.7h0.3c-0.4,1.1-1.5,1.9-3.2,1.9c-2.5,0-3.4-2-3.4-3.7
			c0-2.2,1.3-3.7,3.4-3.7c2.6,0,3.3,2,3.3,3.4c0,0.1,0,0.2,0,0.3H38.1z M44.2,32.3c-0.1-1.7-0.9-3.2-3.1-3.2c-1.9,0-3,1.4-3.1,3.2
			H44.2z"/>
		<path d="M52.6,34.1c-0.4,1.3-1.4,2.2-3.1,2.2c-2.3,0-3.5-1.7-3.5-3.7c0-2.1,1.4-3.8,3.4-3.8c2.1,0,2.9,1.3,3.1,2.3h-0.3
			c-0.4-1.1-1.2-2-2.8-2c-1.8,0-3.1,1.4-3.1,3.5c0,1.9,1.2,3.4,3.2,3.4c1.5,0,2.3-0.7,2.8-1.9H52.6z"/>
		<path d="M55,25.3V31c0.4-1.1,1.4-2.1,3-2.1c1.4,0,2.8,0.8,2.8,3.1v4.1h-0.3V32c0-1.6-0.7-2.9-2.5-2.9c-1.8,0-3,1.3-3,3.2v3.7h-0.3
			V25.3H55z"/>
		<path d="M66.9,34.2c0.3,1.2,1.2,1.8,2.6,1.8c1.5,0,2.4-0.6,2.4-1.7c0-0.7-0.2-1.4-2.3-1.8c-2.4-0.4-2.6-1-2.6-1.9
			c0-0.8,0.6-1.8,2.4-1.8c2,0,2.5,1.1,2.6,1.9h-0.3c-0.1-0.7-0.6-1.6-2.4-1.6c-1.6,0-2.1,0.9-2.1,1.5c0,1,0.6,1.3,2.4,1.6
			c2.1,0.4,2.5,1.1,2.5,2c0,1.2-1.1,2-2.7,2c-1.8,0-2.7-0.9-2.9-2.1H66.9z"/>
		<path d="M80.8,32.5c0,1.9-1.2,3.7-3.6,3.7c-2.1,0-3.5-1.6-3.5-3.7c0-2.2,1.5-3.8,3.6-3.8C79.4,28.8,80.8,30.6,80.8,32.5z M74,32.6
			c0,2,1.4,3.4,3.3,3.4c2.1,0,3.2-1.6,3.2-3.5c0-1.9-1.3-3.4-3.3-3.4C75.2,29.1,74,30.6,74,32.6z"/>
		<path d="M82.9,36.1V25.3h0.3v10.8H82.9z"/>
		<path d="M91.7,33.9c0,0.7,0,1.9,0,2.2h-0.3c0-0.3,0-1.4,0-2c-0.5,1.5-1.4,2.2-2.9,2.2c-1.3,0-2.8-0.6-2.8-2.9V29H86v4.3
			c0,1.4,0.7,2.6,2.5,2.6c2.1,0,2.9-1.6,2.9-3.6V29h0.3V33.9z"/>
		<path d="M93.1,29h1.4v-2.4h0.3V29h1.9v0.3h-1.9v5.1c0,1,0.2,1.5,1.1,1.5c0.2,0,0.4,0,0.6-0.1v0.3c-0.2,0.1-0.4,0.1-0.6,0.1
			c-1,0-1.4-0.5-1.4-1.9v-5h-1.4V29z"/>
		<path d="M98.5,25.3h0.3v1.3h-0.3V25.3z M98.5,29h0.3v7h-0.3V29z"/>
		<path d="M108,32.5c0,1.9-1.2,3.7-3.6,3.7c-2.1,0-3.5-1.6-3.5-3.7c0-2.2,1.5-3.8,3.6-3.8C106.6,28.8,108,30.6,108,32.5z
			 M101.1,32.6c0,2,1.4,3.4,3.3,3.4c2.1,0,3.2-1.6,3.2-3.5c0-1.9-1.3-3.4-3.3-3.4C102.4,29.1,101.1,30.6,101.1,32.6z"/>
		<path d="M110,31.2c0-1.4,0-1.9,0-2.2h0.3c0,0.2,0,1.3,0,1.9c0.3-0.7,1-2.1,3-2.1c1.6,0,2.8,1,2.8,3.1v4.2h-0.3V32
			c0-1.7-0.9-2.8-2.5-2.8c-2,0-3,1.6-3,3.2v3.8H110V31.2z"/>
		<path d="M118.3,34.2c0.3,1.2,1.2,1.8,2.6,1.8c1.5,0,2.4-0.6,2.4-1.7c0-0.7-0.2-1.4-2.3-1.8c-2.4-0.4-2.6-1-2.6-1.9
			c0-0.8,0.6-1.8,2.4-1.8c2,0,2.5,1.1,2.6,1.9h-0.3c-0.1-0.7-0.6-1.6-2.4-1.6c-1.6,0-2.1,0.9-2.1,1.5c0,1,0.6,1.3,2.4,1.6
			c2.1,0.4,2.5,1.1,2.5,2c0,1.2-1.1,2-2.7,2c-1.8,0-2.7-0.9-2.9-2.1H118.3z"/>
		<path d="M129.7,36.1v-6.8h-1.4V29h1.4v-1.3c0-1.2,0.2-2.6,1.8-2.6c0.3,0,0.6,0,0.7,0.1v0.3c-0.2-0.1-0.5-0.1-0.8-0.1
			c-0.9,0-1.4,0.6-1.4,2.2V29h1.8v0.3H130v6.8H129.7z"/>
		<path d="M139.5,32.5c0,1.9-1.2,3.7-3.6,3.7c-2.1,0-3.5-1.6-3.5-3.7c0-2.2,1.5-3.8,3.6-3.8C138.1,28.8,139.5,30.6,139.5,32.5z
			 M132.7,32.6c0,2,1.4,3.4,3.3,3.4c2.1,0,3.2-1.6,3.2-3.5c0-1.9-1.3-3.4-3.3-3.4C133.9,29.1,132.7,30.6,132.7,32.6z"/>
		<path d="M141.6,31.4c0-1.1,0-1.9,0-2.4h0.3c0,0.4,0,1.5,0,2.1c0.3-1.1,1.4-2.2,2.9-2.3v0.3c-1.6,0-2.9,1.5-2.9,3.1v3.8h-0.3V31.4z
			"/>
		<path d="M156.5,25.3v8.9c0,0.5,0,1.6,0,1.8h-0.3c0-0.4,0-1.3,0-2c-0.4,1-1.1,2.2-3.2,2.2c-2.1,0-3.5-1.5-3.5-3.7
			c0-2.4,1.8-3.8,3.6-3.8c2,0,2.7,1.2,3,1.9v-5.5H156.5z M149.9,32.6c0,1.9,1.2,3.4,3.2,3.4c1.9,0,3.2-1,3.2-3.6
			c0-2.5-1.4-3.3-3.1-3.3C151.1,29.1,149.9,30.8,149.9,32.6z"/>
		<path d="M159.2,25.3h0.3v1.3h-0.3V25.3z M159.2,29h0.3v7h-0.3V29z"/>
		<path d="M161.9,34.2c0.3,1.2,1.2,1.8,2.6,1.8c1.5,0,2.4-0.6,2.4-1.7c0-0.7-0.2-1.4-2.3-1.8c-2.4-0.4-2.6-1-2.6-1.9
			c0-0.8,0.6-1.8,2.4-1.8c2,0,2.5,1.1,2.6,1.9h-0.3c-0.1-0.7-0.6-1.6-2.4-1.6c-1.6,0-2.1,0.9-2.1,1.5c0,1,0.6,1.3,2.4,1.6
			c2.1,0.4,2.5,1.1,2.5,2c0,1.2-1.1,2-2.7,2c-1.8,0-2.7-0.9-2.9-2.1H161.9z"/>
		<path d="M174.7,34.5c0,0.8,0.1,1.4,0.1,1.6h-0.3c0-0.1-0.1-0.9-0.1-1.5c-0.4,1.1-1.3,1.7-3.1,1.7c-2,0-2.6-1.2-2.6-2.1
			c0-1.7,1.6-2.2,3.6-2.2c1.3,0,1.7,0,2,0v-0.7c0-1.1-0.5-2.1-2.4-2.1c-1.7,0-2.4,0.8-2.5,1.9h-0.3c0.2-1.1,0.9-2.2,2.9-2.2
			c2,0,2.7,1.1,2.7,2.3V34.5z M174.4,32.2c-0.5,0-1.2,0-2.1,0c-1.4,0-3.3,0.2-3.3,2c0,1.1,0.9,1.9,2.3,1.9c2.3,0,3.1-1.1,3.1-2.8
			V32.2z"/>
		<path d="M177.4,25.3h0.3v5.6c0.5-1.2,1.5-2.1,3.2-2.1c2.1,0,3.4,1.6,3.4,3.6c0,2.4-1.5,3.9-3.4,3.9c-1.8,0-2.8-1-3.2-2.1
			c0,0.5,0,1.6,0,1.9h-0.3c0-0.3,0-0.9,0-2V25.3z M184,32.4c0-1.9-1.3-3.3-3.1-3.3c-1.9,0-3.2,1.3-3.2,3.5c0,2,1.2,3.4,3.2,3.4
			C182.8,36,184,34.5,184,32.4z"/>
		<path d="M186.4,25.3h0.3v1.3h-0.3V25.3z M186.4,29h0.3v7h-0.3V29z"/>
		<path d="M189.4,36.1V25.3h0.3v10.8H189.4z"/>
		<path d="M192.3,25.3h0.3v1.3h-0.3V25.3z M192.3,29h0.3v7h-0.3V29z"/>
		<path d="M194.3,29h1.4v-2.4h0.3V29h1.9v0.3h-1.9v5.1c0,1,0.2,1.5,1.1,1.5c0.2,0,0.4,0,0.6-0.1v0.3c-0.2,0.1-0.4,0.1-0.6,0.1
			c-1,0-1.4-0.5-1.4-1.9v-5h-1.4V29z"/>
		<path d="M199.6,25.3h0.3v1.3h-0.3V25.3z M199.6,29h0.3v7h-0.3V29z"/>
		<path d="M202.2,32.5c0,2.2,1.3,3.5,3.1,3.5c1.5,0,2.4-0.8,2.9-1.7h0.3c-0.4,1.1-1.5,1.9-3.2,1.9c-2.5,0-3.4-2-3.4-3.7
			c0-2.2,1.3-3.7,3.4-3.7c2.6,0,3.3,2,3.3,3.4c0,0.1,0,0.2,0,0.3H202.2z M208.4,32.3c-0.1-1.7-0.9-3.2-3.1-3.2c-1.9,0-3,1.4-3.1,3.2
			H208.4z"/>
		<path d="M210.4,34.2c0.3,1.2,1.2,1.8,2.6,1.8c1.5,0,2.4-0.6,2.4-1.7c0-0.7-0.2-1.4-2.3-1.8c-2.4-0.4-2.6-1-2.6-1.9
			c0-0.8,0.6-1.8,2.4-1.8c2,0,2.5,1.1,2.6,1.9h-0.3c-0.1-0.7-0.6-1.6-2.4-1.6c-1.6,0-2.1,0.9-2.1,1.5c0,1,0.6,1.3,2.4,1.6
			c2.1,0.4,2.5,1.1,2.5,2c0,1.2-1.1,2-2.7,2c-1.8,0-2.7-0.9-2.9-2.1H210.4z"/>
	</g>
</g>
<g>
</g>
<g>
</g>
<g>
</g>
<g>
</g>
<g>
</g>
<g>
</g>
</svg>
