<?xml version="1.0" standalone="no"?>
<!DOCTYPE svg PUBLIC "-//W3C//DTD SVG 20010904//EN"
 "http://www.w3.org/TR/2001/REC-SVG-20010904/DTD/svg10.dtd">
<svg version="1.0" xmlns="http://www.w3.org/2000/svg"
 width="1147.000000pt" height="113.000000pt" viewBox="0 0 1147.000000 113.000000"
 preserveAspectRatio="xMidYMid meet">

<g transform="translate(0.000000,113.000000) scale(0.100000,-0.100000)"
fill="#000000" stroke="none">
<path d="M1718 1090 c-44 -47 -49 -81 -14 -103 13 -9 26 -27 28 -41 4 -21 -1
-27 -34 -42 -89 -40 -116 -124 -58 -183 32 -32 108 -64 178 -76 23 -4 42 -10
42 -14 0 -3 -11 -23 -25 -43 -28 -42 -31 -54 -12 -62 6 -3 -46 -3 -118 0 -114
5 -132 8 -147 26 -10 11 -23 18 -30 16 -8 -3 11 -29 46 -66 59 -62 68 -92 26
-92 -11 0 -20 -4 -20 -10 0 -20 47 -9 69 16 l22 26 -38 35 -38 34 70 -5 c39
-3 92 -6 119 -6 l49 0 -6 -35 c-3 -19 -15 -47 -26 -62 -25 -31 -28 -58 -5 -49
9 3 45 6 81 6 47 0 64 3 61 13 -3 7 -26 13 -56 15 l-52 3 16 30 c10 19 14 51
13 87 -2 44 3 67 21 102 19 37 25 66 29 155 5 88 9 110 21 111 30 2 32 4 20
19 -17 21 -36 19 -61 -6 -19 -19 -20 -28 -14 -95 4 -40 4 -90 1 -110 l-7 -36
-42 7 c-92 16 -180 65 -198 111 -20 55 42 129 118 141 21 4 45 13 53 22 13 13
13 14 -6 9 -27 -7 -54 8 -54 31 0 10 -11 23 -25 29 -14 6 -25 17 -25 23 0 22
42 79 68 94 15 8 21 14 13 15 -8 0 -31 -18 -53 -40z"/>
<path d="M1962 1120 c5 -15 38 -40 97 -72 25 -14 31 -23 31 -51 0 -19 9 -46
20 -60 31 -39 42 -79 31 -109 -11 -29 -49 -68 -66 -68 -6 0 -28 23 -49 51 -26
34 -42 47 -49 40 -15 -15 33 -80 99 -137 30 -25 54 -54 54 -63 0 -32 -44 -86
-68 -84 -13 2 -22 -3 -22 -11 0 -9 26 -23 65 -36 41 -14 65 -27 65 -36 0 -21
-91 -108 -129 -124 -17 -7 -31 -16 -31 -20 0 -47 139 46 185 124 9 15 21 16
129 6 83 -7 125 -15 137 -26 24 -22 87 -43 127 -44 l33 0 -2 -98 c-1 -54 1
-104 5 -110 19 -31 26 -4 26 98 0 81 3 110 13 111 41 2 82 10 86 18 9 15 419
-47 830 -125 166 -31 206 -35 189 -19 -24 24 -993 182 -1042 169 -22 -5 -25
-1 -40 69 -9 41 -23 83 -31 93 -11 14 -10 4 4 -37 10 -30 22 -74 26 -97 6 -40
5 -42 -18 -42 -23 0 -24 4 -31 73 -10 110 -39 240 -55 245 -11 4 -13 -3 -8
-29 16 -93 36 -218 41 -252 4 -33 2 -37 -17 -37 -35 0 -95 19 -111 36 -8 8
-18 31 -22 52 -9 50 -30 72 -69 72 -44 0 -60 23 -60 84 0 106 56 174 132 160
28 -5 35 -4 31 7 -7 21 -92 24 -122 3 -45 -29 -67 -77 -72 -156 -7 -98 6 -121
69 -129 51 -5 67 -19 67 -57 0 -21 -3 -23 -42 -18 -24 3 -76 8 -117 11 -51 5
-83 13 -99 26 -14 10 -32 19 -42 19 -29 0 -30 11 -5 45 38 48 34 97 -9 132
l-35 27 29 32 c43 49 47 86 16 146 -14 27 -26 59 -26 70 0 33 -19 57 -63 79
-23 12 -53 31 -66 43 -16 14 -22 16 -19 6z"/>
<path d="M7755 1120 c-3 -5 -16 -10 -28 -10 -12 0 -36 -9 -53 -19 -22 -13 -36
-16 -48 -9 -19 11 -68 2 -108 -18 -52 -27 -72 -98 -43 -153 17 -34 70 -60 87
-43 8 8 6 13 -8 18 -107 38 -67 174 52 174 21 0 23 -2 12 -20 -21 -33 0 -34
37 -2 19 17 52 36 74 42 33 9 51 25 51 46 0 8 -19 4 -25 -6z"/>
<path d="M8230 1105 c-13 -14 -43 -34 -68 -46 -37 -19 -56 -21 -123 -16 -43 3
-77 2 -75 -2 9 -14 -33 -70 -75 -100 -23 -17 -57 -33 -75 -37 -19 -3 -34 -12
-34 -20 0 -38 121 15 173 76 20 24 37 47 37 52 0 4 32 8 70 8 39 0 85 6 104
14 35 15 106 73 106 87 0 16 -16 10 -40 -16z"/>
<path d="M8000 1102 c22 -14 140 -24 140 -12 0 6 -20 10 -44 10 -24 0 -59 3
-77 6 -23 4 -29 2 -19 -4z"/>
<path d="M1024 1058 c-9 -31 -14 -33 -63 -40 -58 -7 -95 -33 -106 -75 -6 -25
-6 -25 -60 26 -30 28 -57 51 -62 51 -4 -1 -18 -23 -31 -49 -12 -27 -41 -70
-63 -95 -23 -26 -39 -49 -37 -51 9 -9 78 71 105 122 l29 52 62 -55 c95 -85
103 -117 37 -148 l-35 -17 25 -27 c26 -28 40 -62 33 -83 -2 -7 -26 -24 -54
-38 -42 -23 -49 -31 -52 -60 -3 -27 3 -40 30 -68 33 -34 33 -34 15 -64 -20
-36 -22 -69 -4 -69 21 0 36 15 36 35 0 11 3 34 6 50 5 24 0 38 -24 69 -17 21
-31 45 -31 52 0 20 33 34 79 34 37 0 41 2 41 26 0 37 16 61 49 72 48 17 66 5
93 -57 25 -57 27 -59 72 -65 52 -8 59 -24 26 -66 -26 -33 -25 -44 5 -88 28
-41 32 -89 11 -130 -32 -61 -87 -82 -125 -48 -9 9 -23 16 -29 16 -8 0 -12 53
-14 182 -2 134 -6 182 -15 186 -10 3 -13 -51 -13 -247 0 -161 4 -251 10 -251
6 0 10 20 10 44 0 54 14 65 44 37 12 -12 34 -21 48 -21 56 0 128 93 128 165 0
24 4 35 15 35 8 0 15 6 15 13 0 8 12 24 26 38 28 26 84 116 84 137 0 23 -16
12 -33 -23 -16 -33 -19 -35 -67 -35 -49 0 -50 1 -50 29 l0 29 47 -14 c55 -17
63 -17 63 -4 0 5 -18 14 -40 20 l-40 11 58 68 c67 80 96 127 83 135 -4 3 -25
-20 -46 -51 -21 -31 -59 -78 -85 -104 -45 -45 -49 -47 -87 -40 -54 10 -58 14
-84 76 l-23 55 -45 0 c-27 0 -59 -8 -77 -19 l-31 -19 -27 35 c-16 19 -26 35
-24 37 1 1 15 10 31 19 34 22 38 74 7 102 -19 17 -19 18 0 54 22 44 60 64 104
55 35 -6 48 4 61 46 4 14 13 28 19 32 7 5 5 8 -5 8 -10 0 -20 -13 -25 -32z
m219 -588 c-23 -22 -46 -40 -51 -40 -14 0 -35 47 -29 64 5 12 21 16 64 16 l58
-1 -42 -39z"/>
<path d="M1321 934 c-58 -108 -80 -159 -73 -166 16 -16 47 -1 34 15 -8 9 9 50
64 152 41 76 74 143 74 147 0 28 -26 -11 -99 -148z"/>
<path d="M1456 1082 c-9 -15 41 -109 79 -146 42 -42 40 -62 -5 -77 -16 -6 -30
-16 -30 -22 0 -21 57 -111 89 -141 24 -23 28 -33 20 -47 -5 -11 -16 -19 -24
-19 -8 0 -15 -4 -15 -10 0 -19 39 -10 54 12 23 32 20 53 -10 72 -26 18 -84
101 -84 122 0 6 9 14 19 17 10 2 27 17 37 31 l17 27 -46 47 c-25 26 -55 68
-67 95 -22 48 -25 53 -34 39z"/>
<path d="M7909 1031 c-48 -92 -54 -95 -178 -101 l-106 -5 80 -7 c87 -9 142 1
168 30 24 27 87 142 77 142 -5 0 -23 -27 -41 -59z"/>
<path d="M235 1024 c-44 -30 -82 -59 -84 -66 -6 -18 24 -3 103 52 l72 50 61
-21 c81 -27 108 -56 104 -113 -1 -16 -7 -18 -36 -13 -40 7 -47 -9 -10 -23 14
-5 25 -14 25 -20 0 -7 8 -9 20 -5 26 8 70 -19 70 -43 0 -28 -54 -113 -106
-167 l-48 -50 -5 33 c-3 18 -8 31 -11 30 -3 -2 -23 16 -44 39 -20 23 -46 45
-57 48 -17 6 -19 13 -13 55 5 40 3 51 -15 69 -12 12 -34 21 -51 21 -19 0 -30
5 -30 14 0 8 -22 28 -49 46 -58 37 -123 40 -129 6 -3 -15 0 -17 14 -11 33 14
61 8 103 -21 43 -31 51 -44 26 -44 -8 0 -15 -6 -15 -14 0 -10 15 -13 58 -12
l57 1 -1 -30 c-1 -16 -5 -40 -9 -52 -6 -18 1 -28 44 -59 82 -58 101 -124 50
-170 -26 -23 -137 -33 -150 -13 -6 9 -7 -53 -3 -156 4 -93 9 -172 11 -175 2
-2 3 63 2 145 l-1 150 98 0 99 0 8 -185 c5 -102 10 -187 13 -189 14 -14 15 31
6 223 l-10 215 67 69 c84 85 130 170 112 208 -6 14 -25 31 -41 37 -28 10 -30
15 -30 60 0 39 -5 53 -26 72 -27 25 -122 65 -152 64 -9 0 -53 -25 -97 -55z
m145 -479 c0 -8 -7 -15 -16 -15 -14 0 -14 3 -4 15 7 8 14 15 16 15 2 0 4 -7 4
-15z"/>
<path d="M1124 1070 c22 -4 45 -16 53 -26 7 -10 13 -13 13 -7 0 21 -37 43 -71
42 l-34 -1 39 -8z"/>
<path d="M11190 1073 c-26 -10 -50 -36 -50 -55 0 -24 8 -23 36 8 31 32 70 29
97 -8 18 -24 19 -32 8 -68 -7 -23 -19 -44 -27 -47 -16 -6 -19 -33 -3 -33 6 0
22 9 36 20 37 29 71 26 84 -7 14 -34 -10 -139 -41 -183 -29 -41 -26 -52 13
-45 24 5 39 1 59 -14 80 -64 13 -181 -104 -181 -31 0 -50 5 -54 13 -2 8 -8 80
-12 162 -5 112 -10 149 -21 153 -11 4 -12 -24 -6 -169 13 -319 19 -382 34
-387 12 -4 13 12 7 99 l-6 104 44 -3 c61 -5 109 13 145 53 60 68 46 158 -28
191 l-38 16 25 61 c18 45 23 73 20 108 -6 61 -21 79 -65 79 -30 0 -34 3 -28
20 4 11 1 36 -5 55 -16 50 -71 76 -120 58z"/>
<path d="M8920 1060 c0 -5 10 -10 23 -10 38 0 67 -27 67 -64 0 -42 26 -66 73
-66 51 0 77 -28 77 -83 0 -37 -4 -46 -25 -55 -14 -6 -25 -16 -25 -22 0 -13 6
-13 39 4 65 34 107 -41 57 -101 -26 -31 -113 -79 -124 -69 -3 3 -11 57 -18
118 -17 148 -23 178 -35 178 -7 0 -8 -14 -4 -38 3 -21 12 -90 20 -153 13 -109
13 -115 -6 -131 -25 -21 -24 -32 1 -25 16 4 20 0 20 -17 0 -20 -17 -28 -177
-79 -203 -65 -352 -102 -502 -126 -59 -10 -106 -22 -109 -29 -12 -37 314 30
625 127 89 28 164 51 167 51 3 0 6 -16 6 -35 0 -50 18 -44 22 8 l3 42 259 87
c351 117 572 169 819 193 50 5 67 10 67 22 0 11 -8 14 -37 9 -21 -3 -69 -8
-108 -11 -187 -17 -446 -82 -807 -204 l-208 -70 0 27 c0 23 8 31 55 51 73 31
115 79 115 130 0 38 -16 61 -52 74 -14 5 -18 18 -18 52 0 59 -32 95 -84 95
-29 0 -38 5 -51 30 -8 16 -15 36 -15 44 0 22 -49 56 -81 56 -16 0 -29 -4 -29
-10z"/>
<path d="M3915 1031 c-45 -20 -99 -77 -91 -96 2 -6 -8 -19 -24 -28 -33 -20
-60 -73 -60 -119 0 -36 31 -95 55 -105 28 -10 28 5 1 37 -39 47 -36 102 8 146
19 19 41 34 50 34 18 0 22 26 4 32 -23 8 46 67 93 79 57 15 79 8 79 -26 0 -42
25 -79 72 -104 63 -35 88 -61 88 -92 0 -22 -7 -30 -40 -43 -22 -9 -40 -20 -40
-26 0 -14 17 -12 90 11 97 30 160 10 160 -53 0 -63 -107 -139 -245 -176 -37
-9 -65 -22 -65 -29 0 -17 20 -16 88 3 92 26 191 83 223 127 33 45 38 99 14
134 -20 28 -78 47 -121 39 -30 -6 -34 -4 -34 14 0 40 -30 80 -78 104 -60 30
-71 44 -79 93 -3 21 -10 44 -16 51 -14 18 -86 14 -132 -7z"/>
<path d="M2525 1007 c-22 -22 -35 -45 -35 -61 0 -35 13 -33 31 6 8 18 26 39
42 48 41 22 77 -1 97 -62 20 -62 35 -76 106 -94 80 -21 91 -28 104 -69 9 -28
8 -40 -6 -71 -18 -38 -76 -73 -122 -74 -15 0 -22 -5 -19 -12 6 -19 74 -12 113
13 44 27 64 66 64 122 0 35 -6 51 -28 75 -28 30 -39 35 -114 47 -29 4 -42 13
-53 35 -8 16 -15 36 -15 44 0 29 -53 76 -92 83 -33 5 -41 2 -73 -30z"/>
<path d="M1190 1005 c0 -8 10 -19 23 -24 38 -15 70 -56 62 -83 -5 -18 -4 -20
4 -8 26 37 0 100 -42 100 -8 0 -23 7 -31 16 -15 14 -16 14 -16 -1z"/>
<path d="M6760 986 c0 -10 -9 -16 -24 -16 -54 0 -95 -65 -67 -109 11 -16 111
-41 172 -41 43 0 49 3 88 50 23 27 39 55 36 60 -11 18 -58 37 -120 50 -33 7
-65 15 -72 17 -7 3 -13 -2 -13 -11z m145 -42 c24 -10 17 -43 -14 -75 -33 -32
-39 -33 -131 -16 -62 12 -65 13 -68 43 -4 38 11 51 63 57 43 5 126 0 150 -9z"/>
<path d="M8883 918 c-74 -113 -76 -130 -22 -168 36 -27 38 -65 6 -135 -50
-106 -44 -145 23 -145 43 0 70 8 70 21 0 4 -22 5 -48 2 -66 -7 -71 9 -32 97
39 88 39 126 0 175 -16 21 -30 44 -30 51 0 7 21 43 46 81 25 37 48 71 50 76 3
4 -1 7 -8 7 -7 0 -32 -28 -55 -62z"/>
<path d="M6105 951 c-37 -9 -74 -28 -100 -52 -17 -15 -26 -16 -65 -7 -58 13
-117 -2 -159 -41 -61 -57 -50 -103 35 -140 26 -12 45 -28 49 -42 21 -68 70
-74 266 -33 78 16 141 24 169 20 167 -19 163 -19 199 6 21 14 39 38 48 62 7
22 21 48 29 58 15 16 15 21 -10 71 -18 37 -37 60 -60 72 -33 18 -36 18 -93 1
l-59 -18 -83 26 c-84 27 -113 29 -166 17z m153 -37 c52 -17 88 -24 112 -20
120 20 120 20 145 -4 13 -12 29 -35 35 -50 11 -25 8 -37 -18 -93 -39 -82 -68
-97 -151 -78 -75 18 -133 15 -276 -14 -175 -36 -197 -34 -220 21 -11 26 -26
39 -62 55 -72 31 -76 43 -33 92 41 47 101 64 157 44 40 -14 42 -13 66 11 24
24 114 61 150 62 10 0 53 -12 95 -26z"/>
<path d="M6470 800 c-18 -44 -40 -52 -170 -61 -82 -5 -136 -15 -189 -33 -117
-41 -132 -37 -223 52 -32 31 -58 52 -58 46 0 -13 99 -108 127 -123 35 -18 94
-13 174 15 53 18 102 27 174 30 114 6 158 22 176 66 6 16 9 31 7 34 -3 2 -11
-9 -18 -26z"/>
<path d="M4790 929 c-19 -6 -39 -15 -44 -20 -18 -17 1 -19 43 -4 69 24 120
-12 106 -75 -8 -36 22 -70 63 -70 44 0 116 -41 126 -72 16 -45 -3 -77 -74
-128 -36 -25 -66 -54 -68 -63 -3 -13 11 -7 49 20 95 68 119 96 119 140 0 21
-7 49 -16 61 -18 26 -84 62 -114 62 -43 0 -60 18 -60 64 0 75 -50 108 -130 85z"/>
<path d="M11098 901 c-75 -48 -120 -150 -89 -201 7 -10 0 -25 -25 -53 -41 -45
-54 -75 -54 -125 0 -76 66 -135 131 -116 41 12 33 30 -12 26 -31 -3 -41 2 -64
30 -23 27 -26 39 -22 75 6 52 43 105 97 135 37 22 50 48 19 39 -32 -8 -43 -5
-47 12 -12 59 34 129 110 168 21 11 38 24 38 29 0 19 -36 10 -82 -19z"/>
<path d="M7903 865 c-18 -8 -66 -42 -105 -77 l-73 -62 -3 43 c-4 55 -20 71
-70 71 -50 0 -54 -9 -51 -124 l2 -89 -54 -45 c-67 -55 -84 -96 -24 -56 l25 16
0 -186 c0 -117 4 -186 10 -186 6 0 10 71 10 193 l0 193 33 31 c17 16 84 73
148 125 l115 96 127 -111 127 -112 0 -218 c0 -171 3 -218 13 -215 9 4 13 55
15 201 l2 197 40 0 40 0 0 -170 c0 -107 4 -170 10 -170 6 0 10 63 10 169 l0
170 28 3 c15 2 27 9 27 15 0 7 -72 80 -160 163 -170 159 -177 163 -242 135z
m211 -147 l143 -133 -44 -3 c-45 -3 -61 8 -312 234 -12 11 -11 15 10 23 13 5
32 10 42 10 10 1 82 -59 161 -131z m-424 44 c0 -52 -3 -62 -30 -87 l-30 -29 0
87 0 87 30 0 c30 0 30 0 30 -58z"/>
<path d="M7950 826 c0 -4 196 -176 234 -206 11 -8 17 -10 15 -4 -4 12 -234
214 -243 214 -3 0 -6 -2 -6 -4z"/>
<path d="M4713 778 c-22 -40 -44 -83 -48 -95 -9 -31 2 -61 25 -68 33 -10 33
-36 0 -66 -31 -29 -39 -60 -17 -77 6 -5 49 -13 94 -17 l81 -7 4 -55 c1 -30 1
-56 -2 -57 -3 -2 -108 7 -235 20 -126 12 -323 28 -436 35 l-206 12 -6 103 c-3
56 -3 143 0 193 5 80 4 91 -11 91 -14 0 -16 -21 -16 -195 l0 -195 -202 0
c-214 0 -248 -4 -248 -26 0 -11 39 -12 224 -7 l224 6 7 -46 c9 -59 25 -61 25
-4 l0 42 62 -2 c156 -7 410 -27 728 -58 190 -19 389 -37 443 -41 69 -5 100
-11 104 -21 3 -7 14 -13 24 -13 15 0 19 -7 19 -40 0 -53 18 -51 22 2 3 39 6
43 33 48 16 3 77 2 135 -2 267 -18 583 -28 1023 -35 423 -5 477 -5 477 9 0 22
-87 28 -455 28 -303 0 -702 11 -954 26 l-114 7 36 19 c49 25 72 60 57 87 -6
12 -14 21 -19 21 -4 0 -12 16 -17 37 -9 36 -15 41 -66 62 -26 10 -28 15 -28
65 0 70 -15 86 -81 86 -58 0 -129 -32 -173 -79 -44 -46 -23 -49 28 -4 63 56
167 83 194 50 6 -7 12 -40 14 -72 l3 -60 43 -13 c33 -11 42 -19 42 -36 0 -13
9 -33 20 -46 11 -13 20 -25 20 -27 0 -40 -98 -85 -173 -81 l-52 3 -2 140 c-2
172 -1 163 -13 145 -5 -8 -10 -75 -10 -147 0 -131 0 -133 -22 -133 -45 0 -431
39 -436 44 -3 3 -7 29 -10 57 l-5 51 39 -3 c22 -2 41 1 44 7 3 5 -14 10 -37
12 -42 3 -43 4 -42 40 1 34 2 35 10 12 5 -16 6 7 2 60 -3 47 -9 87 -13 90 -4
3 -11 29 -15 58 -14 105 -23 35 -14 -107 5 -80 8 -146 6 -147 -1 -1 -32 3 -69
8 -81 12 -94 31 -53 80 30 36 29 58 -4 75 -46 22 -45 37 3 127 48 86 51 96 38
96 -4 0 -26 -33 -49 -72z m154 -215 c-2 -16 -4 -3 -4 27 0 30 2 43 4 28 2 -16
2 -40 0 -55z"/>
<path d="M1098 735 c2 -55 6 -102 8 -104 7 -8 3 125 -5 164 -6 26 -7 5 -3 -60z"/>
<path d="M664 779 c-3 -6 -25 -19 -48 -29 -26 -12 -34 -19 -21 -19 16 -1 10
-10 -28 -44 -66 -61 -63 -95 8 -81 46 8 46 24 0 17 -47 -8 -47 18 0 50 40 27
122 117 106 117 -5 0 -13 -5 -17 -11z"/>
<path d="M10605 759 c-499 -47 -734 -84 -975 -155 -136 -39 -277 -95 -278
-109 0 -12 1 -12 114 30 275 103 552 154 1139 210 315 30 338 33 330 46 -4 5
-12 8 -18 8 -7 -1 -147 -14 -312 -30z"/>
<path d="M7840 727 c0 -13 160 -177 173 -177 20 0 -1 33 -69 108 -71 77 -104
99 -104 69z"/>
<path d="M6632 711 c-46 -10 -88 -24 -93 -32 -15 -24 -10 -47 14 -66 20 -15
43 -18 161 -18 133 0 139 1 157 24 40 49 20 82 -58 92 -32 4 -67 10 -78 13
-11 2 -57 -3 -103 -13z m210 -45 c10 -11 18 -24 18 -29 0 -18 -53 -25 -151
-21 -126 6 -149 10 -149 28 0 37 78 57 190 49 61 -4 78 -9 92 -27z"/>
<path d="M110 590 l0 -70 -32 0 c-18 0 -43 -3 -55 -6 -42 -12 -23 -23 35 -21
l57 2 6 -155 c4 -85 7 -174 8 -197 1 -32 5 -43 17 -43 13 0 15 9 10 58 -3 31
-8 157 -12 280 -5 178 -9 222 -20 222 -11 0 -14 -17 -14 -70z"/>
<path d="M10450 647 c-38 -19 -76 -83 -120 -199 -45 -120 -52 -184 -22 -211
10 -10 24 -17 30 -17 16 0 105 43 114 54 3 5 10 -23 14 -62 3 -40 11 -72 16
-72 5 0 7 12 4 27 -3 16 -10 63 -17 106 -6 43 -16 80 -21 83 -5 4 -7 -8 -3
-28 6 -33 5 -33 -52 -56 -52 -21 -58 -22 -69 -7 -14 19 -12 31 33 165 20 61
49 125 69 153 33 45 37 47 82 47 68 0 75 -7 71 -76 l-4 -59 38 -1 c80 -2 114
-79 59 -133 -27 -27 -128 -69 -139 -57 -3 3 -10 54 -14 112 -9 109 -13 125
-28 108 -12 -12 21 -415 34 -414 6 0 9 32 7 80 l-2 78 32 7 c51 11 124 51 147
81 48 61 3 163 -71 164 -27 0 -28 1 -28 60 0 48 -4 61 -19 70 -27 14 -111 12
-141 -3z"/>
<path d="M712 552 c-1 -46 -6 -81 -11 -78 -4 3 -6 17 -4 30 8 38 -46 88 -89
84 -21 -2 -34 -9 -36 -20 -3 -14 3 -16 31 -11 44 7 70 -25 61 -73 -5 -25 -2
-32 13 -36 11 -3 31 -29 46 -62 15 -31 31 -56 35 -56 20 0 62 -51 62 -73 0
-40 -25 -52 -112 -53 l-78 -1 0 143 c0 120 -2 144 -15 144 -12 0 -15 -27 -17
-157 l-3 -158 -27 -9 c-63 -22 -115 30 -78 77 l20 25 -34 26 c-19 14 -39 26
-45 26 -18 0 -12 -24 8 -37 15 -9 17 -20 13 -61 -4 -44 -2 -51 24 -71 24 -19
37 -22 77 -17 l47 5 0 -64 c0 -51 3 -65 15 -65 12 0 15 15 15 79 0 92 4 96 86
85 82 -10 134 26 134 95 0 23 -10 38 -44 66 -59 48 -80 99 -87 210 l-5 90 -2
-83z"/>
<path d="M11130 614 c0 -6 7 -55 15 -110 8 -54 15 -129 15 -166 0 -41 4 -68
11 -68 7 0 8 24 4 73 -11 134 -27 252 -36 267 -5 8 -9 10 -9 4z"/>
<path d="M1952 389 c5 -194 14 -264 30 -232 2 4 2 108 0 231 -4 191 -6 222
-20 222 -13 0 -14 -27 -10 -221z"/>
<path d="M1414 504 c3 -26 6 -91 6 -145 0 -59 4 -99 10 -99 11 0 14 191 4 253
-10 55 -28 47 -20 -9z"/>
<path d="M430 530 c0 -6 32 -10 75 -10 43 0 75 4 75 10 0 6 -32 10 -75 10 -43
0 -75 -4 -75 -10z"/>
<path d="M8184 340 c0 -107 2 -151 3 -97 2 53 2 141 0 195 -1 53 -3 9 -3 -98z"/>
<path d="M5384 405 c0 -49 1 -71 3 -48 2 23 2 64 0 90 -2 26 -3 8 -3 -42z"/>
<path d="M7742 333 l3 -88 39 -3 c22 -2 50 -1 63 2 22 6 23 11 23 91 l0 85
-65 0 -66 0 3 -87z m98 2 l0 -65 -40 0 -40 0 0 58 c0 32 3 62 7 65 3 4 21 7
40 7 l33 0 0 -65z"/>
<path d="M2703 335 c0 -33 2 -45 4 -27 2 18 2 45 0 60 -2 15 -4 0 -4 -33z"/>
<path d="M2986 320 c13 -13 284 -66 449 -87 183 -23 736 -26 757 -4 11 11 7
13 -22 8 -19 -4 -109 -9 -200 -13 -264 -10 -610 22 -874 82 -124 27 -123 27
-110 14z"/>
<path d="M5713 157 c5 -15 196 -31 562 -48 380 -17 1035 -2 1035 24 0 6 -35 8
-97 3 -391 -26 -1179 -11 -1471 29 -23 3 -32 0 -29 -8z"/>
</g>
</svg>
