<?xml version="1.0" encoding="utf-8"?>
<!-- Generator: Adobe Illustrator 23.0.1, SVG Export Plug-In . SVG Version: 6.00 Build 0)  -->
<svg version="1.1" id="Layer_1" xmlns="http://www.w3.org/2000/svg" xmlns:xlink="http://www.w3.org/1999/xlink" x="0px" y="0px"
	 viewBox="0 0 1366 150" style="enable-background:new 0 0 1366 150;" xml:space="preserve">
<style type="text/css">
	.st0{fill:#FFFFFF;}
</style>
<rect class="st0" width="1369.4" height="150"/>
<g transform="translate(0.000000,113.000000) scale(0.100000,-0.100000)">
	<path d="M2049.5,1076.3c-52.4-62.9-58.5-108.5-16.8-137.9c15.6-12.1,31-36.2,33.4-54.9c4.8-28.1-1.2-36.2-40.6-56.2
		c-106.2-53.6-138.4-166.1-69.2-245.1c38.2-42.9,128.9-85.7,212.4-101.8c27.4-5.4,50.1-13.4,50.1-18.7c0-4-13.2-30.8-29.8-57.6
		c-33.4-56.2-37-72.3-14.4-83c7.1-4-54.8-4-140.8,0c-136,6.7-157.5,10.7-175.4,34.8c-12,14.7-27.4,24.1-35.8,21.4
		c-9.5-4,13.2-38.8,54.8-88.4c70.4-83,81.2-123.2,31-123.2c-13.2,0-23.8-5.4-23.8-13.4c0-26.8,56-12.1,82.4,21.4l26.2,34.8
		l-45.4,46.9l-45.4,45.5l83.6-6.7c46.6-4,109.8-8,142-8h58.5l-7.1-46.9c-3.6-25.4-17.9-62.9-31-83c-29.8-41.5-33.4-77.7-6-65.6
		c10.7,4,53.6,8,96.6,8c56,0,76.3,4,72.8,17.4c-3.6,9.4-31,17.4-66.8,20.1l-62,4l19.1,40.2c12,25.4,16.8,68.3,15.6,116.5
		c-2.4,58.9,3.6,89.7,25,136.6c22.6,49.6,29.8,88.4,34.6,207.6c6,117.9,10.7,147.3,25,148.7c35.8,2.7,38.2,5.4,23.8,25.4
		c-20.3,28.1-43,25.4-72.8-8c-22.6-25.4-23.8-37.5-16.8-127.2c4.8-53.6,4.8-120.5,1.2-147.3l-8.3-48.2l-50.1,9.4
		c-109.8,21.4-214.7,87-236.2,148.7c-23.8,73.7,50.1,172.8,140.8,188.8c25,5.4,53.6,17.4,63.2,29.5c15.6,17.4,15.6,18.7-7.1,12.1
		c-32.2-9.4-64.4,10.7-64.4,41.5c0,13.4-13.2,30.8-29.8,38.8c-16.7,8-29.8,22.8-29.8,30.8c0,29.5,50.1,105.8,81.2,125.9
		c17.9,10.7,25,18.7,15.6,20.1C2103.1,1129.9,2075.7,1105.8,2049.5,1076.3z"/>
	<path d="M2340.6,1116.5c6-20.1,45.4-53.6,115.8-96.4c29.8-18.7,37-30.8,37-68.3c0-25.4,10.7-61.6,23.8-80.4
		c37-52.2,50.1-105.8,37-146c-13.2-38.8-58.5-91.1-78.7-91.1c-7.1,0-33.4,30.8-58.5,68.3c-31,45.5-50.1,62.9-58.5,53.6
		c-17.9-20.1,39.4-107.1,118-183.5c35.8-33.5,64.4-72.3,64.4-84.4c0-42.9-52.4-115.2-81.2-112.5c-15.6,2.7-26.2-4-26.2-14.7
		c0-12.1,31-30.8,77.5-48.2c48.9-18.7,77.5-36.2,77.5-48.2c0-28.1-108.6-144.6-153.9-166.1c-20.3-9.4-37-21.4-37-26.8
		c0-62.9,165.8,61.6,220.7,166.1c10.7,20.1,25,21.4,153.9,8c99-9.4,149.2-20.1,163.4-34.8c28.6-29.5,103.8-57.6,151.5-58.9h39.4
		L3124.4,21c-1.2-72.3,1.2-139.3,6-147.3c22.6-41.5,31-5.4,31,131.2c0,108.5,3.6,147.3,15.6,148.7c48.9,2.7,97.8,13.4,102.6,24.1
		c10.7,20.1,499.9-62.9,990.1-167.4c198.1-41.5,245.8-46.9,225.5-25.4C4466.6,17,3310.6,228.6,3252.3,211.2
		c-26.2-6.7-29.8-1.3-47.8,92.4c-10.7,54.9-27.4,111.2-37,124.5c-13.2,18.7-12,5.4,4.8-49.6c12-40.2,26.2-99.1,31-129.9
		c7.1-53.6,6-56.2-21.4-56.2s-28.6,5.4-37,97.8c-12,147.3-46.6,321.4-65.6,328.1c-13.2,5.4-15.6-4-9.5-38.8
		c19.1-124.5,43-291.9,48.9-337.5c4.8-44.2,2.4-49.6-20.3-49.6c-41.8,0-113.4,25.4-132.4,48.2c-9.5,10.7-21.4,41.5-26.2,69.6
		c-10.7,67-35.8,96.4-82.4,96.4c-52.4,0-71.6,30.8-71.6,112.5c0,142,66.8,233,157.5,214.3c33.4-6.7,41.8-5.4,37,9.4
		c-8.3,28.1-109.8,32.1-145.5,4c-53.6-38.8-80-103.1-85.9-208.9c-8.3-131.2,7.1-162,82.4-172.8c60.9-6.7,80-25.4,80-76.3
		c0-28.1-3.6-30.8-50.1-24.1c-28.6,4-90.6,10.7-139.6,14.7c-60.9,6.7-99,17.4-118,34.8c-16.8,13.4-38.2,25.4-50.1,25.4
		c-34.6,0-35.8,14.7-6,60.3c45.4,64.3,40.6,129.9-10.7,176.8l-42.2,36.3l34.6,42.9c51.2,65.6,56,115.2,19.1,195.5
		c-16.7,36.2-31,79-31,93.7c0,44.2-22.6,76.3-75.2,105.8c-27.4,16.1-63.2,41.5-78.7,57.6C2344.2,1127.2,2336.9,1129.9,2340.6,1116.5
		z"/>
	<path d="M9251.3,1116.5c-3.6-6.7-19.1-13.4-33.4-13.4c-14.4,0-43-12.1-63.2-25.4c-26.2-17.4-43-21.4-57.3-12.1
		c-22.6,14.7-81.2,2.7-128.9-24.1c-62-36.2-85.9-131.2-51.2-204.9c20.3-45.5,83.5-80.4,103.8-57.6c9.5,10.7,7.1,17.4-9.5,24.1
		c-127.7,50.9-79.9,233,62,233c25,0,27.4-2.7,14.4-26.8c-25-44.2,0-45.5,44.2-2.7c22.6,22.8,62,48.2,88.3,56.2
		c39.4,12.1,60.9,33.5,60.9,61.6C9281.2,1135.3,9258.5,1129.9,9251.3,1116.5z"/>
	<path d="M9818,1096.4c-15.6-18.7-51.2-45.5-81.2-61.6c-44.2-25.4-66.8-28.1-146.7-21.4c-51.2,4-91.8,2.7-89.4-2.7
		c10.7-18.7-39.4-93.7-89.4-133.9c-27.4-22.8-68-44.2-89.4-49.6c-22.6-4-40.6-16.1-40.6-26.8c0-50.9,144.3,20.1,206.4,101.8
		c23.8,32.1,44.2,62.9,44.2,69.6c0,5.4,38.2,10.7,83.5,10.7c46.6,0,101.4,8,124,18.7c41.8,20.1,126.5,97.8,126.5,116.5
		C9865.7,1139.3,9846.7,1131.3,9818,1096.4z"/>
	<path d="M9543.6,1092.4c26.2-18.7,167-32.1,167-16.1c0,8-23.8,13.4-52.4,13.4c-28.6,0-70.4,4-91.8,8
		C9538.9,1103.1,9531.8,1100.5,9543.6,1092.4z"/>
	<path d="M1221.5,1033.5c-10.7-41.5-16.8-44.2-75.2-53.6c-69.2-9.4-113.4-44.2-126.5-100.4c-7.1-33.5-7.1-33.5-71.6,34.8
		c-35.8,37.5-68,68.3-74,68.3c-4.8-1.3-21.4-30.8-37-65.6c-14.4-36.2-48.9-93.7-75.2-127.2c-27.4-34.8-46.6-65.6-44.2-68.3
		c10.7-12.1,93,95.1,125.2,163.4l34.6,69.6l74-73.7c113.4-113.8,122.8-156.7,44.2-198.2l-41.6-22.7l29.8-36.2
		c31-37.5,47.8-83,39.4-111.2c-2.4-9.4-31-32.1-64.4-50.9c-50.1-30.8-58.5-41.5-62-80.4c-3.6-36.2,3.6-53.6,35.8-91.1
		c39.4-45.5,39.4-45.5,17.9-85.7c-23.8-48.2-26.2-92.4-4.8-92.4c25,0,43,20.1,43,46.9c0,14.7,3.6,45.5,7.1,67
		c6,32.1,0,50.9-28.6,92.4c-20.3,28.1-37,60.3-37,69.6c0,26.8,39.4,45.5,94.2,45.5c44.2,0,48.9,2.7,48.9,34.8
		c0,49.6,19.1,81.7,58.5,96.4c57.3,22.8,78.7,6.7,111-76.3c29.8-76.3,32.2-79,85.9-87c62-10.7,70.4-32.1,31-88.4
		c-31-44.2-29.8-58.9,6-117.9c33.4-54.9,38.2-119.2,13.2-174.1C1341-60.8,1275.4-88.9,1230-43.4c-10.8,12.1-27.4,21.4-34.6,21.4
		c-9.5,0-14.4,71-16.8,243.7c-2.4,179.5-7.1,243.7-17.9,249.1c-12,4-15.6-68.3-15.6-330.8c0-215.6,4.8-336.1,12-336.1
		c7.1,0,12,26.8,12,58.9c0,72.3,16.7,87,52.4,49.6c14.4-16.1,40.6-28.1,57.3-28.1c66.8,0,152.7,124.5,152.7,221
		c0,32.1,4.8,46.9,17.9,46.9c9.5,0,17.9,8,17.9,17.4c0,10.7,14.4,32.1,31,50.9c33.4,34.8,100.2,155.3,100.2,183.5
		c0,30.8-19.1,16.1-39.4-30.8c-19.1-44.2-22.6-46.9-80-46.9c-58.5,0-59.7,1.3-59.7,38.8v38.8l56-18.7c65.6-22.8,75.2-22.8,75.2-5.4
		c0,6.7-21.4,18.7-47.8,26.8l-47.8,14.7l69.2,91.1c80,107.1,114.6,170.1,99,180.8c-4.8,4-29.8-26.8-54.8-68.3
		c-25-41.5-70.4-104.5-101.4-139.3c-53.6-60.3-58.5-62.9-103.8-53.6c-64.4,13.4-69.2,18.7-100.2,101.8l-27.4,73.7h-53.6
		c-32.2,0-70.4-10.7-91.8-25.4l-37-25.4l-32.2,46.9c-19.1,25.4-31,46.9-28.6,49.6c1.2,1.3,17.9,13.4,37,25.4
		c40.6,29.5,45.4,99.1,8.3,136.6c-22.6,22.8-22.6,24.1,0,72.3c26.2,58.9,71.6,85.7,124,73.7c41.8-8,57.3,5.4,72.8,61.6
		c4.8,18.7,15.6,37.5,22.6,42.9c8.3,6.7,6,10.7-6,10.7C1239.4,1076.4,1227.5,1058.9,1221.5,1033.5z M1482.8,246
		c-27.4-29.5-54.8-53.6-60.9-53.6c-16.7,0-41.8,62.9-34.6,85.7c6,16.1,25,21.4,76.3,21.4l69.2-1.3L1482.8,246z"/>
	<path d="M1575.9,867.4c-69.2-144.6-95.4-212.9-87.1-222.3c19.1-21.4,56-1.3,40.6,20.1c-9.5,12.1,10.7,67,76.3,203.6
		c48.9,101.8,88.3,191.5,88.3,196.9C1693.9,1103.1,1662.9,1050.9,1575.9,867.4z"/>
	<path d="M1736.9,1065.6c-10.7-20.1,48.9-146,94.2-195.5c50.1-56.2,47.8-83-6-103.1c-19.1-8-35.8-21.4-35.8-29.5
		c0-28.1,68-148.7,106.2-188.8c28.6-30.8,33.4-44.2,23.8-62.9c-6-14.7-19.1-25.4-28.6-25.4s-17.9-5.4-17.9-13.4
		c0-25.4,46.6-13.4,64.4,16.1c27.4,42.9,23.8,71-12,96.4c-31,24.1-100.2,135.3-100.2,163.4c0,8,10.7,18.7,22.6,22.8
		c12,2.7,32.2,22.8,44.2,41.5l20.3,36.2l-54.8,62.9c-29.8,34.8-65.6,91.1-80,127.2C1751.3,1077.7,1747.7,1084.4,1736.9,1065.6z"/>
	<path d="M9435.1,997.3c-57.3-123.2-64.4-127.2-212.4-135.3l-126.5-6.7l95.4-9.4c103.8-12.1,169.4,1.3,200.4,40.2
		c28.6,36.2,103.8,190.2,91.8,190.2C9477.9,1076.3,9456.5,1040.2,9435.1,997.3z"/>
	<path d="M280.3,988c-52.4-40.2-97.8-79-100.2-88.4c-7.1-24.1,28.6-4,122.8,69.6l85.9,67l72.8-28.2c96.6-36.2,128.9-75,124-151.3
		c-1.2-21.4-8.3-24.1-43-17.4c-47.8,9.4-56-12.1-12-30.8c16.7-6.7,29.8-18.7,29.8-26.8c0-9.4,9.5-12.1,23.8-6.7
		c31,10.7,83.6-25.4,83.6-57.6c0-37.5-64.4-151.3-126.5-223.6l-57.3-67l-6,44.2c-3.6,24.1-9.5,41.5-13.2,40.2
		c-3.6-2.7-27.4,21.4-52.4,52.2c-23.8,30.8-54.8,60.3-68,64.3c-20.3,8-22.6,17.4-15.6,73.7c6,53.6,3.6,68.3-17.9,92.4
		c-14.4,16.1-40.6,28.1-60.9,28.1c-22.6,0-35.8,6.7-35.8,18.7c0,10.7-26.2,37.5-58.5,61.6c-69.2,49.6-146.7,53.6-153.9,8
		c-3.6-20.1,0-22.8,16.7-14.7c39.4,18.7,72.8,10.7,122.8-28.1c51.2-41.5,60.9-58.9,31-58.9c-9.5,0-17.9-8-17.9-18.7
		c0-13.4,17.9-17.4,69.2-16.1l68.5,1.3l-1.2-40.2c-1.2-21.4-6-53.6-10.7-69.6c-7.1-24.1,1.2-37.5,52.4-79
		c97.8-77.7,120.4-166.1,59.7-227.7c-31-30.8-163.4-44.2-179-17.4c-7.1,12.1-8.3-71-3.6-208.9C214.7,7.7,220.5-98.1,223-102.2
		c2.4-2.7,3.6,84.4,2.4,194.2l-1.2,200.9H341h118l9.6-247.8c6-136.6,12-250.4,15.6-253.1c16.7-18.7,17.9,41.5,7.1,298.6l-12,287.9
		l80,92.4c100.2,113.8,155.1,227.7,133.6,278.6c-7.1,18.7-29.8,41.5-48.9,49.6c-33.4,13.4-35.8,20.1-35.8,80.4c0,52.2-6,71-31,96.4
		c-32.2,33.5-145.5,87-181.4,85.7C385.2,1061.6,332.8,1028.1,280.3,988z M453.2,346.5c0-10.7-8.3-20.1-19.1-20.1
		c-16.7,0-16.7,4-4.8,20.1c8.3,10.7,16.7,20.1,19.1,20.1C451,366.6,453.2,357.2,453.2,346.5z"/>
	<path d="M1340.9,1049.6c26.2-5.4,53.6-21.4,63.2-34.8c8.3-13.4,15.6-17.4,15.6-9.4c0,28.1-44.2,57.6-84.7,56.2l-40.6-1.3
		L1340.9,1049.6z"/>
	<path d="M13349.2,1053.6c-31-13.4-59.7-48.2-59.7-73.7c0-32.1,9.5-30.8,43,10.7c37,42.9,83.5,38.8,115.8-10.7
		c21.4-32.1,22.6-42.9,9.5-91.1c-8.3-30.8-22.6-58.9-32.2-62.9c-19.1-8-22.6-44.2-3.6-44.2c7.1,0,26.2,12.1,43,26.8
		c44.2,38.8,84.7,34.8,100.2-9.4c16.8-45.5-12-186.1-48.9-245.1c-34.6-54.9-31-69.6,15.6-60.3c28.6,6.7,46.6,1.3,70.4-18.7
		c95.4-85.7,15.6-242.4-124-242.4c-37,0-59.7,6.7-64.4,17.4c-2.4,10.7-9.5,107.1-14.4,217c-6,150-12,199.5-25,204.9
		s-14.4-32.1-7.1-226.3c15.6-427.2,22.6-511.6,40.6-518.3c14.4-5.4,15.6,16.1,8.3,132.6l-7.1,139.3l52.4-4
		c72.8-6.7,130.1,17.4,173,71c71.6,91.1,54.8,211.6-33.4,255.8l-45.4,21.4l29.8,81.7c21.4,60.3,27.4,97.8,23.8,144.6
		c-7.1,81.7-25,105.8-77.5,105.8c-35.8,0-40.6,4-33.4,26.8c4.8,14.7,1.2,48.2-6,73.7C13473.2,1042.9,13407.7,1077.7,13349.2,1053.6z
		"/>
	<path d="M10641.2,1036.2c0-6.7,12-13.4,27.4-13.4c45.4,0,79.9-36.2,79.9-85.7c0-56.2,31-88.4,87.1-88.4
		c60.9,0,91.8-37.5,91.8-111.2c0-49.6-4.8-61.6-29.8-73.7c-16.8-8-29.8-21.4-29.8-29.5c0-17.4,7.1-17.4,46.6,5.4
		c77.5,45.5,127.7-54.9,68-135.3c-31-41.5-134.8-105.8-147.9-92.4c-3.6,4-13.2,76.3-21.4,158c-20.3,198.2-27.4,238.4-41.8,238.4
		c-8.3,0-9.5-18.7-4.8-50.9c3.6-28.1,14.4-120.5,23.8-204.9c15.6-146,15.6-154-7.1-175.4c-29.8-28.1-28.6-42.9,1.2-33.5
		c19.1,5.4,23.8,0,23.8-22.8c0-26.8-20.3-37.5-211.2-105.8c-242.2-87-419.8-136.6-598.8-168.7c-70.4-13.3-126.5-29.4-130.1-38.7
		c-14.4-49.6,374.6,40.2,745.7,170.1c106.2,37.5,195.7,68.3,199.2,68.3c3.5,0,7.1-21.4,7.1-46.9c0-67,21.4-58.9,26.2,10.7l3.6,56.2
		l309,116.5c418.6,156.7,682.4,226.3,977.1,258.5c59.7,6.7,80,13.4,80,29.5c0,14.7-9.5,18.7-44.2,12.1c-25-4-82.4-10.7-128.9-14.7
		c-223.1-22.8-532-109.8-962.7-273.2l-248.2-93.7v36.2c0,30.8,9.5,41.5,65.6,68.3c87.1,41.5,137.2,105.8,137.2,174.1
		c0,50.9-19.1,81.7-62,99.1c-16.7,6.7-21.4,24.1-21.4,69.6c0,79-38.2,127.2-100.2,127.2c-34.6,0-45.4,6.7-60.9,40.2
		c-9.5,21.4-17.9,48.2-17.9,58.9c0,29.5-58.5,75-96.6,75C10656.7,1049.6,10641.2,1044.2,10641.2,1036.2z"/>
	<path d="M4670.4,997.3c-53.6-26.8-118-103.1-108.6-128.6c2.4-8-9.5-25.4-28.6-37.5c-39.4-26.8-71.6-97.8-71.6-159.4
		c0-48.2,37-127.2,65.6-140.6c33.4-13.4,33.4,6.7,1.2,49.6c-46.6,62.9-43,136.6,9.5,195.5c22.6,25.4,48.9,45.5,59.7,45.5
		c21.4,0,26.2,34.8,4.8,42.9c-27.4,10.7,54.8,89.7,111,105.8c68,20.1,94.2,10.7,94.2-34.8c0-56.2,29.8-105.8,85.9-139.3
		c75.2-46.9,105-81.7,105-123.2c0-29.5-8.3-40.2-47.8-57.6c-26.2-12.1-47.8-26.8-47.8-34.8c0-18.7,20.3-16.1,107.4,14.7
		c115.8,40.2,190.8,13.4,190.8-71s-127.7-186.1-292.3-235.7c-44.2-12.1-77.5-29.5-77.5-38.8c0-22.8,23.8-21.4,105,4
		c109.8,34.8,227.8,111.2,266.1,170.1c39.4,60.3,45.4,132.6,16.7,179.5c-23.8,37.5-93,62.9-144.3,52.2c-35.8-8-40.6-5.4-40.6,18.7
		c0,53.6-35.8,107.1-93,139.3c-71.6,40.2-84.7,58.9-94.2,124.5c-3.6,28.1-12,58.9-19.1,68.3
		C4811.2,1030.8,4725.3,1025.5,4670.4,997.3z"/>
	<path d="M3012.2,965.2c-26.2-29.5-41.8-60.3-41.8-81.7c0-46.9,15.6-44.2,37,8c9.5,24.1,31,52.2,50.1,64.3
		c48.9,29.5,91.8-1.3,115.8-83c23.8-83,41.8-101.8,126.5-125.9c95.4-28.1,108.6-37.5,124-92.4c10.7-37.5,9.5-53.6-7.1-95.1
		c-21.4-50.9-90.6-97.8-145.5-99.1c-17.9,0-26.2-6.7-22.6-16.1c7.1-25.4,88.3-16.1,134.8,17.4c52.4,36.2,76.3,88.4,76.3,163.4
		c0,46.9-7.1,68.3-33.4,100.4c-33.4,40.2-46.6,46.9-136,62.9c-34.6,5.4-50.1,17.4-63.2,46.9c-9.5,21.4-17.9,48.2-17.9,58.9
		c0,38.8-63.2,101.8-109.8,111.2C3059.8,1012.1,3050.4,1008,3012.2,965.2z"/>
	<path d="M1419.6,962.5c0-10.7,12-25.4,27.4-32.1c45.4-20.1,83.6-75,74-111.2c-6-24.1-4.8-26.8,4.8-10.7c31,49.6,0,133.9-50.1,133.9
		c-9.5,0-27.4,9.4-37,21.4C1420.8,982.6,1419.6,982.6,1419.6,962.5z"/>
	<path d="M8064.4,937.1c0-13.4-10.7-21.4-28.6-21.4c-64.4,0-113.4-87-79.9-146c13.2-21.4,132.4-54.9,205.2-54.9
		c51.2,0,58.5,4,105,67c27.4,36.2,46.6,73.7,43,80.4c-13.2,24.1-69.2,49.6-143.2,67c-39.4,9.4-77.5,20.1-85.9,22.8
		C8071.6,955.8,8064.4,949.1,8064.4,937.1z M8237.4,880.8c28.6-13.4,20.3-57.6-16.7-100.4c-39.4-42.9-46.6-44.2-156.3-21.4
		c-74,16.1-77.5,17.4-81.2,57.6c-4.8,50.9,13.2,68.3,75.2,76.3C8109.6,899.6,8208.7,892.9,8237.4,880.8z"/>
	<path d="M10597,846c-88.3-151.3-90.6-174.1-26.2-225c43-36.2,45.4-87,7.1-180.8c-59.7-142-52.4-194.2,27.4-194.2
		c51.2,0,83.5,10.7,83.5,28.1c0,5.4-26.2,6.7-57.3,2.7c-78.7-9.4-84.7,12.1-38.2,129.9s46.6,168.7,0,234.4
		c-19.1,28.1-35.8,58.9-35.8,68.3s25,57.6,54.8,108.5c29.8,49.6,57.3,95.1,59.7,101.8c3.6,5.4-1.2,9.4-9.5,9.4
		C10654.4,929.1,10624.5,891.5,10597,846z"/>
	<path d="M7283,890.2c-44.2-12.1-88.3-37.5-119.2-69.6c-20.3-20.1-31-21.4-77.5-9.4c-69.2,17.4-139.6-2.7-189.6-54.9
		c-72.8-76.3-59.7-137.9,41.8-187.5c31-16.1,53.6-37.5,58.5-56.2c25-91.1,83.5-99.1,317.4-44.2c93,21.4,168.2,32.1,201.6,26.8
		c199.2-25.4,194.5-25.4,237.4,8c25,18.7,46.6,50.9,57.3,83c8.3,29.5,25,64.3,34.6,77.7c17.9,21.4,17.9,28.1-12,95.1
		c-21.4,49.6-44.2,80.4-71.6,96.4c-39.4,24.1-43,24.1-111,1.3l-70.4-24.1l-99,34.8C7380.7,903.6,7346.2,906.3,7283,890.2z
		 M7465.5,840.6c62-22.8,105-32.1,133.6-26.8c143.2,26.8,143.2,26.8,173-5.4c15.6-16.1,34.6-46.9,41.8-67
		c13.2-33.5,9.5-49.6-21.4-124.5c-46.6-109.8-81.2-129.9-180.2-104.5c-89.4,24.1-158.6,20.1-329.2-18.7
		c-208.8-48.2-235-45.5-262.5,28.1c-13.2,34.8-31,52.2-74,73.7c-85.9,41.5-90.6,57.6-39.4,123.2c48.9,62.9,120.4,85.7,187.2,58.9
		c47.8-18.7,50.1-17.4,78.7,14.7c28.6,32.1,136,81.7,179,83C7364.2,875.5,7415.4,859.4,7465.5,840.6z"/>
	<path d="M7718.4,688c-21.4-58.9-47.8-69.6-202.8-81.7c-97.8-6.7-162.2-20.1-225.5-44.2c-139.6-54.9-157.5-49.6-266.1,69.6
		c-38.2,41.5-69.2,69.6-69.2,61.6c0-17.4,118-144.6,151.5-164.7c41.8-24.1,112.2-17.4,207.6,20.1c63.2,24.1,121.6,36.2,207.6,40.2
		c136,8,188.4,29.5,210,88.4c7.1,21.4,10.7,41.5,8.3,45.5C7736.3,725.5,7726.8,710.7,7718.4,688z"/>
	<path d="M5714.2,860.7c-22.6-8-46.6-20.1-52.4-26.8c-21.4-22.8,1.2-25.4,51.2-5.4c82.4,32.1,143.2-16.1,126.5-100.4
		c-9.5-48.2,26.2-93.7,75.2-93.7c52.4,0,138.4-54.9,150.4-96.4c19.1-60.3-3.6-103.1-88.3-171.4c-43-33.5-78.7-72.3-81.2-84.4
		c-3.6-17.4,13.2-9.4,58.5,26.8c113.4,91.1,142,128.6,142,187.5c0,28.1-8.3,65.6-19.1,81.7c-21.4,34.8-100.2,83-136,83
		c-51.2,0-71.6,24.1-71.6,85.7C5869.3,847.3,5809.7,891.5,5714.2,860.7z"/>
	<path d="M13239.4,823.2c-89.4-64.3-143.2-200.9-106.2-269.2c8.3-13.4,0-33.5-29.8-71c-48.9-60.3-64.4-100.4-64.4-167.4
		c0-101.8,78.7-180.8,156.3-155.3c48.9,16.1,39.4,40.2-14.4,34.8c-37-4-48.9,2.7-76.3,40.2c-27.4,36.2-31,52.2-26.2,100.4
		c7.1,69.6,51.2,140.6,115.8,180.8c44.2,29.5,59.7,64.3,22.6,52.2c-38.2-10.7-51.2-6.7-56,16.1c-14.4,79,40.6,172.8,131.2,225
		c25,14.7,45.4,32.1,45.4,38.8C13337.2,874.1,13294.3,862.1,13239.4,823.2z"/>
	<path d="M9427.9,775c-21.4-10.7-78.7-56.2-125.2-103.1l-87.1-83l-3.6,57.6c-4.8,73.7-23.8,95.1-83.5,95.1s-64.4-12.1-60.9-166.1
		l2.4-119.2l-64.4-60.3c-79.9-73.7-100.2-128.6-28.6-75l29.8,21.4v-249c0-156.7,4.8-249.1,12-249.1c7.1,0,12,95.1,12,258.5v258.5
		l39.4,41.5c20.3,21.4,100.2,97.8,176.6,167.4l137.2,128.6L9535.3,550l151.5-150V108.1c0-229,3.6-291.9,15.6-287.9
		c10.7,5.4,15.6,73.7,17.9,269.2l2.4,263.8h47.8h47.8V125.5c0-143.3,4.8-227.7,12-227.7c7.1,0,12,84.4,12,226.3v227.7l33.4,4
		c17.9,2.7,32.2,12.1,32.2,20.1c0,9.4-85.9,107.1-190.8,218.3C9513.8,807.2,9505.5,812.5,9427.9,775z M9679.6,578.2L9850.1,400
		l-52.4-4c-53.6-4-72.8,10.7-372.2,313.4c-14.4,14.7-13.2,20.1,12,30.8c15.6,6.7,38.2,13.4,50.1,13.4
		C9499.5,754.9,9585.4,674.6,9679.6,578.2z M9173.9,637.1c0-69.6-3.6-83-35.8-116.5l-35.8-38.8v116.5v116.5h35.8
		C9173.9,714.8,9173.9,714.8,9173.9,637.1z"/>
	<path d="M9484,722.8c0-5.4,233.8-235.7,279.2-275.9c13.2-10.7,20.3-13.4,17.9-5.4c-4.8,16.1-279.2,286.6-289.9,286.6
		C9487.6,728.2,9484,725.5,9484,722.8z"/>
	<path d="M5622.4,658.5c-26.2-53.6-52.4-111.2-57.3-127.2c-10.7-41.5,2.4-81.7,29.8-91.1c39.4-13.4,39.4-48.2,0-88.4
		c-37-38.8-46.6-80.4-20.3-103.1c7.1-6.7,58.5-17.4,112.2-22.8l96.6-9.4l4.8-73.7c1.2-40.2,1.2-75-2.4-76.3
		c-3.6-2.7-128.9,9.4-280.4,26.8c-150.3,16.1-385.3,37.5-520.1,46.9l-245.8,16.1l-7.1,137.9c-3.6,75-3.6,191.5,0,258.5
		c6,107.1,4.8,121.9-13.2,121.9c-16.8,0-19.1-28.1-19.1-261.1V152.3H4459c-255.2,0-295.8-5.4-295.8-34.8c0-14.7,46.6-16.1,267.3-9.4
		l267.3,8l8.3-61.6c10.7-79,29.8-81.7,29.8-5.4v56.2l74-2.7c186-9.4,489-36.2,868.5-77.7c226.6-25.4,464-49.6,528.4-54.9
		c82.4-6.7,119.2-14.7,124-28.1c3.6-9.4,16.8-17.4,28.6-17.4c17.9,0,22.6-9.4,22.6-53.6c0-71,21.4-68.3,26.2,2.7
		c3.6,52.2,7.1,57.6,39.4,64.3c19.1,4,91.8,2.7,161-2.7c318.5-24.1,695.4-37.5,1220.3-46.9c504.6-6.7,569.1-6.7,569.1,12.1
		c0,29.5-103.8,37.5-542.8,37.5c-361.5,0-837.5,14.7-1138.1,34.8l-136,9.4l43,25.4c58.5,33.5,85.9,80.4,68,116.5
		c-7.1,16.1-16.8,28.1-22.6,28.1c-4.8,0-14.4,21.4-20.3,49.6c-10.7,48.2-17.9,54.9-78.7,83c-31,13.4-33.4,20.1-33.4,87
		c0,93.7-17.9,115.2-96.6,115.2c-69.2,0-153.9-42.9-206.4-105.8c-52.4-61.6-27.4-65.6,33.4-5.4c75.2,75,199.2,111.2,231.4,67
		c7.1-9.4,14.4-53.6,16.7-96.4l3.6-80.4l51.2-17.4c39.4-14.7,50.1-25.4,50.1-48.2c0-17.4,10.7-44.2,23.8-61.6
		c13.2-17.4,23.8-33.5,23.8-36.2c0-53.6-116.9-113.8-206.4-108.5l-62,4l-2.4,187.5c-2.4,230.3-1.2,218.3-15.6,194.2
		c-6-10.7-12-100.4-12-196.9c0-175.4,0-178.1-26.2-178.1c-53.6,0-514.3,52.2-520.1,58.9c-3.6,4-8.3,38.8-12,76.3l-6,68.3l46.6-4
		c26.2-2.7,48.9,1.3,52.4,9.4c3.6,6.7-16.8,13.4-44.2,16.1c-50.1,4-51.2,5.4-50.1,53.6c1.2,45.5,2.4,46.9,12,16.1
		c6-21.4,7.1,9.4,2.4,80.4c-3.6,62.9-10.7,116.5-15.6,120.5s-13.2,38.8-17.9,77.7c-16.7,140.6-27.4,46.9-16.7-143.3
		c6-107.1,9.5-195.5,7.1-196.9c-1.2-1.3-38.2,4-82.4,10.7c-96.6,16.1-112.2,41.5-63.2,107.1c35.8,48.2,34.6,77.7-4.8,100.4
		c-54.8,29.5-53.6,49.6,3.6,170.1c57.3,115.2,60.9,128.6,45.4,128.6C5676.1,754.9,5649.9,710.7,5622.4,658.5z M5806,370.6
		c-2.4-21.4-4.8-4-4.8,36.2s2.4,57.6,4.8,37.5C5808.5,422.8,5808.5,390.7,5806,370.6z"/>
	<path d="M1309.8,600.9c2.4-73.7,7.1-136.6,9.5-139.3c8.3-10.7,3.6,167.4-6,219.6C1306.2,716.1,1305,688,1309.8,600.9z"/>
	<path d="M792.1,659.9c-3.6-8-29.8-25.4-57.3-38.8c-31-16.1-40.6-25.4-25-25.4c19.1-1.3,12-13.4-33.4-58.9
		c-78.7-81.7-75.2-127.2,9.5-108.5c54.8,10.7,54.8,32.1,0,22.8c-56-10.7-56,24.1,0,67c47.8,36.2,145.5,156.7,126.5,156.7
		C806.4,674.6,796.8,667.9,792.1,659.9z"/>
	<path d="M12651.2,633.1c-595.3-62.9-875.6-112.5-1163.1-207.6c-162.2-52.2-330.4-127.2-331.7-146c0-16.1,1.2-16.1,136,40.2
		c328,137.9,658.5,206.2,1358.8,281.2c375.8,40.2,403.3,44.2,393.6,61.6c-4.8,6.7-14.4,10.7-21.4,10.7
		C13015.2,671.9,12848.2,654.5,12651.2,633.1z"/>
	<path d="M9352.8,590.2c0-17.4,190.8-237,206.4-237c23.8,0-1.2,44.2-82.4,144.6C9392.2,600.9,9352.8,630.4,9352.8,590.2z"/>
	<path d="M7911.7,568.8c-54.8-13.4-105-32.1-111-42.9c-17.9-32.1-12-62.9,16.7-88.4c23.8-20.1,51.2-24.1,192-24.1
		c158.6,0,165.8,1.3,187.2,32.1c47.8,65.6,23.8,109.8-69.2,123.2c-38.2,5.4-79.9,13.4-93,17.4
		C8021.5,588.9,7966.6,582.2,7911.7,568.8z M8162.2,508.5c12-14.7,21.4-32.1,21.4-38.8c0-24.1-63.2-33.5-180.2-28.1
		c-150.4,8-177.8,13.4-177.8,37.5c0,49.6,93,76.3,226.6,65.6C8125.2,539.3,8145.5,532.6,8162.2,508.5z"/>
	<path d="M131.2,406.7V313H93c-21.4,0-51.2-4-65.6-8c-50.1-16.1-27.4-30.8,41.8-28.1l68,2.7L144.3,72c4.8-113.8,8.3-233,9.5-263.8
		c1.2-42.9,6-57.6,20.3-57.6c15.6,0,17.9,12.1,12,77.7c-3.6,41.5-9.5,210.3-14.4,375c-6,238.4-10.7,297.3-23.8,297.3
		C134.8,500.5,131.2,477.7,131.2,406.7z"/>
	<path d="M12466.4,483.1c-45.4-25.4-90.6-111.2-143.2-266.5c-53.6-160.7-62-246.4-26.2-282.6c12-13.4,28.6-22.8,35.8-22.8
		c19.1,0,125.2,57.6,136,72.3c3.6,6.7,12-30.8,16.7-83c3.6-53.6,13.2-96.4,19.1-96.4c6,0,8.3,16.1,4.8,36.2
		c-3.6,21.4-12,84.4-20.3,142c-7.1,57.6-19.1,107.1-25,111.2c-6,5.4-8.3-10.7-3.6-37.5c7.1-44.2,6-44.2-62-75
		c-62-28.1-69.2-29.5-82.4-9.4c-16.7,25.4-14.4,41.5,39.4,221c23.8,81.7,58.5,167.4,82.4,204.9c39.4,60.3,44.2,62.9,97.8,62.9
		c81.2,0,89.4-9.4,84.7-101.8l-4.8-79l45.4-1.3c95.4-2.7,136-105.8,70.4-178.1c-32.2-36.2-152.7-92.4-165.8-76.3
		c-3.6,4-12,72.3-16.8,150c-10.7,146-15.6,167.4-33.4,144.6c-14.4-16.1,25-555.8,40.6-554.4c7.1,0,10.7,42.9,8.3,107.1l-2.4,104.5
		l38.2,9.4c60.9,14.7,147.9,68.3,175.4,108.5c57.3,81.7,3.6,218.3-84.7,219.6c-32.2,0-33.4,1.3-33.4,80.4c0,64.3-4.8,81.7-22.6,93.7
		C12602.4,505.8,12502.2,503.2,12466.4,483.1z"/>
	<path d="M849.3,355.9c-1.1-61.7-7.1-108.5-13.2-104.5c-4.8,4-7.1,22.8-4.8,40.2c9.5,50.9-54.8,117.9-106.2,112.5
		c-25-2.7-40.6-12.1-43-26.8c-3.6-18.7,3.6-21.4,37-14.7c52.4,9.4,83.6-33.5,72.8-97.8c-6-33.5-2.4-42.9,15.6-48.2
		c13.2-4,37-38.8,54.8-83c17.9-41.5,37-75,41.8-75c23.8,0,74-68.3,74-97.8c0-53.6-29.8-69.6-133.6-71l-93-1.3V80
		c0,160.7-2.4,192.8-17.9,192.8c-14.4,0-17.9-36.2-20.3-210.3L709.8-149l-32.2-12.1c-75.3-29.5-137.2,40.2-93,103.1l23.8,33.5
		l-40.6,34.8c-22.6,18.7-46.6,34.8-53.6,34.8c-21.4,0-14.4-32.1,9.5-49.6c17.9-12.1,20.3-26.8,15.6-81.7
		c-4.8-58.9-2.4-68.3,28.6-95.1c28.6-25.4,44.2-29.5,91.8-22.8l56,6.7V-283c0-68.3,3.6-87,17.9-87c14.4,0,17.9,20.1,17.9,105.8
		c0,123.2,4.8,128.6,102.6,113.8C952-163.8,1014-115.6,1014-23.2c0,30.8-12,50.9-52.4,88.4c-70.4,64.3-95.4,132.6-103.8,281.2
		l-6,120.5L849.3,355.9z"/>
	<path d="M13277.7,438.9c0-8,8.3-73.7,17.9-147.3c9.5-72.3,17.9-172.8,17.9-222.3c0-54.9,4.8-91.1,13.2-91.1
		c8.3,0,9.5,32.1,4.8,97.8c-13.2,179.5-32.2,337.5-43,357.6C13282.4,444.2,13277.7,446.9,13277.7,438.9z"/>
	<path d="M2328.6,137.6c6-259.8,16.7-353.6,35.8-310.7c2.4,5.4,2.4,144.6,0,309.4c-4.8,255.8-7.1,297.3-23.8,297.3
		C2325,433.5,2323.8,397.4,2328.6,137.6z"/>
	<path d="M1686.8,291.6c3.6-34.8,7.1-121.9,7.1-194.2c0-79,4.8-132.6,12-132.6c13.2,0,16.8,255.8,4.8,338.8
		C1698.7,377.3,1677.2,366.6,1686.8,291.6z"/>
	<path d="M512.9,326.4c0-8,38.2-13.4,89.4-13.4c51.2,0,89.4,5.4,89.4,13.4s-38.2,13.4-89.4,13.4
		C551.1,339.8,512.9,334.4,512.9,326.4z"/>
	<path d="M9763.2,71.9c0-143.3,2.4-202.2,3.6-129.9c2.4,71,2.4,188.8,0,261.1C9765.6,274.2,9763.2,215.2,9763.2,71.9z"/>
	<path d="M6422.8,159c0-65.6,1.2-95.1,3.6-64.3c2.4,30.8,2.4,85.7,0,120.5C6424.1,250.1,6422.8,225.9,6422.8,159z"/>
	<path d="M9235.9,62.6l3.6-117.9l46.6-4c26.2-2.7,59.7-1.3,75.2,2.7c26.2,8,27.4,14.7,27.4,121.9v113.8h-77.5h-78.7L9235.9,62.6z
		 M9352.8,65.2v-87h-47.8h-47.8v77.7c0,42.9,3.6,83,8.3,87c3.6,5.4,25,9.4,47.8,9.4h39.4L9352.8,65.2L9352.8,65.2z"/>
	<path d="M3224.5,65.2c0-44.2,2.4-60.3,4.8-36.2s2.4,60.3,0,80.4S3224.5,109.4,3224.5,65.2z"/>
	<path d="M3562.1,45.2c15.6-17.4,338.8-88.4,535.6-116.5c218.3-30.8,878-34.8,903.1-5.4c13.2,14.7,8.3,17.4-26.2,10.7
		c-22.6-5.4-130.1-12.1-238.6-17.4c-315-13.4-727.7,29.5-1042.7,109.8C3545.4,62.6,3546.6,62.6,3562.1,45.2z"/>
	<path d="M6815.4-173.1c6-20.1,233.8-41.5,670.4-64.3c453.3-22.8,1234.7-2.7,1234.7,32.1c0,8-41.8,10.7-115.8,4
		c-466.4-34.8-1406.5-14.7-1754.9,38.9C6822.5-158.4,6811.7-162.4,6815.4-173.1z"/>
</g>
</svg>
