<?xml version="1.0" encoding="utf-8"?>
<!-- Generator: Adobe Illustrator 23.0.1, SVG Export Plug-In . SVG Version: 6.00 Build 0)  -->
<svg version="1.1" id="Layer_1" xmlns="http://www.w3.org/2000/svg" xmlns:xlink="http://www.w3.org/1999/xlink" x="0px" y="0px"
	 viewBox="0 0 1147 113" style="enable-background:new 0 0 1147 113;" xml:space="preserve">
<style type="text/css">
	.st0{fill:#FFFFFF;}
</style>
<rect x="0.1" class="st0" width="1152.9" height="118"/>
<g transform="translate(0.000000,113.000000) scale(0.100000,-0.100000)">
	<path d="M1718,1090c-44-47-49-81-14-103c13-9,26-27,28-41c4-21-1-27-34-42c-89-40-116-124-58-183c32-32,108-64,178-76
		c23-4,42-10,42-14c0-3-11-23-25-43c-28-42-31-54-12-62c6-3-46-3-118,0c-114,5-132,8-147,26c-10,11-23,18-30,16c-8-3,11-29,46-66
		c59-62,68-92,26-92c-11,0-20-4-20-10c0-20,47-9,69,16l22,26l-38,35l-38,34l70-5c39-3,92-6,119-6h49l-6-35c-3-19-15-47-26-62
		c-25-31-28-58-5-49c9,3,45,6,81,6c47,0,64,3,61,13c-3,7-26,13-56,15l-52,3l16,30c10,19,14,51,13,87c-2,44,3,67,21,102
		c19,37,25,66,29,155c5,88,9,110,21,111c30,2,32,4,20,19c-17,21-36,19-61-6c-19-19-20-28-14-95c4-40,4-90,1-110l-7-36l-42,7
		c-92,16-180,65-198,111c-20,55,42,129,118,141c21,4,45,13,53,22c13,13,13,14-6,9c-27-7-54,8-54,31c0,10-11,23-25,29s-25,17-25,23
		c0,22,42,79,68,94c15,8,21,14,13,15C1763,1130,1740,1112,1718,1090z"/>
	<path d="M1962,1120c5-15,38-40,97-72c25-14,31-23,31-51c0-19,9-46,20-60c31-39,42-79,31-109c-11-29-49-68-66-68c-6,0-28,23-49,51
		c-26,34-42,47-49,40c-15-15,33-80,99-137c30-25,54-54,54-63c0-32-44-86-68-84c-13,2-22-3-22-11c0-9,26-23,65-36c41-14,65-27,65-36
		c0-21-91-108-129-124c-17-7-31-16-31-20c0-47,139,46,185,124c9,15,21,16,129,6c83-7,125-15,137-26c24-22,87-43,127-44h33l-2-98
		c-1-54,1-104,5-110c19-31,26-4,26,98c0,81,3,110,13,111c41,2,82,10,86,18c9,15,419-47,830-125c166-31,206-35,189-19
		c-24,24-993,182-1042,169c-22-5-25-1-40,69c-9,41-23,83-31,93c-11,14-10,4,4-37c10-30,22-74,26-97c6-40,5-42-18-42s-24,4-31,73
		c-10,110-39,240-55,245c-11,4-13-3-8-29c16-93,36-218,41-252c4-33,2-37-17-37c-35,0-95,19-111,36c-8,8-18,31-22,52
		c-9,50-30,72-69,72c-44,0-60,23-60,84c0,106,56,174,132,160c28-5,35-4,31,7c-7,21-92,24-122,3c-45-29-67-77-72-156
		c-7-98,6-121,69-129c51-5,67-19,67-57c0-21-3-23-42-18c-24,3-76,8-117,11c-51,5-83,13-99,26c-14,10-32,19-42,19c-29,0-30,11-5,45
		c38,48,34,97-9,132l-35,27l29,32c43,49,47,86,16,146c-14,27-26,59-26,70c0,33-19,57-63,79c-23,12-53,31-66,43
		C1965,1128,1959,1130,1962,1120z"/>
	<path d="M7755,1120c-3-5-16-10-28-10s-36-9-53-19c-22-13-36-16-48-9c-19,11-68,2-108-18c-52-27-72-98-43-153c17-34,70-60,87-43
		c8,8,6,13-8,18c-107,38-67,174,52,174c21,0,23-2,12-20c-21-33,0-34,37-2c19,17,52,36,74,42c33,9,51,25,51,46
		C7780,1134,7761,1130,7755,1120z"/>
	<path d="M8230,1105c-13-14-43-34-68-46c-37-19-56-21-123-16c-43,3-77,2-75-2c9-14-33-70-75-100c-23-17-57-33-75-37
		c-19-3-34-12-34-20c0-38,121,15,173,76c20,24,37,47,37,52c0,4,32,8,70,8c39,0,85,6,104,14c35,15,106,73,106,87
		C8270,1137,8254,1131,8230,1105z"/>
	<path d="M8000,1102c22-14,140-24,140-12c0,6-20,10-44,10s-59,3-77,6C7996,1110,7990,1108,8000,1102z"/>
	<path d="M1024,1058c-9-31-14-33-63-40c-58-7-95-33-106-75c-6-25-6-25-60,26c-30,28-57,51-62,51c-4-1-18-23-31-49
		c-12-27-41-70-63-95c-23-26-39-49-37-51c9-9,78,71,105,122l29,52l62-55c95-85,103-117,37-148l-35-17l25-27c26-28,40-62,33-83
		c-2-7-26-24-54-38c-42-23-49-31-52-60c-3-27,3-40,30-68c33-34,33-34,15-64c-20-36-22-69-4-69c21,0,36,15,36,35c0,11,3,34,6,50
		c5,24,0,38-24,69c-17,21-31,45-31,52c0,20,33,34,79,34c37,0,41,2,41,26c0,37,16,61,49,72c48,17,66,5,93-57c25-57,27-59,72-65
		c52-8,59-24,26-66c-26-33-25-44,5-88c28-41,32-89,11-130c-32-61-87-82-125-48c-9,9-23,16-29,16c-8,0-12,53-14,182
		c-2,134-6,182-15,186c-10,3-13-51-13-247c0-161,4-251,10-251s10,20,10,44c0,54,14,65,44,37c12-12,34-21,48-21c56,0,128,93,128,165
		c0,24,4,35,15,35c8,0,15,6,15,13c0,8,12,24,26,38c28,26,84,116,84,137c0,23-16,12-33-23c-16-33-19-35-67-35c-49,0-50,1-50,29v29
		l47-14c55-17,63-17,63-4c0,5-18,14-40,20l-40,11l58,68c67,80,96,127,83,135c-4,3-25-20-46-51s-59-78-85-104c-45-45-49-47-87-40
		c-54,10-58,14-84,76l-23,55h-45c-27,0-59-8-77-19l-31-19l-27,35c-16,19-26,35-24,37c1,1,15,10,31,19c34,22,38,74,7,102
		c-19,17-19,18,0,54c22,44,60,64,104,55c35-6,48,4,61,46c4,14,13,28,19,32c7,5,5,8-5,8S1029,1077,1024,1058z M1243,470
		c-23-22-46-40-51-40c-14,0-35,47-29,64c5,12,21,16,64,16l58-1L1243,470z"/>
	<path d="M1321,934c-58-108-80-159-73-166c16-16,47-1,34,15c-8,9,9,50,64,152c41,76,74,143,74,147C1420,1110,1394,1071,1321,934z"/>
	<path d="M1456,1082c-9-15,41-109,79-146c42-42,40-62-5-77c-16-6-30-16-30-22c0-21,57-111,89-141c24-23,28-33,20-47
		c-5-11-16-19-24-19s-15-4-15-10c0-19,39-10,54,12c23,32,20,53-10,72c-26,18-84,101-84,122c0,6,9,14,19,17c10,2,27,17,37,31l17,27
		l-46,47c-25,26-55,68-67,95C1468,1091,1465,1096,1456,1082z"/>
	<path d="M7909,1031c-48-92-54-95-178-101l-106-5l80-7c87-9,142,1,168,30c24,27,87,142,77,142C7945,1090,7927,1063,7909,1031z"/>
	<path d="M235,1024c-44-30-82-59-84-66c-6-18,24-3,103,52l72,50l61-21c81-27,108-56,104-113c-1-16-7-18-36-13c-40,7-47-9-10-23
		c14-5,25-14,25-20c0-7,8-9,20-5c26,8,70-19,70-43c0-28-54-113-106-167l-48-50l-5,33c-3,18-8,31-11,30c-3-2-23,16-44,39
		c-20,23-46,45-57,48c-17,6-19,13-13,55c5,40,3,51-15,69c-12,12-34,21-51,21c-19,0-30,5-30,14c0,8-22,28-49,46c-58,37-123,40-129,6
		c-3-15,0-17,14-11c33,14,61,8,103-21c43-31,51-44,26-44c-8,0-15-6-15-14c0-10,15-13,58-12l57,1l-1-30c-1-16-5-40-9-52
		c-6-18,1-28,44-59c82-58,101-124,50-170c-26-23-137-33-150-13c-6,9-7-53-3-156c4-93,9-172,11-175c2-2,3,63,2,145l-1,150h98h99
		l8-185c5-102,10-187,13-189c14-14,15,31,6,223l-10,215l67,69c84,85,130,170,112,208c-6,14-25,31-41,37c-28,10-30,15-30,60
		c0,39-5,53-26,72c-27,25-122,65-152,64C323,1079,279,1054,235,1024z M380,545c0-8-7-15-16-15c-14,0-14,3-4,15c7,8,14,15,16,15
		S380,553,380,545z"/>
	<path d="M1124,1070c22-4,45-16,53-26c7-10,13-13,13-7c0,21-37,43-71,42l-34-1L1124,1070z"/>
	<path d="M11190,1073c-26-10-50-36-50-55c0-24,8-23,36,8c31,32,70,29,97-8c18-24,19-32,8-68c-7-23-19-44-27-47c-16-6-19-33-3-33
		c6,0,22,9,36,20c37,29,71,26,84-7c14-34-10-139-41-183c-29-41-26-52,13-45c24,5,39,1,59-14c80-64,13-181-104-181c-31,0-50,5-54,13
		c-2,8-8,80-12,162c-5,112-10,149-21,153s-12-24-6-169c13-319,19-382,34-387c12-4,13,12,7,99l-6,104l44-3c61-5,109,13,145,53
		c60,68,46,158-28,191l-38,16l25,61c18,45,23,73,20,108c-6,61-21,79-65,79c-30,0-34,3-28,20c4,11,1,36-5,55
		C11294,1065,11239,1091,11190,1073z"/>
	<path d="M8920,1060c0-5,10-10,23-10c38,0,67-27,67-64c0-42,26-66,73-66c51,0,77-28,77-83c0-37-4-46-25-55c-14-6-25-16-25-22
		c0-13,6-13,39,4c65,34,107-41,57-101c-26-31-113-79-124-69c-3,3-11,57-18,118c-17,148-23,178-35,178c-7,0-8-14-4-38
		c3-21,12-90,20-153c13-109,13-115-6-131c-25-21-24-32,1-25c16,4,20,0,20-17c0-20-17-28-177-79c-203-65-352-102-502-126
		c-59-10-106-22-109-29c-12-37,314,30,625,127c89,28,164,51,167,51s6-16,6-35c0-50,18-44,22,8l3,42l259,87c351,117,572,169,819,193
		c50,5,67,10,67,22c0,11-8,14-37,9c-21-3-69-8-108-11c-187-17-446-82-807-204l-208-70v27c0,23,8,31,55,51c73,31,115,79,115,130
		c0,38-16,61-52,74c-14,5-18,18-18,52c0,59-32,95-84,95c-29,0-38,5-51,30c-8,16-15,36-15,44c0,22-49,56-81,56
		C8933,1070,8920,1066,8920,1060z"/>
	<path d="M3915,1031c-45-20-99-77-91-96c2-6-8-19-24-28c-33-20-60-73-60-119c0-36,31-95,55-105c28-10,28,5,1,37c-39,47-36,102,8,146
		c19,19,41,34,50,34c18,0,22,26,4,32c-23,8,46,67,93,79c57,15,79,8,79-26c0-42,25-79,72-104c63-35,88-61,88-92c0-22-7-30-40-43
		c-22-9-40-20-40-26c0-14,17-12,90,11c97,30,160,10,160-53s-107-139-245-176c-37-9-65-22-65-29c0-17,20-16,88,3
		c92,26,191,83,223,127c33,45,38,99,14,134c-20,28-78,47-121,39c-30-6-34-4-34,14c0,40-30,80-78,104c-60,30-71,44-79,93
		c-3,21-10,44-16,51C4033,1056,3961,1052,3915,1031z"/>
	<path d="M2525,1007c-22-22-35-45-35-61c0-35,13-33,31,6c8,18,26,39,42,48c41,22,77-1,97-62c20-62,35-76,106-94c80-21,91-28,104-69
		c9-28,8-40-6-71c-18-38-76-73-122-74c-15,0-22-5-19-12c6-19,74-12,113,13c44,27,64,66,64,122c0,35-6,51-28,75c-28,30-39,35-114,47
		c-29,4-42,13-53,35c-8,16-15,36-15,44c0,29-53,76-92,83C2565,1042,2557,1039,2525,1007z"/>
	<path d="M1190,1005c0-8,10-19,23-24c38-15,70-56,62-83c-5-18-4-20,4-8c26,37,0,100-42,100c-8,0-23,7-31,16
		C1191,1020,1190,1020,1190,1005z"/>
	<path d="M6760,986c0-10-9-16-24-16c-54,0-95-65-67-109c11-16,111-41,172-41c43,0,49,3,88,50c23,27,39,55,36,60c-11,18-58,37-120,50
		c-33,7-65,15-72,17C6766,1000,6760,995,6760,986z M6905,944c24-10,17-43-14-75c-33-32-39-33-131-16c-62,12-65,13-68,43
		c-4,38,11,51,63,57C6798,958,6881,953,6905,944z"/>
	<path d="M8883,918c-74-113-76-130-22-168c36-27,38-65,6-135c-50-106-44-145,23-145c43,0,70,8,70,21c0,4-22,5-48,2c-66-7-71,9-32,97
		s39,126,0,175c-16,21-30,44-30,51s21,43,46,81c25,37,48,71,50,76c3,4-1,7-8,7S8906,952,8883,918z"/>
	<path d="M6105,951c-37-9-74-28-100-52c-17-15-26-16-65-7c-58,13-117-2-159-41c-61-57-50-103,35-140c26-12,45-28,49-42
		c21-68,70-74,266-33c78,16,141,24,169,20c167-19,163-19,199,6c21,14,39,38,48,62c7,22,21,48,29,58c15,16,15,21-10,71
		c-18,37-37,60-60,72c-33,18-36,18-93,1l-59-18l-83,26C6187,961,6158,963,6105,951z M6258,914c52-17,88-24,112-20
		c120,20,120,20,145-4c13-12,29-35,35-50c11-25,8-37-18-93c-39-82-68-97-151-78c-75,18-133,15-276-14c-175-36-197-34-220,21
		c-11,26-26,39-62,55c-72,31-76,43-33,92c41,47,101,64,157,44c40-14,42-13,66,11s114,61,150,62C6173,940,6216,928,6258,914z"/>
	<path d="M6470,800c-18-44-40-52-170-61c-82-5-136-15-189-33c-117-41-132-37-223,52c-32,31-58,52-58,46c0-13,99-108,127-123
		c35-18,94-13,174,15c53,18,102,27,174,30c114,6,158,22,176,66c6,16,9,31,7,34C6485,828,6477,817,6470,800z"/>
	<path d="M4790,929c-19-6-39-15-44-20c-18-17,1-19,43-4c69,24,120-12,106-75c-8-36,22-70,63-70c44,0,116-41,126-72
		c16-45-3-77-74-128c-36-25-66-54-68-63c-3-13,11-7,49,20c95,68,119,96,119,140c0,21-7,49-16,61c-18,26-84,62-114,62
		c-43,0-60,18-60,64C4920,919,4870,952,4790,929z"/>
	<path d="M11098,901c-75-48-120-150-89-201c7-10,0-25-25-53c-41-45-54-75-54-125c0-76,66-135,131-116c41,12,33,30-12,26
		c-31-3-41,2-64,30c-23,27-26,39-22,75c6,52,43,105,97,135c37,22,50,48,19,39c-32-8-43-5-47,12c-12,59,34,129,110,168
		c21,11,38,24,38,29C11180,939,11144,930,11098,901z"/>
	<path d="M7903,865c-18-8-66-42-105-77l-73-62l-3,43c-4,55-20,71-70,71s-54-9-51-124l2-89l-54-45c-67-55-84-96-24-56l25,16V356
		c0-117,4-186,10-186s10,71,10,193v193l33,31c17,16,84,73,148,125l115,96l127-111l127-112V367c0-171,3-218,13-215c9,4,13,55,15,201
		l2,197h40h40V380c0-107,4-170,10-170s10,63,10,169v170l28,3c15,2,27,9,27,15c0,7-72,80-160,163C7975,889,7968,893,7903,865z
		 M8114,718l143-133l-44-3c-45-3-61,8-312,234c-12,11-11,15,10,23c13,5,32,10,42,10C7963,850,8035,790,8114,718z M7690,762
		c0-52-3-62-30-87l-30-29v87v87h30C7690,820,7690,820,7690,762z"/>
	<path d="M7950,826c0-4,196-176,234-206c11-8,17-10,15-4c-4,12-234,214-243,214C7953,830,7950,828,7950,826z"/>
	<path d="M4713,778c-22-40-44-83-48-95c-9-31,2-61,25-68c33-10,33-36,0-66c-31-29-39-60-17-77c6-5,49-13,94-17l81-7l4-55
		c1-30,1-56-2-57c-3-2-108,7-235,20c-126,12-323,28-436,35l-206,12l-6,103c-3,56-3,143,0,193c5,80,4,91-11,91c-14,0-16-21-16-195
		V400h-202c-214,0-248-4-248-26c0-11,39-12,224-7l224,6l7-46c9-59,25-61,25-4v42l62-2c156-7,410-27,728-58c190-19,389-37,443-41
		c69-5,100-11,104-21c3-7,14-13,24-13c15,0,19-7,19-40c0-53,18-51,22,2c3,39,6,43,33,48c16,3,77,2,135-2c267-18,583-28,1023-35
		c423-5,477-5,477,9c0,22-87,28-455,28c-303,0-702,11-954,26l-114,7l36,19c49,25,72,60,57,87c-6,12-14,21-19,21c-4,0-12,16-17,37
		c-9,36-15,41-66,62c-26,10-28,15-28,65c0,70-15,86-81,86c-58,0-129-32-173-79c-44-46-23-49,28-4c63,56,167,83,194,50
		c6-7,12-40,14-72l3-60l43-13c33-11,42-19,42-36c0-13,9-33,20-46s20-25,20-27c0-40-98-85-173-81l-52,3l-2,140c-2,172-1,163-13,145
		c-5-8-10-75-10-147c0-131,0-133-22-133c-45,0-431,39-436,44c-3,3-7,29-10,57l-5,51l39-3c22-2,41,1,44,7c3,5-14,10-37,12
		c-42,3-43,4-42,40c1,34,2,35,10,12c5-16,6,7,2,60c-3,47-9,87-13,90s-11,29-15,58c-14,105-23,35-14-107c5-80,8-146,6-147
		c-1-1-32,3-69,8c-81,12-94,31-53,80c30,36,29,58-4,75c-46,22-45,37,3,127c48,86,51,96,38,96C4758,850,4736,817,4713,778z M4867,563
		c-2-16-4-3-4,27s2,43,4,28C4869,602,4869,578,4867,563z"/>
	<path d="M1098,735c2-55,6-102,8-104c7-8,3,125-5,164C1095,821,1094,800,1098,735z"/>
	<path d="M664,779c-3-6-25-19-48-29c-26-12-34-19-21-19c16-1,10-10-28-44c-66-61-63-95,8-81c46,8,46,24,0,17c-47-8-47,18,0,50
		c40,27,122,117,106,117C676,790,668,785,664,779z"/>
	<path d="M10605,759c-499-47-734-84-975-155c-136-39-277-95-278-109c0-12,1-12,114,30c275,103,552,154,1139,210
		c315,30,338,33,330,46c-4,5-12,8-18,8C10910,788,10770,775,10605,759z"/>
	<path d="M7840,727c0-13,160-177,173-177c20,0-1,33-69,108C7873,735,7840,757,7840,727z"/>
	<path d="M6632,711c-46-10-88-24-93-32c-15-24-10-47,14-66c20-15,43-18,161-18c133,0,139,1,157,24c40,49,20,82-58,92
		c-32,4-67,10-78,13C6724,726,6678,721,6632,711z M6842,666c10-11,18-24,18-29c0-18-53-25-151-21c-126,6-149,10-149,28
		c0,37,78,57,190,49C6811,689,6828,684,6842,666z"/>
	<path d="M110,590v-70H78c-18,0-43-3-55-6c-42-12-23-23,35-21l57,2l6-155c4-85,7-174,8-197c1-32,5-43,17-43c13,0,15,9,10,58
		c-3,31-8,157-12,280c-5,178-9,222-20,222S110,643,110,590z"/>
	<path d="M10450,647c-38-19-76-83-120-199c-45-120-52-184-22-211c10-10,24-17,30-17c16,0,105,43,114,54c3,5,10-23,14-62
		c3-40,11-72,16-72s7,12,4,27c-3,16-10,63-17,106c-6,43-16,80-21,83c-5,4-7-8-3-28c6-33,5-33-52-56c-52-21-58-22-69-7
		c-14,19-12,31,33,165c20,61,49,125,69,153c33,45,37,47,82,47c68,0,75-7,71-76l-4-59l38-1c80-2,114-79,59-133c-27-27-128-69-139-57
		c-3,3-10,54-14,112c-9,109-13,125-28,108c-12-12,21-415,34-414c6,0,9,32,7,80l-2,78l32,7c51,11,124,51,147,81c48,61,3,163-71,164
		c-27,0-28,1-28,60c0,48-4,61-19,70C10564,664,10480,662,10450,647z"/>
	<path d="M712,552c-1-46-6-81-11-78c-4,3-6,17-4,30c8,38-46,88-89,84c-21-2-34-9-36-20c-3-14,3-16,31-11c44,7,70-25,61-73
		c-5-25-2-32,13-36c11-3,31-29,46-62c15-31,31-56,35-56c20,0,62-51,62-73c0-40-25-52-112-53l-78-1v143c0,120-2,144-15,144
		c-12,0-15-27-17-157l-3-158l-27-9c-63-22-115,30-78,77l20,25l-34,26c-19,14-39,26-45,26c-18,0-12-24,8-37c15-9,17-20,13-61
		c-4-44-2-51,24-71c24-19,37-22,77-17l47,5V75c0-51,3-65,15-65s15,15,15,79c0,92,4,96,86,85c82-10,134,26,134,95c0,23-10,38-44,66
		c-59,48-80,99-87,210l-5,90L712,552z"/>
	<path d="M11130,614c0-6,7-55,15-110c8-54,15-129,15-166c0-41,4-68,11-68s8,24,4,73c-11,134-27,252-36,267
		C11134,618,11130,620,11130,614z"/>
	<path d="M1952,389c5-194,14-264,30-232c2,4,2,108,0,231c-4,191-6,222-20,222C1949,610,1948,583,1952,389z"/>
	<path d="M1414,504c3-26,6-91,6-145c0-59,4-99,10-99c11,0,14,191,4,253C1424,568,1406,560,1414,504z"/>
	<path d="M430,530c0-6,32-10,75-10s75,4,75,10s-32,10-75,10S430,536,430,530z"/>
	<path d="M8184,340c0-107,2-151,3-97c2,53,2,141,0,195C8186,491,8184,447,8184,340z"/>
	<path d="M5384,405c0-49,1-71,3-48s2,64,0,90S5384,455,5384,405z"/>
	<path d="M7742,333l3-88l39-3c22-2,50-1,63,2c22,6,23,11,23,91v85h-65h-66L7742,333z M7840,335v-65h-40h-40v58c0,32,3,62,7,65
		c3,4,21,7,40,7h33V335z"/>
	<path d="M2703,335c0-33,2-45,4-27s2,45,0,60S2703,368,2703,335z"/>
	<path d="M2986,320c13-13,284-66,449-87c183-23,736-26,757-4c11,11,7,13-22,8c-19-4-109-9-200-13c-264-10-610,22-874,82
		C2972,333,2973,333,2986,320z"/>
	<path d="M5713,157c5-15,196-31,562-48c380-17,1035-2,1035,24c0,6-35,8-97,3c-391-26-1179-11-1471,29C5719,168,5710,165,5713,157z"
		/>
</g>
</svg>
