<?xml version="1.0" encoding="utf-8"?>
<!-- Generator: Adobe Illustrator 23.0.1, SVG Export Plug-In . SVG Version: 6.00 Build 0)  -->
<svg version="1.1" id="Layer_1" xmlns="http://www.w3.org/2000/svg" xmlns:xlink="http://www.w3.org/1999/xlink" x="0px" y="0px"
	 viewBox="0 0 455 120" style="enable-background:new 0 0 455 120;" xml:space="preserve">
<style type="text/css">
	.st0{fill:#FFFFFF;}
	.st1{fill:#583F99;}
</style>
<rect class="st0" width="457.3" height="120"/>
<g transform="translate(0.000000,120.000000) scale(0.100000,-0.100000)">
	<path d="M1138,1193c629-2,1655-2,2280,0c625,1,111,2-1143,2S509,1194,1138,1193z"/>
	<path class="st1" d="M4012,913c-5-10-12-31-16-47c-6-26-8-27-25-12c-23,21-60,21-68,0c-4-12,5-26,28-46l34-28l-28-24
		c-31-25-34-58-6-64c9-2,29,8,45,21l29,25l28-24c51-43,96-24,60,24l-20,27l36,20c42,24,56,65,21,65c-11,0-33-6-48-14l-28-14l1,51
		c0,40-4,52-17,55C4029,930,4017,923,4012,913z"/>
	<path class="st1" d="M4312,913c-5-10-12-31-16-47c-6-26-8-27-25-12c-23,21-60,21-68,0c-4-12,5-26,28-46l34-28l-28-24
		c-31-25-34-58-6-64c9-2,29,8,45,21l29,25l28-24c51-43,96-24,60,24l-20,27l36,20c42,24,56,65,21,65c-11,0-33-6-48-14l-28-14l1,51
		c0,40-4,52-17,55C4329,930,4317,923,4312,913z"/>
	<path d="M2178,764l-48-15v-79c0-43-5-82-10-85c-6-4-7-12-3-18c4-7,10-39,13-72c4-53,8-60,28-63c21-3,22,0,22,52v56h51
		c112,0,172,91,119,178c-20,33-72,63-107,61C2233,779,2204,772,2178,764z M2295,705c31-30,32-56,2-91c-19-21-33-27-68-28l-44-1
		l-3,60c-3,47,0,62,14,72C2224,738,2268,733,2295,705z"/>
	<path d="M261,756c-8-9-11-59-9-162c3-145,4-149,25-152c20-3,22,1,25,60l3,63l67,3l67,3l3-63c3-57,5-63,26-66s22,0,22,58
		c0,45,4,62,15,66c8,4,15,15,15,25c0,11-7,22-15,25c-11,5-15,23-15,74c0,71-6,85-34,74c-13-5-16-21-16-75v-69h-70h-69l-3,72
		C295,764,284,784,261,756z"/>
	<path d="M3547,763c-4-3-7-26-7-50c0-39-2-43-25-43c-18,0-25-5-25-20s7-20,25-20c24,0,24-2,27-92c3-85,5-93,23-93s20,8,25,90l5,90
		l33,3c45,5,41,36-6,40c-31,3-32,4-32,53c0,41-3,49-18,49C3562,770,3550,767,3547,763z"/>
	<path d="M1651,734c-24-31-25-38-7-79c12-27,11-32-10-55c-53-58-31-138,44-161c35-10,45-9,84,11c43,21,46,21,77,5c18-9,39-14,47-11
		c24,9,15,37-16,47c-16,6-30,14-30,18c0,3,11,23,25,43c26,38,31,63,16,72c-17,11-36-4-60-46l-24-42l-28,32l-29,32l25,36
		c28,41,30,56,14,87c-16,30-28,37-71,37C1680,760,1666,754,1651,734z"/>
	<path d="M3734,678c-22-10-44-47-44-72c0-19,41-54,72-61c33-8,52-30,44-50c-8-21-50-19-71,5c-22,24-43,26-52,5c-16-43,84-87,136-61
		c31,16,41,34,41,70c0,27-23,50-72,70c-20,9-39,20-42,25c-10,16,20,31,59,28c51-3,57,19,11,38C3775,692,3763,693,3734,678z"/>
	<path d="M805,672c-3-3-5-57-5-119c0-113,0-114,23-111c20,3,22,9,27,87c4,65,9,86,23,95c12,8,22,8,35,0c13-9,18-30,22-95
		c5-77,7-84,27-87c21-3,22,0,25,84c2,70,6,89,21,98c12,8,22,8,35,0c14-9,18-28,20-98c3-84,4-87,25-84s22,9,25,94l3,92l-31,26
		c-36,30-66,33-98,11c-19-14-24-14-44-1C917,678,817,684,805,672z"/>
	<path d="M2480,670c-8-5-29-7-46-4c-23,4-33,1-37-10c-3-8-2-18,3-21c6-4,10-46,10-94c0-65,4-92,15-101c26-21,35,0,35,80
		c0,76,1,79,31,101c23,16,33,19,42,10c14-14,44-14,52,0C2605,663,2519,695,2480,670z"/>
	<path d="M2887,674c-4-4-7-60-7-124c0-87-4-120-14-129s-16-8-26,4c-16,19-39,19-47,0c-16-42,76-75,111-39c24,23,27,48,24,174
		c-2,94-6,115-18,118C2901,679,2891,678,2887,674z"/>
	<path d="M3312,664c-33-23-52-67-52-119c0-62,40-105,97-105c42,0,83,23,83,46c0,22-23,26-55,10c-50-26-83,11-70,80c3,20,16,41,30,50
		c21,14,26,14,55-1c32-17,50-13,50,10C3450,674,3355,695,3312,664z"/>
	<path d="M597,650c-14-11-33-41-43-65c-40-107,41-189,137-139c41,21,73,93,64,141C741,663,656,696,597,650z"/>
	<path d="M1226,655c-37-19-53-41-61-82c-7-39,15-95,46-117c31-21,95-20,138,2c68,34,40,68-30,37c-31-15-44-16-64-7
		c-14,6-25,15-25,19c0,5,28,17,63,28c45,15,66,27,77,47c13,25,13,29-6,55c-17,22-30,29-65,31C1274,669,1243,664,1226,655z"/>
	<path d="M2646,649c-54-42-71-112-41-169c33-64,99-68,156-11c34,34,39,44,39,85c0,51-20,100-45,110C2722,676,2672,670,2646,649z"/>
	<path d="M3056,655c-37-19-53-41-61-82c-7-39,15-95,46-117c31-21,95-20,138,2c68,34,40,68-30,37c-31-15-44-16-64-7
		c-14,6-25,15-25,19c0,5,28,17,63,28c45,15,66,27,77,47c13,25,13,29-6,55c-17,22-30,29-65,31C3104,669,3073,664,3056,655z"/>
</g>
<circle cx="289.5" cy="44" r="3.4"/>
<ellipse class="st0" cx="269.5" cy="65" rx="3.5" ry="4.5"/>
<ellipse class="st0" cx="168.7" cy="67.6" rx="3.5" ry="4.5"/>
<ellipse class="st0" cx="171" cy="50.8" rx="3.5" ry="3.4"/>
<ellipse class="st0" cx="310.6" cy="59.8" rx="3.5" ry="2.4"/>
<ellipse class="st0" cx="127.6" cy="60.6" rx="3.5" ry="2.4"/>
<ellipse class="st0" cx="65" cy="64.4" rx="3.5" ry="4.5"/>
</svg>
