<?xml version="1.0" encoding="utf-8"?>
<!-- Generator: Adobe Illustrator 23.0.1, SVG Export Plug-In . SVG Version: 6.00 Build 0)  -->
<svg version="1.1" id="Layer_1" xmlns="http://www.w3.org/2000/svg" xmlns:xlink="http://www.w3.org/1999/xlink" x="0px" y="0px"
	 viewBox="0 0 456 120" style="enable-background:new 0 0 456 120;" xml:space="preserve">
<style type="text/css">
	.st0{fill:#FFFFFF;}
	.st1{fill:#583F99;}
</style>
<rect x="-1" y="-1.6" class="st0" width="457" height="121.6"/>
<g transform="translate(0.000000,120.000000) scale(0.100000,-0.100000)">
	<path class="st1" d="M3260,861c-5-11-10-29-10-40c0-25-4-26-40-5c-30,19-60,13-60-10c0-8,16-28,35-43l34-27l-31-26
		c-21-18-29-32-25-43c9-23,33-21,68,4l29,21l31-26c34-29,38-30,59-16c13,8,12,13-4,42c-11,17-15,33-10,35c22,8,74,44,74,52
		c0,5-7,14-15,21c-13,11-22,10-51-3c-45-22-44-22-33,15c5,18,6,41,3,50C3307,886,3273,885,3260,861z"/>
	<path class="st1" d="M3560,861c-5-11-10-29-10-40c0-25-4-26-40-5c-30,19-60,13-60-10c0-8,16-28,35-43l34-27l-31-26
		c-21-18-29-32-25-43c9-23,33-21,68,4l29,21l31-26c34-29,38-30,59-16c13,8,12,13-4,42c-11,17-15,33-10,35c22,8,74,44,74,52
		c0,5-7,14-15,21c-13,11-22,10-51-3c-45-22-44-22-33,15c5,18,6,41,3,50C3607,886,3573,885,3560,861z"/>
	<path d="M2332,743c-20-8-42-59-42-96c0-22-6-37-15-41c-19-7-19-33,0-43c10-6,15-31,17-88c3-72,5-80,23-80s20,8,23,82l3,82l37,3
		c29,2,37,7,37,23s-8,21-37,23c-35,3-38,5-38,35c0,50,11,60,59,52c37-6,41-5,41,14C2440,740,2375,761,2332,743z"/>
	<path d="M1353,714c-33-14-33-14-33-87c0-42-5-78-12-85c-8-8-8-15,0-24c6-8,12-41,14-73c3-52,6-60,23-60s20,8,23,53l3,52h42
		c58,0,107,27,130,73c17,33,18,44,8,77c-17,57-61,90-119,89C1406,729,1370,722,1353,714z M1464,679c49-23,53-104,7-128
		c-11-6-38-11-60-11h-41v64c0,61,1,65,28,74C1434,692,1435,692,1464,679z"/>
	<path d="M2107,723c-4-3-7-26-7-50c0-35-3-43-19-43c-22,0-45-25-36-40c3-5,17-10,31-10c24,0,24-1,24-89c0-91,9-113,35-91
		c11,9,15,35,15,96c0,81,1,84,23,84c13,0,28,5,35,12c16,16-3,38-34,38c-21,0-24,5-24,34C2150,720,2130,747,2107,723z"/>
	<path d="M2697,723c-4-3-7-77-7-164c0-150,1-159,21-169c11-7,23-9,27-6c7,8,3,313-5,332C2728,731,2708,735,2697,723z"/>
	<path d="M1905,626c-12-9-32-12-52-9c-34,6-45-11-23-33c5-5,10-50,12-99c3-82,5-90,23-90s20,8,23,83s5,83,28,98c20,14,30,15,50,5
		c45-20,63,15,22,43C1960,644,1930,644,1905,626z"/>
	<path d="M1636,610c-39-25-65-75-66-123c0-31,7-46,34-73c38-38,51-40,101-20c47,20,75,69,75,129c0,40-5,54-29,78
		C1716,635,1678,639,1636,610z"/>
	<path d="M2503,610c-110-67-71-251,48-225c32,7,86,64,95,100c16,66-30,145-85,145C2547,630,2521,621,2503,610z"/>
	<path d="M2960,592c-49-49-61-101-34-151c22-41,65-65,99-57c98,25,135,166,58,226C3043,642,3004,636,2960,592z"/>
	<path d="M2815.5,609.6c-3.9-2-6.9-51.6-6.9-109.9c0-100.5,1-106.6,20.7-113.3c10.8-4.7,22.6-6,26.6-4c6.9,5.4,3,209.8-4.9,222.5
		C2846,615,2826.4,617.6,2815.5,609.6z"/>
	<circle cx="2834" cy="688.6" r="3.4"/>
</g>
<ellipse class="st0" cx="167.5" cy="69.5" rx="3.5" ry="4.5"/>
<ellipse class="st0" cx="254.4" cy="69.5" rx="3.5" ry="4.5"/>
<ellipse class="st0" cx="301.8" cy="69.5" rx="3.5" ry="4.5"/>
<circle cx="283.4" cy="51.3" r="2.5"/>
</svg>
