<?xml version="1.0" encoding="utf-8"?>
<!-- Generator: Adobe Illustrator 23.0.1, SVG Export Plug-In . SVG Version: 6.00 Build 0)  -->
<svg version="1.1" id="Layer_1" xmlns="http://www.w3.org/2000/svg" xmlns:xlink="http://www.w3.org/1999/xlink" x="0px" y="0px"
	 viewBox="0 0 455 120" style="enable-background:new 0 0 455 120;" xml:space="preserve">
<style type="text/css">
	.st0{fill:#FFFFFF;}
	.st1{fill:#583F99;}
</style>
<rect y="-2.9" class="st0" width="455" height="122.9"/>
<g transform="translate(0.000000,120.000000) scale(0.100000,-0.100000)">
	<path class="st1" d="M3983,873c-7-3-17-22-23-44l-11-40l-28,17c-31,18-61,13-61-10c0-8,14-26,31-41l32-26l-28-29c-30-31-28-60,3-60
		c10,0,29,11,42,25l23,24l34-29c38-34,46-36,63-15c10,12,8,20-8,42l-20,28l36,20c66,37,45,84-22,52l-33-15l5,47
		C4022,867,4012,883,3983,873z"/>
	<path class="st1" d="M4272,868c-5-7-13-28-17-45c-7-36-16-41-35-18c-16,20-49,19-57-1c-3-9,6-28,26-48l31-32l-31-27
		c-26-22-29-30-19-42c17-21,35-19,67,9l28,24l32-29c49-43,86-15,48,35c-14,18-12,21,22,41c67,37,46,85-23,52l-34-16l7,45
		c4,34,2,48-8,55C4290,883,4284,882,4272,868z"/>
	<path d="M169,655c-29-64-79-224-79-252c0-9,8-13,22-11c17,2,26,15,37,51l15,47h67c66,0,67,0,78-31c6-18,11-40,11-49
		c0-19,26-34,42-24c6,4,8,26,4,57c-5,35-3,52,5,58c17,10,3,39-18,40c-12,0-29,22-50,67c-35,74-66,112-89,112
		C205,720,187,694,169,655z"/>
	<path d="M417,713c-4-3-7-75-7-159V401l55-6c67-9,100-1,131,30c20,20,24,34,24,80c0,47-4,60-26,81c-20,21-32,25-62,22
		c-20-3-45-8-54-12c-16-7-18-1-18,58c0,57-2,66-18,66C432,720,420,717,417,713z"/>
	<path d="M1210,671c0-47-2-51-24-51c-14,0-28-5-31-10c-9-15,14-40,36-40c17,0,19-9,19-91c0-88,1-90,23-87c21,3,22,8,25,91
		s4,87,25,87c13,0,28,5,34,11c18,18,3,39-28,39c-26,0-28,3-31,48c-3,40-6,47-25,50C1212,721,1210,718,1210,671z"/>
	<path d="M2400,690c-23-23-26-57-8-95c10-22,8-29-15-53c-46-48-31-120,30-151c32-16,64-14,105,9c36,19,40,19,72,4c36-18,71-13,64,9
		c-3,6-19,19-36,27l-31,15l29,44c34,50,35,54,17,69c-16,14-27,6-57-38c-13-19-25-37-28-40c-2-3-16,10-31,29l-28,34l24,25
		c49,53,18,132-52,132C2433,710,2412,702,2400,690z"/>
	<path d="M2880,687c-32-16-37-43-11-50c19-5,21-14,23-128l3-124l55,3c72,4,134,33,160,74c17,26,20,45,18,95c-4,67-25,100-80,129
		C3015,703,2914,704,2880,687z M3053,620c52-59,25-159-50-179c-65-18-63-22-63,105v117l43-6C3013,653,3033,643,3053,620z"/>
	<path d="M1546,613c-3-8-6-59-6-113c0-73,4-101,15-110c26-21,35,0,35,79c0,63,4,81,18,94c48,43,72,10,72-98c0-73,1-76,23-73
		c20,3,22,9,25,85c3,87,15,110,52,98c18-6,20-14,20-89c0-63,4-87,15-96c28-23,36,3,33,106l-3,99l-39,19c-35,17-41,17-70,3
		c-23-11-37-12-51-5C1655,630,1552,630,1546,613z"/>
	<path d="M3466,605c-83-77-50-215,51-215c41,0,83,23,83,45c0,25-21,28-57,9c-35-19-35-19-54,5c-23,28-24,62-4,100c18,37,42,45,71,26
		c32-21,54-19,54,5c0,23-47,50-88,50C3505,630,3482,620,3466,605z"/>
	<path d="M3670,610c-40-40-15-104,45-116c39-7,60-27,51-49c-7-19-46-19-72,0c-27,20-56,19-52-2c5-25,66-63,100-63c36,0,78,40,78,73
		c0,35-28,64-75,80c-42,15-57,40-30,50c8,4,27,2,42-4c20-7,30-6,40,4c12,12,12,16-2,31C3771,638,3695,635,3670,610z"/>
	<path d="M711,591c-57-54-68-129-25-180c21-26,33-31,67-31c70,1,117,53,117,132C870,611,780,656,711,591z"/>
	<path d="M927,614c-4-4-7-43-7-86c0-70,3-82,24-103c33-33,73-42,107-23c24,14,28,14,42,1c22-23,51-9,42,20c-20,66-24,96-19,138
		c5,38,3,47-12,53c-28,11-39-10-41-82c-2-69-15-92-54-92c-27,0-34,18-39,100c-4,57-9,76-20,78C941,619,931,618,927,614z"/>
	<path d="M1972,603c-84-41-81-173,5-209c51-22,153,6,153,42c0,23-25,27-59,10c-38-20-75-20-91-1c-14,17-13,17,55,34
		c77,20,108,78,65,121C2075,625,2018,626,1972,603z"/>
	<path d="M3226,599c-89-70-67-219,34-219c67,0,120,62,120,140C3380,603,3290,649,3226,599z"/>
</g>
<ellipse class="st0" cx="76.5" cy="70.5" rx="3.5" ry="4.5"/>
<ellipse class="st0" cx="51.5" cy="70.5" rx="3.5" ry="4.5"/>
<ellipse class="st0" cx="21.6" cy="61.7" rx="3.5" ry="4.5"/>
<circle class="st0" cx="244.1" cy="73" r="3.5"/>
<ellipse class="st0" cx="245.3" cy="56.8" rx="2.4" ry="3.2"/>
<ellipse class="st0" cx="327.5" cy="70" rx="3.5" ry="4.5"/>
<ellipse class="st0" cx="202" cy="65.8" rx="3.5" ry="2.4"/>
</svg>
