<?xml version="1.0" encoding="utf-8"?>
<!-- Generator: Adobe Illustrator 23.0.1, SVG Export Plug-In . SVG Version: 6.00 Build 0)  -->
<svg version="1.1" id="Layer_1" xmlns="http://www.w3.org/2000/svg" xmlns:xlink="http://www.w3.org/1999/xlink" x="0px" y="0px"
	 viewBox="0 0 455 120" style="enable-background:new 0 0 455 120;" xml:space="preserve">
<style type="text/css">
	.st0{fill:#FFFFFF;}
</style>
<rect x="-0.5" y="-2.6" class="st0" width="457.3" height="122.6"/>
<g transform="translate(0.000000,120.000000) scale(0.100000,-0.100000)">
	<path d="M2365,766l-40-12l-3-69c-1-39-8-80-14-93c-9-17-9-25,0-34c7-7,12-38,12-69c0-43,4-58,16-63c26-10,34,3,34,53v48l54,6
		c89,9,136,55,136,133c0,29-8,44-39,75C2478,784,2443,790,2365,766z M2481,712c27-23,30-73,5-101c-19-21-74-35-100-25
		c-12,5-16,20-16,65c0,52,3,61,23,69C2428,734,2456,731,2481,712z"/>
	<path d="M3070,766c-27-33,18-72,48-42c13,13,14,20,6,34C3109,781,3086,784,3070,766z"/>
	<path d="M3743,773c-8-3-13-24-13-54c0-46-2-49-26-49c-21,0-25-4-22-22c2-15,11-24,25-26c21-3,22-9,25-90c3-82,4-87,26-90
		c21-3,22-1,22,87c0,83,2,91,19,91c32,0,51,11,51,30c0,14-9,20-32,22c-32,3-33,5-38,52C3775,773,3767,783,3743,773z"/>
	<path d="M447,763c-4-3-7-77-7-164c0-134,2-158,16-163c27-10,34,3,34,65v59h70h70v-59c0-45,4-60,16-65c28-11,44,13,44,65
		c0,27,6,58,12,69c10,16,10,24,0,40c-6,11-12,46-12,77c0,66-9,87-36,81c-16-3-19-14-22-76l-3-72h-69h-70v75c0,66-2,75-18,75
		C462,770,450,767,447,763z"/>
	<path d="M1858,754c-35-19-45-57-26-98c15-31,15-33-13-64c-37-42-38-82-1-122c37-41,89-50,136-22c33,20,37,20,75,5c69-27,97,2,36,38
		l-35,21l25,36c14,20,25,47,25,59c0,37-34,28-64-17c-14-22-30-40-34-40c-5,0-18,13-29,28l-21,28l24,27c38,45,31,98-17,122
		C1904,773,1892,773,1858,754z M1920,690c0-20-23-43-33-33c-9,8-9,48-1,56C1897,724,1920,708,1920,690z M1933,493c-36-27-83-4-83,41
		c0,46,21,49,62,9C1947,508,1949,504,1933,493z"/>
	<path d="M2674,676c-17-8-42-12-56-9c-29,5-46-13-29-30c6-6,11-49,11-104c0-74,3-95,15-99c31-12,45,15,45,91c0,67,2,75,26,94
		c20,16,29,18,43,9c22-14,51-4,51,16c0,14-48,47-67,46C2709,689,2691,683,2674,676z"/>
	<path d="M3520,678c-41-22-70-75-70-130c0-41,5-54,29-79c35-35,95-40,132-11c29,24,20,58-14,47c-63-20-76-18-88,11
		c-14,37,4,99,32,115c16,8,26,7,44-5c32-21,55-20,55,2C3640,671,3566,701,3520,678z"/>
	<path d="M3905,665c-45-44-21-108,45-122c40-7,57-28,40-48s-32-19-64,6c-29,23-59,19-54-8c5-25,66-63,100-63c17,0,39,10,53,25
		c48,47,23,118-46,132c-33,6-48,28-31,45c7,7,20,7,40,0c56-19,72,27,17,48C3962,696,3931,692,3905,665z"/>
	<path d="M802,660c-65-40-89-118-57-180c19-37,43-50,90-50s100,50,110,103C964,635,881,709,802,660z M874,614c32-32,12-120-31-130
		c-33-9-49,0-57,30c-12,47,19,97,71,115C858,630,866,623,874,614z"/>
	<path d="M990,560c0-65,4-121,9-124c5-4,16-3,25,0c12,5,16,25,18,91c2,69,6,88,21,97c12,8,22,8,35,0c14-9,18-28,20-98
		c3-84,3-86,27-86s25,2,25,76c0,83,11,114,40,114s40-31,40-114c0-76,6-91,34-80c13,5,16,23,16,94c0,104-4,116-41,135
		c-34,18-63,19-89,3c-16-10-24-10-39-1c-11,7-47,12-80,12l-61-1V560z"/>
	<path d="M1423,661c-67-31-90-97-57-166c30-64,109-79,183-34c59,36,28,61-43,34c-35-14-48-15-66-5c-27,14-19,23,36,38
		c99,28,126,100,53,137C1492,684,1474,684,1423,661z M1510,605c0-13-89-49-98-40c-11,10,10,37,40,49C1487,629,1510,625,1510,605z"/>
	<path d="M2870,673c-8-3-26-15-38-27c-58-52-69-134-26-185c52-62,146-33,180,54c28,75-5,149-72,159C2898,677,2878,677,2870,673z
		 M2925,610c35-39-1-130-51-130c-51,0-56,91-7,130C2899,635,2903,635,2925,610z"/>
	<path d="M3070,563c0-131-7-155-40-135c-51,31-71-10-23-48c32-25,69-20,96,12c14,17,17,41,17,154v134h-25h-25V563z"/>
	<path d="M3253,661c-67-31-90-97-57-166c30-64,109-79,183-34c59,36,28,61-43,34c-35-14-48-15-66-5c-27,14-19,23,36,38
		c99,28,126,100,53,137C3322,684,3304,684,3253,661z M3340,605c0-13-89-49-98-40c-11,10,10,37,40,49C3317,629,3340,625,3340,605z"/>
</g>
</svg>
