<?xml version="1.0" encoding="utf-8"?>
<!-- Generator: Adobe Illustrator 23.0.1, SVG Export Plug-In . SVG Version: 6.00 Build 0)  -->
<svg version="1.1" id="Layer_1" xmlns="http://www.w3.org/2000/svg" xmlns:xlink="http://www.w3.org/1999/xlink" x="0px" y="0px"
	 viewBox="0 0 455 120" style="enable-background:new 0 0 455 120;" xml:space="preserve">
<style type="text/css">
	.st0{fill:#FFFFFF;}
</style>
<rect x="-3.5" y="-2" class="st0" width="458.5" height="122"/>
<g transform="translate(0.000000,120.000000) scale(0.100000,-0.100000)">
	<path d="M781,716c-8-9-11-63-9-167l3-154l71-3c59-2,75,1,97,18c62,49,57,168-7,195c-25,11-43,12-67,5c-19-6-35-10-36-10
		c-2,0-3,24-3,53C830,719,808,748,781,716z M920,551c28-54-1-111-57-111c-32,0-33,1-33,44c0,36,5,48,26,65C889,575,906,575,920,551z
		"/>
	<path d="M524,644c-20-41-45-113-57-160c-19-72-20-86-8-93c24-15,39-1,51,50l12,49h69h68l11-42c17-67,19-70,37-66c14,3,18,14,18,55
		c0,29,5,57,12,64c16,16,5,39-18,39c-13,0-28,19-50,63C596,748,574,754,524,644z M614,542c-13-2-35-2-48,0l-23,3l20,54l21,53l27-53
		l27-54L614,542z"/>
	<path d="M1567,714c-4-4-7-27-7-50c0-37-3-43-22-46c-15-2-23-10-23-23s8-21,23-23c21-3,22-8,22-86c0-62,4-87,15-96c12-10,18-10,30,0
		c11,9,15,34,15,96c0,80,1,84,23,84c31,0,51,15,44,34c-4,10-18,16-36,16c-29,0-30,2-33,48c-2,38-7,48-23,50
		C1583,720,1571,718,1567,714z"/>
	<path d="M2762,694c-24-17-30-70-12-104c8-15,5-24-15-44c-17-18-25-36-25-61c0-47,14-71,50-90c39-20,79-19,117,5c29,17,35,18,60,5
		c15-8,38-15,51-15c34,0,29,35-8,50c-16,7-30,14-30,17c0,2,12,24,26,49c46,79,6,104-46,29l-31-45l-25,30l-26,30l21,26
		c27,34,28,95,3,117C2849,714,2791,715,2762,694z M2836,645c6-15-12-45-27-45c-11,0-22,38-14,50C2804,665,2830,662,2836,645z
		 M2830,485c29-30,32-37,20-45c-50-32-118,28-78,68C2789,525,2792,524,2830,485z"/>
	<path d="M3285,704c-50-12-75-27-75-45c0-11,7-19,15-19c12,0,15-20,15-119c0-147,2-150,98-133c79,13,109,33,140,93
		c37,71,15,157-51,198C3392,700,3321,713,3285,704z M3374,646c63-26,82-84,50-151c-15-32-39-47-96-61l-28-6v109c0,60,3,113,7,116
		C3317,664,3337,661,3374,646z"/>
	<path d="M4053,630c-26-11-43-40-43-74c0-27,41-66,71-66c24,0,49-27,43-45c-9-21-40-18-73,6c-32,23-51,19-51-12c0-25,56-59,98-59
		s82,38,82,78c0,33-14,48-74,77c-22,11-40,25-38,30c1,6,24,10,50,10c37,0,47,4,50,18c3,12-7,22-32,32C4096,642,4084,643,4053,630z"
		/>
	<path d="M1906,623c-3-3-6-57-6-120c0-92,3-115,15-119c32-13,45,15,45,96c0,85,15,114,48,93c13-8,18-29,20-91c3-83,15-108,45-96
		c13,5,17,24,19,91s7,88,20,96c12,8,21,7,32-2c12-10,16-33,16-98s3-85,15-89c33-13,45,15,45,103c0,75-2,86-24,108
		c-34,33-73,42-107,23c-19-11-30-13-38-5C2039,625,1917,633,1906,623z"/>
	<path d="M3832,614c-50-34-68-125-37-184c29-57,125-61,159-8c18,30-7,44-46,25c-22-10-38-13-49-6c-52,27-22,139,37,139
		c13,0,26-4,29-10c11-18,45-11,45,9C3970,624,3879,647,3832,614z"/>
	<path d="M1076,599c-36-29-56-70-56-120c0-34,6-47,35-76c30-30,40-35,67-29c49,10,78,34,99,82c24,53,17,107-17,141
		C1174,627,1113,628,1076,599z M1170,551c22-42,4-98-40-121c-15-8-24-6-40,10c-25,25-25,56,0,98C1113,575,1153,582,1170,551z"/>
	<path d="M1287,614c-4-4-7-43-7-86c0-75,2-81,29-109c32-31,86-40,109-17c10,10,17,10,32,0c35-22,53-16,45,16c-4,15-9,64-12,110
		c-4,63-9,85-21,89c-25,10-42-26-42-87c0-59-18-90-53-90c-24,0-31,18-37,100c-4,57-9,76-20,78C1301,619,1291,618,1287,614z"/>
	<path d="M2323,600c-41-25-53-48-53-105c0-40,5-52,34-81c40-40,78-44,144-14c29,13,42,25,42,40c0,24-15,25-63,5c-45-19-58-19-82-1
		c-17,12-14,15,36,29c77,23,99,41,99,82c0,24-7,39-22,49C2427,626,2362,624,2323,600z M2427,553c4-11-94-49-104-40c-3,3,7,18,21,32
		C2371,572,2420,577,2427,553z"/>
	<path d="M3569,581c-38-38-45-60-40-120c6-62,65-101,126-81c118,39,112,240-7,240C3614,620,3601,613,3569,581z M3681,549
		c16-31,2-85-28-109c-31-24-37-25-58-3c-21,21-15,85,11,114C3629,576,3666,575,3681,549z"/>
</g>
</svg>
