<?xml version="1.0" encoding="utf-8"?>
<!-- Generator: Adobe Illustrator 23.0.1, SVG Export Plug-In . SVG Version: 6.00 Build 0)  -->
<svg version="1.1" id="Layer_1" xmlns="http://www.w3.org/2000/svg" xmlns:xlink="http://www.w3.org/1999/xlink" x="0px" y="0px"
	 viewBox="0 0 456 119" style="enable-background:new 0 0 456 119;" xml:space="preserve">
<style type="text/css">
	.st0{fill:#FFFFFF;}
</style>
<rect x="-0.5" y="-3.2" class="st0" width="459.7" height="122.2"/>
<g transform="translate(0.000000,119.000000) scale(0.100000,-0.100000)">
	<path d="M2321,734c-27-22-31-32-31-75c0-37-4-49-15-49c-8,0-15-9-15-20s7-23,15-26c12-5,15-24,15-84c0-62,3-79,16-84
		c28-11,34,4,34,85v79h28c16,0,37,6,48,14c16,12,17,17,6,28c-7,7-27,13-45,13c-31,0-32,2-31,39c2,44,18,58,50,44c28-13,54-4,54,17
		c0,16-55,45-84,45C2358,760,2338,748,2321,734z"/>
	<path d="M1365,726l-40-12l-3-69c-1-39-8-80-14-93c-9-17-9-25,0-34c7-7,12-38,12-69c0-60,7-73,34-63c12,5,16,20,16,58v52l35-4
		c45-5,115,29,138,67c23,40,21,82-6,122C1498,739,1449,752,1365,726z M1488,662c7-9,12-33,10-52c-3-29-9-38-41-53
		c-23-12-47-17-62-13c-23,6-25,11-25,67c0,52,3,61,23,69C1423,693,1472,684,1488,662z"/>
	<path d="M2102,728c-7-7-12-31-12-54c0-37-3-43-22-46c-29-4-30-30-1-43c20-8,23-18,25-95c3-83,4-85,28-85c25,0,25,2,28,88
		c3,84,4,87,26,87c26,0,51,24,41,40c-3,5-19,10-36,10c-28,0-29,2-29,43c0,38-13,67-30,67C2117,740,2109,735,2102,728z"/>
	<path d="M2692,728c-8-8-12-59-12-164V412l26-17c24-16,28-16,42-1c13,12,14,18,4,28c-8,8-12,56-12,153c0,132-6,165-30,165
		C2707,740,2699,735,2692,728z"/>
	<path d="M2812,728c-25-25,0-64,32-52c21,8,21,50,0,58C2824,742,2826,742,2812,728z"/>
	<path d="M1910,636c-14-8-38-12-57-9c-28,5-33,3-33-14c0-10,4-23,10-29c5-5,10-50,12-99c3-82,5-90,23-90s20,8,23,80
		c4,101,17,119,79,110c38-5,43-4,43,13C2010,637,1951,659,1910,636z"/>
	<path d="M1660,633c-8-3-26-15-38-27c-58-52-69-134-26-185c52-62,146-33,180,54c28,75-5,149-72,159C1688,637,1668,637,1660,633z
		 M1715,570c35-39-1-130-51-130c-51,0-56,91-7,130C1689,595,1693,595,1715,570z"/>
	<path d="M2510,622c-47-23-85-97-75-148c9-52,45-84,93-84c69,0,122,61,122,141c0,33-6,47-34,75C2577,645,2560,647,2510,622z
		 M2594,544c11-41-22-98-58-102c-33-4-46,10-46,50C2490,576,2575,619,2594,544z"/>
	<path d="M2810,521c0-99,3-120,16-125c9-3,20-4,25,0c5,3,9,59,9,125v119h-25h-25V521z"/>
	<path d="M2982,620c-65-40-89-118-57-180c19-37,43-50,90-50s100,50,110,103C3144,595,3061,669,2982,620z M3054,574
		c32-32,12-120-31-130c-33-9-49,0-57,30c-12,47,19,97,71,115C3038,590,3046,583,3054,574z"/>
</g>
</svg>
