<?xml version="1.0" standalone="no"?>
<!DOCTYPE svg PUBLIC "-//W3C//DTD SVG 20010904//EN"
 "http://www.w3.org/TR/2001/REC-SVG-20010904/DTD/svg10.dtd">
<svg version="1.0" xmlns="http://www.w3.org/2000/svg"
 width="456.000000pt" height="119.000000pt" viewBox="0 0 456.000000 119.000000"
 preserveAspectRatio="xMidYMid meet">

<g transform="translate(0.000000,119.000000) scale(0.100000,-0.100000)"
fill="#000000" stroke="none">
<path d="M1138 1183 c628 -2 1656 -2 2285 0 628 1 114 2 -1143 2 -1257 0
-1771 -1 -1142 -2z"/>
<path d="M3254 845 c-7 -19 -14 -40 -14 -46 0 -8 -7 -6 -18 4 -10 10 -28 17
-41 17 -36 0 -37 -28 -2 -64 l31 -32 -25 -24 c-28 -27 -33 -55 -9 -64 18 -7
29 -2 60 26 21 19 22 19 50 -7 31 -29 67 -30 72 -2 2 10 -3 26 -12 36 -15 16
-13 19 21 42 48 31 52 64 8 63 -16 0 -38 -4 -47 -8 -15 -7 -16 -3 -11 28 11
66 -38 91 -63 31z"/>
<path d="M3554 845 c-7 -19 -14 -40 -14 -46 0 -8 -7 -6 -18 4 -10 10 -28 17
-41 17 -36 0 -37 -28 -2 -64 l31 -32 -25 -24 c-28 -27 -33 -55 -9 -64 18 -7
29 -2 60 26 21 19 22 19 50 -7 31 -29 67 -30 72 -2 2 10 -3 26 -12 36 -15 16
-13 19 21 42 48 31 52 64 8 63 -16 0 -38 -4 -47 -8 -15 -7 -16 -3 -11 28 11
66 -38 91 -63 31z"/>
<path d="M2315 715 c-19 -18 -25 -35 -25 -65 0 -31 -6 -46 -22 -59 l-22 -18
22 -19 c19 -16 22 -29 22 -96 0 -76 1 -78 24 -78 30 0 36 16 36 100 l0 69 38
3 c29 2 37 7 37 23 0 16 -8 21 -37 23 -37 3 -38 4 -38 43 0 45 16 57 50 39 18
-10 25 -9 39 5 15 15 14 18 -8 36 -33 27 -86 25 -116 -6z"/>
<path d="M1376 716 c-26 -8 -52 -20 -57 -27 -14 -22 -16 -256 -2 -302 3 -12
12 -17 26 -15 19 3 22 10 25 56 l3 52 55 0 c47 0 59 4 90 33 43 39 55 96 30
145 -31 59 -90 79 -170 58z m106 -63 c24 -22 23 -75 -2 -98 -10 -9 -40 -20
-65 -22 l-45 -6 0 66 c0 54 3 66 18 70 38 10 76 6 94 -10z"/>
<path d="M2097 714 c-4 -4 -7 -27 -7 -50 0 -37 -3 -43 -22 -46 -15 -2 -23 -10
-23 -23 0 -13 8 -21 23 -23 21 -3 22 -8 22 -85 0 -90 8 -111 36 -105 17 3 19
14 22 95 l3 92 32 3 c24 2 32 8 32 23 0 15 -8 21 -32 23 -30 3 -32 5 -35 50
-2 38 -7 48 -23 50 -12 2 -24 0 -28 -4z"/>
<path d="M2687 714 c-4 -4 -7 -76 -7 -159 0 -137 2 -154 19 -169 25 -23 57
-17 52 9 -2 11 -7 88 -10 170 -6 141 -7 150 -26 153 -12 2 -24 0 -28 -4z"/>
<path d="M2804 705 c-10 -25 4 -45 30 -45 13 0 26 7 30 15 9 25 -5 45 -30 45
-14 0 -27 -7 -30 -15z"/>
<path d="M1897 619 c-9 -6 -27 -7 -38 -4 -28 9 -51 -12 -39 -35 6 -10 10 -55
10 -99 0 -83 14 -116 45 -105 11 5 15 25 15 83 0 70 2 80 25 101 22 21 29 22
45 12 44 -27 75 3 40 38 -22 22 -73 26 -103 9z"/>
<path d="M2812 618 c-13 -13 -16 -100 -6 -185 6 -47 10 -53 30 -53 30 0 33 16
26 140 -6 82 -10 105 -22 108 -9 1 -21 -3 -28 -10z"/>
<path d="M1626 599 c-65 -51 -78 -148 -27 -200 77 -77 208 20 186 138 -14 77
-98 110 -159 62z m94 -48 c17 -33 11 -68 -16 -100 -31 -38 -48 -39 -70 -6 -19
30 -12 70 18 103 26 27 54 28 68 3z"/>
<path d="M2500 606 c-14 -8 -36 -33 -49 -56 -32 -57 -25 -114 19 -152 74 -67
180 2 180 115 0 40 -5 54 -29 78 -33 32 -78 38 -121 15z m78 -48 c15 -15 16
-72 2 -98 -16 -30 -46 -43 -70 -30 -30 16 -28 83 5 115 27 28 45 31 63 13z"/>
<path d="M2961 591 c-109 -102 -27 -271 99 -206 35 18 70 81 70 125 0 38 -24
86 -49 100 -37 20 -87 12 -120 -19z m101 -46 c27 -59 -34 -151 -76 -116 -23
19 -20 83 5 115 26 33 56 34 71 1z"/>
</g>
</svg>
