<?xml version="1.0" standalone="no"?>
<!DOCTYPE svg PUBLIC "-//W3C//DTD SVG 20010904//EN"
 "http://www.w3.org/TR/2001/REC-SVG-20010904/DTD/svg10.dtd">
<svg version="1.0" xmlns="http://www.w3.org/2000/svg"
 width="455.000000pt" height="120.000000pt" viewBox="0 0 455.000000 120.000000"
 preserveAspectRatio="xMidYMid meet">

<g transform="translate(0.000000,120.000000) scale(0.100000,-0.100000)"
fill="#000000" stroke="none">
<path d="M0 600 l0 -600 2278 2 2277 3 -2272 2 -2273 3 0 590 0 590 2273 3
2272 2 -2277 3 -2278 2 0 -600z"/>
<path d="M2365 766 l-40 -12 -3 -69 c-1 -39 -8 -80 -14 -93 -9 -17 -9 -25 0
-34 7 -7 12 -38 12 -69 0 -43 4 -58 16 -63 26 -10 34 3 34 53 l0 48 54 6 c89
9 136 55 136 133 0 29 -8 44 -39 75 -43 43 -78 49 -156 25z m116 -54 c27 -23
30 -73 5 -101 -19 -21 -74 -35 -100 -25 -12 5 -16 20 -16 65 0 52 3 61 23 69
35 14 63 11 88 -8z"/>
<path d="M3070 766 c-27 -33 18 -72 48 -42 13 13 14 20 6 34 -15 23 -38 26
-54 8z"/>
<path d="M3743 773 c-8 -3 -13 -24 -13 -54 0 -46 -2 -49 -26 -49 -21 0 -25 -4
-22 -22 2 -15 11 -24 25 -26 21 -3 22 -9 25 -90 3 -82 4 -87 26 -90 21 -3 22
-1 22 87 0 83 2 91 19 91 32 0 51 11 51 30 0 14 -9 20 -32 22 -32 3 -33 5 -38
52 -5 49 -13 59 -37 49z"/>
<path d="M447 763 c-4 -3 -7 -77 -7 -164 0 -134 2 -158 16 -163 27 -10 34 3
34 65 l0 59 70 0 70 0 0 -59 c0 -45 4 -60 16 -65 28 -11 44 13 44 65 0 27 6
58 12 69 10 16 10 24 0 40 -6 11 -12 46 -12 77 0 66 -9 87 -36 81 -16 -3 -19
-14 -22 -76 l-3 -72 -69 0 -70 0 0 75 c0 66 -2 75 -18 75 -10 0 -22 -3 -25 -7z"/>
<path d="M1858 754 c-35 -19 -45 -57 -26 -98 15 -31 15 -33 -13 -64 -37 -42
-38 -82 -1 -122 37 -41 89 -50 136 -22 33 20 37 20 75 5 69 -27 97 2 36 38
l-35 21 25 36 c14 20 25 47 25 59 0 37 -34 28 -64 -17 -14 -22 -30 -40 -34
-40 -5 0 -18 13 -29 28 l-21 28 24 27 c38 45 31 98 -17 122 -35 18 -47 18 -81
-1z m62 -64 c0 -20 -23 -43 -33 -33 -9 8 -9 48 -1 56 11 11 34 -5 34 -23z m13
-197 c-36 -27 -83 -4 -83 41 0 46 21 49 62 9 35 -35 37 -39 21 -50z"/>
<path d="M2674 676 c-17 -8 -42 -12 -56 -9 -29 5 -46 -13 -29 -30 6 -6 11 -49
11 -104 0 -74 3 -95 15 -99 31 -12 45 15 45 91 0 67 2 75 26 94 20 16 29 18
43 9 22 -14 51 -4 51 16 0 14 -48 47 -67 46 -4 -1 -22 -7 -39 -14z"/>
<path d="M3520 678 c-41 -22 -70 -75 -70 -130 0 -41 5 -54 29 -79 35 -35 95
-40 132 -11 29 24 20 58 -14 47 -63 -20 -76 -18 -88 11 -14 37 4 99 32 115 16
8 26 7 44 -5 32 -21 55 -20 55 2 0 43 -74 73 -120 50z"/>
<path d="M3905 665 c-45 -44 -21 -108 45 -122 40 -7 57 -28 40 -48 -17 -20
-32 -19 -64 6 -29 23 -59 19 -54 -8 5 -25 66 -63 100 -63 17 0 39 10 53 25 48
47 23 118 -46 132 -33 6 -48 28 -31 45 7 7 20 7 40 0 56 -19 72 27 17 48 -43
16 -74 12 -100 -15z"/>
<path d="M802 660 c-65 -40 -89 -118 -57 -180 19 -37 43 -50 90 -50 47 0 100
50 110 103 19 102 -64 176 -143 127z m72 -46 c32 -32 12 -120 -31 -130 -33 -9
-49 0 -57 30 -12 47 19 97 71 115 1 1 9 -6 17 -15z"/>
<path d="M990 560 c0 -65 4 -121 9 -124 5 -4 16 -3 25 0 12 5 16 25 18 91 2
69 6 88 21 97 12 8 22 8 35 0 14 -9 18 -28 20 -98 3 -84 3 -86 27 -86 24 0 25
2 25 76 0 83 11 114 40 114 29 0 40 -31 40 -114 0 -76 6 -91 34 -80 13 5 16
23 16 94 0 104 -4 116 -41 135 -34 18 -63 19 -89 3 -16 -10 -24 -10 -39 -1
-11 7 -47 12 -80 12 l-61 -1 0 -118z"/>
<path d="M1423 661 c-67 -31 -90 -97 -57 -166 30 -64 109 -79 183 -34 59 36
28 61 -43 34 -35 -14 -48 -15 -66 -5 -27 14 -19 23 36 38 99 28 126 100 53
137 -37 19 -55 19 -106 -4z m87 -56 c0 -13 -89 -49 -98 -40 -11 10 10 37 40
49 35 15 58 11 58 -9z"/>
<path d="M2870 673 c-8 -3 -26 -15 -38 -27 -58 -52 -69 -134 -26 -185 52 -62
146 -33 180 54 28 75 -5 149 -72 159 -16 3 -36 3 -44 -1z m55 -63 c35 -39 -1
-130 -51 -130 -51 0 -56 91 -7 130 32 25 36 25 58 0z"/>
<path d="M3070 563 c0 -131 -7 -155 -40 -135 -51 31 -71 -10 -23 -48 32 -25
69 -20 96 12 14 17 17 41 17 154 l0 134 -25 0 -25 0 0 -117z"/>
<path d="M3253 661 c-67 -31 -90 -97 -57 -166 30 -64 109 -79 183 -34 59 36
28 61 -43 34 -35 -14 -48 -15 -66 -5 -27 14 -19 23 36 38 99 28 126 100 53
137 -37 19 -55 19 -106 -4z m87 -56 c0 -13 -89 -49 -98 -40 -11 10 10 37 40
49 35 15 58 11 58 -9z"/>
</g>
</svg>
