<?xml version="1.0" standalone="no"?>
<!DOCTYPE svg PUBLIC "-//W3C//DTD SVG 20010904//EN"
 "http://www.w3.org/TR/2001/REC-SVG-20010904/DTD/svg10.dtd">
<svg version="1.0" xmlns="http://www.w3.org/2000/svg"
 width="456.000000pt" height="119.000000pt" viewBox="0 0 456.000000 119.000000"
 preserveAspectRatio="xMidYMid meet">

<g transform="translate(0.000000,119.000000) scale(0.100000,-0.100000)"
fill="#000000" stroke="none">
<path d="M1138 1183 c628 -2 1656 -2 2285 0 628 1 114 2 -1143 2 -1257 0
-1771 -1 -1142 -2z"/>
<path d="M2321 734 c-27 -22 -31 -32 -31 -75 0 -37 -4 -49 -15 -49 -8 0 -15
-9 -15 -20 0 -11 7 -23 15 -26 12 -5 15 -24 15 -84 0 -62 3 -79 16 -84 28 -11
34 4 34 85 l0 79 28 0 c16 0 37 6 48 14 16 12 17 17 6 28 -7 7 -27 13 -45 13
-31 0 -32 2 -31 39 2 44 18 58 50 44 28 -13 54 -4 54 17 0 16 -55 45 -84 45
-8 0 -28 -12 -45 -26z"/>
<path d="M1365 726 l-40 -12 -3 -69 c-1 -39 -8 -80 -14 -93 -9 -17 -9 -25 0
-34 7 -7 12 -38 12 -69 0 -60 7 -73 34 -63 12 5 16 20 16 58 l0 52 35 -4 c45
-5 115 29 138 67 23 40 21 82 -6 122 -39 58 -88 71 -172 45z m123 -64 c7 -9
12 -33 10 -52 -3 -29 -9 -38 -41 -53 -23 -12 -47 -17 -62 -13 -23 6 -25 11
-25 67 0 52 3 61 23 69 30 13 79 4 95 -18z"/>
<path d="M2102 728 c-7 -7 -12 -31 -12 -54 0 -37 -3 -43 -22 -46 -29 -4 -30
-30 -1 -43 20 -8 23 -18 25 -95 3 -83 4 -85 28 -85 25 0 25 2 28 88 3 84 4 87
26 87 26 0 51 24 41 40 -3 5 -19 10 -36 10 -28 0 -29 2 -29 43 0 38 -13 67
-30 67 -3 0 -11 -5 -18 -12z"/>
<path d="M2692 728 c-8 -8 -12 -59 -12 -164 l0 -152 26 -17 c24 -16 28 -16 42
-1 13 12 14 18 4 28 -8 8 -12 56 -12 153 0 132 -6 165 -30 165 -3 0 -11 -5
-18 -12z"/>
<path d="M2812 728 c-25 -25 0 -64 32 -52 21 8 21 50 0 58 -20 8 -18 8 -32 -6z"/>
<path d="M1910 636 c-14 -8 -38 -12 -57 -9 -28 5 -33 3 -33 -14 0 -10 4 -23
10 -29 5 -5 10 -50 12 -99 3 -82 5 -90 23 -90 18 0 20 8 23 80 4 101 17 119
79 110 38 -5 43 -4 43 13 0 39 -59 61 -100 38z"/>
<path d="M1660 633 c-8 -3 -26 -15 -38 -27 -58 -52 -69 -134 -26 -185 52 -62
146 -33 180 54 28 75 -5 149 -72 159 -16 3 -36 3 -44 -1z m55 -63 c35 -39 -1
-130 -51 -130 -51 0 -56 91 -7 130 32 25 36 25 58 0z"/>
<path d="M2510 622 c-47 -23 -85 -97 -75 -148 9 -52 45 -84 93 -84 69 0 122
61 122 141 0 33 -6 47 -34 75 -39 39 -56 41 -106 16z m84 -78 c11 -41 -22 -98
-58 -102 -33 -4 -46 10 -46 50 0 84 85 127 104 52z"/>
<path d="M2810 521 c0 -99 3 -120 16 -125 9 -3 20 -4 25 0 5 3 9 59 9 125 l0
119 -25 0 -25 0 0 -119z"/>
<path d="M2982 620 c-65 -40 -89 -118 -57 -180 19 -37 43 -50 90 -50 47 0 100
50 110 103 19 102 -64 176 -143 127z m72 -46 c32 -32 12 -120 -31 -130 -33 -9
-49 0 -57 30 -12 47 19 97 71 115 1 1 9 -6 17 -15z"/>
</g>
</svg>
