<?xml version="1.0" standalone="no"?>
<!DOCTYPE svg PUBLIC "-//W3C//DTD SVG 20010904//EN"
 "http://www.w3.org/TR/2001/REC-SVG-20010904/DTD/svg10.dtd">
<svg version="1.0" xmlns="http://www.w3.org/2000/svg"
 width="455.000000pt" height="120.000000pt" viewBox="0 0 455.000000 120.000000"
 preserveAspectRatio="xMidYMid meet">

<g transform="translate(0.000000,120.000000) scale(0.100000,-0.100000)"
fill="#000000" stroke="none">
<path d="M2268 1193 l2272 -3 0 -590 0 -590 -2272 -3 -2273 -2 2278 -3 2277
-2 0 600 0 600 -2277 -2 -2278 -3 2273 -2z"/>
<path d="M781 716 c-8 -9 -11 -63 -9 -167 l3 -154 71 -3 c59 -2 75 1 97 18 62
49 57 168 -7 195 -25 11 -43 12 -67 5 -19 -6 -35 -10 -36 -10 -2 0 -3 24 -3
53 0 66 -22 95 -49 63z m139 -165 c28 -54 -1 -111 -57 -111 -32 0 -33 1 -33
44 0 36 5 48 26 65 33 26 50 26 64 2z"/>
<path d="M524 644 c-20 -41 -45 -113 -57 -160 -19 -72 -20 -86 -8 -93 24 -15
39 -1 51 50 l12 49 69 0 68 0 11 -42 c17 -67 19 -70 37 -66 14 3 18 14 18 55
0 29 5 57 12 64 16 16 5 39 -18 39 -13 0 -28 19 -50 63 -73 145 -95 151 -145
41z m90 -102 c-13 -2 -35 -2 -48 0 l-23 3 20 54 21 53 27 -53 27 -54 -24 -3z"/>
<path d="M1567 714 c-4 -4 -7 -27 -7 -50 0 -37 -3 -43 -22 -46 -15 -2 -23 -10
-23 -23 0 -13 8 -21 23 -23 21 -3 22 -8 22 -86 0 -62 4 -87 15 -96 12 -10 18
-10 30 0 11 9 15 34 15 96 0 80 1 84 23 84 31 0 51 15 44 34 -4 10 -18 16 -36
16 -29 0 -30 2 -33 48 -2 38 -7 48 -23 50 -12 2 -24 0 -28 -4z"/>
<path d="M2762 694 c-24 -17 -30 -70 -12 -104 8 -15 5 -24 -15 -44 -17 -18
-25 -36 -25 -61 0 -47 14 -71 50 -90 39 -20 79 -19 117 5 29 17 35 18 60 5 15
-8 38 -15 51 -15 34 0 29 35 -8 50 -16 7 -30 14 -30 17 0 2 12 24 26 49 46 79
6 104 -46 29 l-31 -45 -25 30 -26 30 21 26 c27 34 28 95 3 117 -23 21 -81 22
-110 1z m74 -49 c6 -15 -12 -45 -27 -45 -11 0 -22 38 -14 50 9 15 35 12 41 -5z
m-6 -160 c29 -30 32 -37 20 -45 -50 -32 -118 28 -78 68 17 17 20 16 58 -23z"/>
<path d="M3285 704 c-50 -12 -75 -27 -75 -45 0 -11 7 -19 15 -19 12 0 15 -20
15 -119 0 -147 2 -150 98 -133 79 13 109 33 140 93 37 71 15 157 -51 198 -35
21 -106 34 -142 25z m89 -58 c63 -26 82 -84 50 -151 -15 -32 -39 -47 -96 -61
l-28 -6 0 109 c0 60 3 113 7 116 10 11 30 8 67 -7z"/>
<path d="M4053 630 c-26 -11 -43 -40 -43 -74 0 -27 41 -66 71 -66 24 0 49 -27
43 -45 -9 -21 -40 -18 -73 6 -32 23 -51 19 -51 -12 0 -25 56 -59 98 -59 42 0
82 38 82 78 0 33 -14 48 -74 77 -22 11 -40 25 -38 30 1 6 24 10 50 10 37 0 47
4 50 18 3 12 -7 22 -32 32 -40 17 -52 18 -83 5z"/>
<path d="M1906 623 c-3 -3 -6 -57 -6 -120 0 -92 3 -115 15 -119 32 -13 45 15
45 96 0 85 15 114 48 93 13 -8 18 -29 20 -91 3 -83 15 -108 45 -96 13 5 17 24
19 91 2 67 7 88 20 96 12 8 21 7 32 -2 12 -10 16 -33 16 -98 0 -65 3 -85 15
-89 33 -13 45 15 45 103 0 75 -2 86 -24 108 -34 33 -73 42 -107 23 -19 -11
-30 -13 -38 -5 -12 12 -134 20 -145 10z"/>
<path d="M3832 614 c-50 -34 -68 -125 -37 -184 29 -57 125 -61 159 -8 18 30
-7 44 -46 25 -22 -10 -38 -13 -49 -6 -52 27 -22 139 37 139 13 0 26 -4 29 -10
11 -18 45 -11 45 9 0 45 -91 68 -138 35z"/>
<path d="M1076 599 c-36 -29 -56 -70 -56 -120 0 -34 6 -47 35 -76 30 -30 40
-35 67 -29 49 10 78 34 99 82 24 53 17 107 -17 141 -30 30 -91 31 -128 2z m94
-48 c22 -42 4 -98 -40 -121 -15 -8 -24 -6 -40 10 -25 25 -25 56 0 98 23 37 63
44 80 13z"/>
<path d="M1287 614 c-4 -4 -7 -43 -7 -86 0 -75 2 -81 29 -109 32 -31 86 -40
109 -17 10 10 17 10 32 0 35 -22 53 -16 45 16 -4 15 -9 64 -12 110 -4 63 -9
85 -21 89 -25 10 -42 -26 -42 -87 0 -59 -18 -90 -53 -90 -24 0 -31 18 -37 100
-4 57 -9 76 -20 78 -9 1 -19 0 -23 -4z"/>
<path d="M2323 600 c-41 -25 -53 -48 -53 -105 0 -40 5 -52 34 -81 40 -40 78
-44 144 -14 29 13 42 25 42 40 0 24 -15 25 -63 5 -45 -19 -58 -19 -82 -1 -17
12 -14 15 36 29 77 23 99 41 99 82 0 24 -7 39 -22 49 -31 22 -96 20 -135 -4z
m104 -47 c4 -11 -94 -49 -104 -40 -3 3 7 18 21 32 27 27 76 32 83 8z"/>
<path d="M3569 581 c-38 -38 -45 -60 -40 -120 6 -62 65 -101 126 -81 118 39
112 240 -7 240 -34 0 -47 -7 -79 -39z m112 -32 c16 -31 2 -85 -28 -109 -31
-24 -37 -25 -58 -3 -21 21 -15 85 11 114 23 25 60 24 75 -2z"/>
</g>
</svg>
