<?xml version="1.0" encoding="utf-8"?>
<!-- Generator: Adobe Illustrator 23.0.6, SVG Export Plug-In . SVG Version: 6.00 Build 0)  -->
<svg version="1.1" xmlns="http://www.w3.org/2000/svg" xmlns:xlink="http://www.w3.org/1999/xlink" x="0px" y="0px"
	 viewBox="0 0 283.46 283.46" style="enable-background:new 0 0 283.46 283.46;" xml:space="preserve">
<style type="text/css">
	.st0{fill:#7B899E;}
	.st1{opacity:0.44;fill:#295F84;}
	.st2{opacity:0.63;fill:#72A8B6;}
	.st3{opacity:0.94;fill:#DCBAD8;}
	.st4{opacity:0.36;fill:#AAB6D5;}
	.st5{opacity:0.33;fill:#DCBAD8;}
	.st6{opacity:0.87;fill:#DDCDE4;}
	.st7{opacity:0.25;fill:#E693AD;}
	.st8{opacity:0.67;fill:#A9ABD5;}
	.st9{opacity:0.91;fill:#DCBAD8;}
	.st10{opacity:0.56;fill:#2B292A;}
	.st11{fill:#F2E4E7;}
	.st12{display:none;}
	.st13{display:inline;}
	.st14{clip-path:url(#SVGID_2_);fill:#151414;}
	.st15{opacity:0.27;clip-path:url(#SVGID_2_);fill:#FFFFFF;}
	.st16{opacity:0.5;clip-path:url(#SVGID_2_);fill:#E07986;}
	.st17{opacity:0.55;clip-path:url(#SVGID_2_);fill:#E0D120;}
</style>
<g id="Layer_5">
</g>
<g id="Layer_1">
	<rect x="0" class="st0" width="283.46" height="283.46"/>
</g>
<g id="Layer_2">
	<polygon class="st1" points="228.59,106.88 172.37,119.23 133.55,76.73 150.96,21.86 207.18,9.5 245.99,52.01 	"/>
	<polygon class="st2" points="224.3,77.85 267.71,84.72 283.46,125.76 255.8,159.92 212.39,153.04 196.64,112 	"/>
	<polygon class="st3" points="189.87,57.21 180.09,25.93 202.28,1.82 234.26,8.98 244.04,40.25 221.85,64.37 	"/>
	<polygon class="st4" points="145.12,244.35 145.17,173.73 206.31,138.38 267.4,173.65 267.36,244.27 206.22,279.63 	"/>
	<polygon class="st5" points="53.73,218.36 42.76,183.29 67.64,156.26 103.49,164.29 114.47,199.35 89.59,226.39 	"/>
	<polygon class="st6" points="26.59,43.3 23.3,32.79 30.76,24.68 41.51,27.09 44.8,37.6 37.34,45.71 	"/>
	<polygon class="st7" points="35.7,94.32 31.89,82.16 40.52,72.79 52.94,75.58 56.75,87.73 48.12,97.1 	"/>
	<polygon class="st8" points="97.53,108.45 93.61,95.92 102.5,86.26 115.31,89.12 119.23,101.66 110.34,111.32 	"/>
	<polygon class="st9" points="123.64,158.42 119.55,145.35 128.83,135.27 142.19,138.27 146.28,151.34 137.01,161.42 	"/>
</g>
<g id="Layer_3">
	<rect y="227.48" class="st10" width="283.46" height="51.75"/>
	<g>
		<g>
			<path class="st11" d="M17.17,232.76h-2.85v-1.37h7.32v1.37h-2.85v7.79h-1.61V232.76z"/>
			<path class="st11" d="M22.88,237.11c0-2.3,1.62-3.62,3.42-3.62s3.42,1.32,3.42,3.62c0,2.28-1.62,3.6-3.42,3.6
				S22.88,239.39,22.88,237.11z M28.07,237.11c0-1.38-0.67-2.3-1.78-2.3s-1.78,0.91-1.78,2.3c0,1.38,0.67,2.28,1.78,2.28
				S28.07,238.49,28.07,237.11z"/>
			<path class="st11" d="M31.59,233.66h1.31l0.12,0.79h0.05c0.59-0.56,1.41-0.96,2.19-0.96c1.76,0,2.77,1.38,2.77,3.5
				c0,2.35-1.44,3.71-3.02,3.71c-0.61,0-1.3-0.3-1.85-0.82h-0.04l0.08,1.21v2.16h-1.6V233.66z M36.39,237.01
				c0-1.37-0.48-2.17-1.58-2.17c-0.51,0-1.06,0.25-1.61,0.82v3.09c0.5,0.46,1.07,0.62,1.48,0.62
				C35.64,239.37,36.39,238.57,36.39,237.01z"/>
			<path class="st11" d="M42.87,234.95h-2.94v-1.28h4.54v6.88h-1.6V234.95z M42.43,231.33c0-0.65,0.48-1.09,1.14-1.09
				c0.66,0,1.14,0.45,1.14,1.09c0,0.65-0.48,1.08-1.14,1.08C42.91,232.41,42.43,231.98,42.43,231.33z"/>
			<path class="st11" d="M48.1,237.11c0-2.3,1.79-3.62,3.87-3.62c1.09,0,1.95,0.42,2.51,0.97l-0.76,1.02
				c-0.54-0.43-1.07-0.66-1.68-0.66c-1.36,0-2.3,0.91-2.3,2.3c0,1.38,0.93,2.28,2.25,2.28c0.78,0,1.42-0.35,1.94-0.76l0.67,1.03
				c-0.79,0.69-1.78,1.04-2.75,1.04C49.72,240.71,48.1,239.39,48.1,237.11z"/>
			<path class="st11" d="M56.26,239.65l0.7-1.03c0.81,0.54,1.74,0.87,2.85,0.87c0.94,0,1.38-0.36,1.38-0.82
				c0-0.45-0.3-0.7-1.88-1.03c-1.82-0.38-2.62-1.03-2.62-2.08c0-1.2,1.08-2.06,2.98-2.06c1.13,0,2.16,0.45,2.85,0.91l-0.74,0.99
				c-0.66-0.43-1.45-0.69-2.25-0.69c-0.88,0-1.25,0.34-1.25,0.76c0,0.49,0.5,0.66,1.77,0.93c2.17,0.49,2.74,1.07,2.74,2.16
				c0,1.18-1.13,2.14-3.2,2.14C58.32,240.71,57.1,240.23,56.26,239.65z"/>
			<path class="st11" d="M66.5,234.52c0-0.81,0.58-1.42,1.37-1.42c0.79,0,1.37,0.61,1.37,1.42c0,0.82-0.58,1.42-1.37,1.42
				C67.08,235.94,66.5,235.34,66.5,234.52z M66.5,239.29c0-0.81,0.58-1.42,1.37-1.42c0.79,0,1.37,0.61,1.37,1.42
				c0,0.82-0.58,1.42-1.37,1.42C67.08,240.71,66.5,240.11,66.5,239.29z"/>
			<path class="st11" d="M14.63,256.17l0.94-1.12c0.69,0.63,1.58,1.04,2.53,1.04c1.05,0,1.61-0.47,1.61-1.11
				c0-0.82-0.62-1.03-1.5-1.41l-1.25-0.55c-0.95-0.38-1.93-1.09-1.93-2.43c0-1.46,1.3-2.58,3.15-2.58c1.11,0,2.16,0.44,2.9,1.17
				l-0.82,1.03c-0.62-0.5-1.24-0.78-2.15-0.78c-0.86,0-1.44,0.39-1.44,1.07c0,0.71,0.72,0.97,1.54,1.29l1.19,0.52
				c1.15,0.45,1.97,1.14,1.97,2.47c0,1.49-1.24,2.73-3.36,2.73C16.73,257.51,15.52,257.02,14.63,256.17z"/>
			<path class="st11" d="M23.28,247.45h1.6v2.55l-0.09,1.47h0.05c0.59-0.64,1.36-1.18,2.39-1.18c1.57,0,2.28,1.01,2.28,2.79v4.26
				h-1.6v-4.05c0-1.1-0.35-1.61-1.27-1.61c-0.67,0-1.13,0.33-1.75,0.97v4.69h-1.6V247.45z"/>
			<path class="st11" d="M31.19,253.91c0-2.3,1.62-3.62,3.42-3.62s3.42,1.32,3.42,3.62c0,2.28-1.62,3.6-3.42,3.6
				S31.19,256.19,31.19,253.91z M36.39,253.91c0-1.38-0.67-2.3-1.78-2.3s-1.78,0.91-1.78,2.3c0,1.38,0.67,2.28,1.78,2.28
				S36.39,255.29,36.39,253.91z"/>
			<path class="st11" d="M40.57,250.46h1.32l0.14,1.57h0.04c0.69-1.12,1.72-1.73,2.89-1.73c0.55,0,0.92,0.09,1.33,0.28l-0.34,1.37
				c-0.45-0.14-0.71-0.21-1.23-0.21c-0.93,0-1.85,0.48-2.54,1.82v3.79h-1.6V250.46z"/>
			<path class="st11" d="M49.71,254.58v-2.83h-1.82v-1.21l1.89-0.08l0.21-2.15h1.33v2.15h3.09v1.28h-3.09v2.82
				c0,1.14,0.42,1.65,1.57,1.65c0.57,0,1.04-0.12,1.48-0.28l0.31,1.18c-0.61,0.2-1.3,0.39-2.18,0.39
				C50.42,257.51,49.71,256.33,49.71,254.58z"/>
			<path class="st11" d="M56.25,253.9c0-2.24,1.69-3.6,3.51-3.6c2.03,0,3.16,1.36,3.16,3.27c0,0.32-0.04,0.64-0.07,0.81h-5.45v-1.14
				h4.42l-0.31,0.36c0-1.36-0.63-2.05-1.7-2.05c-1.13,0-1.99,0.82-1.99,2.35c0,1.6,0.95,2.36,2.37,2.36c0.71,0,1.3-0.21,1.91-0.56
				l0.55,1c-0.73,0.48-1.67,0.81-2.67,0.81C57.89,257.51,56.25,256.19,56.25,253.9z"/>
			<path class="st11" d="M64.57,256.45l0.7-1.03c0.81,0.54,1.74,0.87,2.85,0.87c0.94,0,1.38-0.36,1.38-0.82
				c0-0.45-0.3-0.7-1.88-1.03c-1.82-0.38-2.62-1.03-2.62-2.08c0-1.2,1.08-2.06,2.98-2.06c1.13,0,2.16,0.45,2.85,0.91l-0.74,0.99
				c-0.66-0.43-1.45-0.69-2.25-0.69c-0.88,0-1.25,0.34-1.25,0.76c0,0.49,0.5,0.66,1.77,0.93c2.17,0.49,2.74,1.07,2.74,2.16
				c0,1.18-1.13,2.14-3.2,2.14C66.64,257.51,65.41,257.03,64.57,256.45z"/>
			<path class="st11" d="M74.66,254.58v-2.83h-1.82v-1.21l1.89-0.08l0.21-2.15h1.33v2.15h3.09v1.28h-3.09v2.82
				c0,1.14,0.42,1.65,1.57,1.65c0.57,0,1.04-0.12,1.48-0.28l0.31,1.18c-0.61,0.2-1.3,0.39-2.18,0.39
				C75.37,257.51,74.66,256.33,74.66,254.58z"/>
			<path class="st11" d="M89.88,248.19h2.98c1.98,0,3.45,0.7,3.45,2.82c0,2.05-1.5,2.97-3.45,2.97h-1.37v3.36h-1.61V248.19z
				 M92.73,252.68c1.35,0,1.99-0.55,1.99-1.67c0-1.13-0.67-1.52-1.99-1.52h-1.24v3.19H92.73z"/>
			<path class="st11" d="M97.95,255.5c0-1.54,1.34-2.31,4.7-2.55c-0.06-0.77-0.51-1.35-1.62-1.35c-0.77,0-1.52,0.34-2.22,0.73
				l-0.59-1.07c0.82-0.5,1.94-0.96,3.11-0.96c1.89,0,2.93,1.06,2.93,2.98v4.07h-1.32l-0.12-0.85h-0.05
				c-0.71,0.56-1.63,1.02-2.54,1.02C98.91,257.51,97.95,256.69,97.95,255.5z M102.66,255.41v-1.45c-2.44,0.16-3.15,0.67-3.15,1.41
				c0,0.61,0.53,0.87,1.2,0.87C101.4,256.24,102.03,255.92,102.66,255.41z"/>
			<path class="st11" d="M107.92,254.58v-2.83h-1.82v-1.21l1.89-0.08l0.21-2.15h1.33v2.15h3.09v1.28h-3.09v2.82
				c0,1.14,0.42,1.65,1.57,1.65c0.57,0,1.04-0.12,1.48-0.28l0.31,1.18c-0.61,0.2-1.3,0.39-2.18,0.39
				C108.63,257.51,107.92,256.33,107.92,254.58z"/>
			<path class="st11" d="M114.75,247.45h1.6v2.55l-0.09,1.47h0.05c0.59-0.64,1.36-1.18,2.39-1.18c1.57,0,2.28,1.01,2.28,2.79v4.26
				h-1.6v-4.05c0-1.1-0.35-1.61-1.27-1.61c-0.67,0-1.13,0.33-1.75,0.97v4.69h-1.6V247.45z"/>
			<path class="st11" d="M133.45,248.19h1.9l2.93,9.16h-1.71l-1.36-4.87c-0.27-0.97-0.56-2.01-0.81-3.02h-0.06
				c-0.25,1.01-0.53,2.05-0.8,3.02l-1.38,4.87h-1.65L133.45,248.19z M132.25,253.58h4.25v1.29h-4.25V253.58z"/>
			<path class="st11" d="M141.68,254.84v-6.1h-2.27v-1.28h3.87v7.47c0,0.92,0.54,1.27,1.22,1.27c0.35,0,0.73-0.08,1.16-0.27
				l0.37,1.2c-0.67,0.25-1.13,0.39-1.93,0.39C142.52,257.51,141.68,256.53,141.68,254.84z"/>
			<path class="st11" d="M147.72,258.55c0-0.56,0.38-1.06,1.09-1.45v-0.06c-0.37-0.22-0.69-0.57-0.69-1.15
				c0-0.45,0.31-0.95,0.81-1.29v-0.06c-0.48-0.34-0.87-0.96-0.87-1.78c0-1.58,1.31-2.48,2.8-2.48c0.4,0,0.75,0.06,1.06,0.17h2.79
				v1.23h-1.56c0.23,0.27,0.43,0.69,0.43,1.14c0,1.53-1.2,2.33-2.72,2.33c-0.31,0-0.68-0.06-1.04-0.2
				c-0.27,0.18-0.41,0.37-0.41,0.65c0,0.45,0.44,0.65,1.28,0.65h1.39c1.77,0,2.68,0.48,2.68,1.68c0,1.36-1.53,2.44-3.92,2.44
				C148.96,260.39,147.72,259.78,147.72,258.55z M153.22,258.22c0-0.54-0.47-0.68-1.37-0.68h-1.09c-0.44,0-0.76-0.03-1.04-0.1
				c-0.49,0.28-0.67,0.58-0.67,0.9c0,0.62,0.72,0.97,1.97,0.97C152.35,259.31,153.22,258.8,153.22,258.22z M152.15,252.77
				c0-0.84-0.58-1.36-1.29-1.36c-0.7,0-1.29,0.52-1.29,1.36c0,0.87,0.58,1.38,1.29,1.38C151.57,254.15,152.15,253.64,152.15,252.77z
				"/>
			<path class="st11" d="M155.92,253.91c0-2.3,1.62-3.62,3.42-3.62s3.42,1.32,3.42,3.62c0,2.28-1.62,3.6-3.42,3.6
				S155.92,256.19,155.92,253.91z M161.12,253.91c0-1.38-0.67-2.3-1.78-2.3s-1.78,0.91-1.78,2.3c0,1.38,0.67,2.28,1.78,2.28
				S161.12,255.29,161.12,253.91z"/>
			<path class="st11" d="M165.3,250.46h1.32l0.14,1.57h0.04c0.69-1.12,1.72-1.73,2.89-1.73c0.55,0,0.92,0.09,1.33,0.28l-0.34,1.37
				c-0.45-0.14-0.71-0.21-1.23-0.21c-0.93,0-1.85,0.48-2.54,1.82v3.79h-1.6V250.46z"/>
			<path class="st11" d="M175.92,251.75h-2.94v-1.28h4.54v6.88h-1.6V251.75z M175.48,248.13c0-0.65,0.48-1.09,1.14-1.09
				c0.66,0,1.14,0.45,1.14,1.09c0,0.65-0.48,1.08-1.14,1.08C175.96,249.21,175.48,248.78,175.48,248.13z"/>
			<path class="st11" d="M182.76,254.58v-2.83h-1.82v-1.21l1.89-0.08l0.21-2.15h1.33v2.15h3.09v1.28h-3.09v2.82
				c0,1.14,0.42,1.65,1.57,1.65c0.57,0,1.04-0.12,1.48-0.28l0.31,1.18c-0.61,0.2-1.3,0.39-2.18,0.39
				C183.47,257.51,182.76,256.33,182.76,254.58z"/>
			<path class="st11" d="M189.59,247.45h1.6v2.55l-0.09,1.47h0.05c0.59-0.64,1.36-1.18,2.39-1.18c1.57,0,2.28,1.01,2.28,2.79v4.26
				h-1.6v-4.05c0-1.1-0.35-1.61-1.27-1.61c-0.67,0-1.13,0.33-1.75,0.97v4.69h-1.6V247.45z"/>
			<path class="st11" d="M197.4,250.46h1.23l0.12,0.88h0.04c0.3-0.59,0.73-1.04,1.51-1.04c0.63,0,1.06,0.39,1.23,1.16
				c0.32-0.68,0.77-1.16,1.55-1.16c0.96,0,1.52,0.8,1.52,2.17v4.87h-1.54v-4.76c0-0.6-0.16-0.91-0.54-0.91
				c-0.36,0-0.58,0.28-0.85,0.86v4.81h-1.33v-4.76c0-0.6-0.16-0.91-0.54-0.91c-0.36,0-0.6,0.28-0.85,0.86v4.81h-1.54V250.46z"/>
			<path class="st11" d="M205.93,256.45l0.7-1.03c0.81,0.54,1.74,0.87,2.85,0.87c0.94,0,1.38-0.36,1.38-0.82
				c0-0.45-0.3-0.7-1.88-1.03c-1.82-0.38-2.62-1.03-2.62-2.08c0-1.2,1.08-2.06,2.98-2.06c1.13,0,2.16,0.45,2.85,0.91l-0.74,0.99
				c-0.66-0.43-1.45-0.69-2.25-0.69c-0.88,0-1.25,0.34-1.25,0.76c0,0.49,0.5,0.66,1.77,0.93c2.17,0.49,2.74,1.07,2.74,2.16
				c0,1.18-1.13,2.14-3.2,2.14C208,257.51,206.78,257.03,205.93,256.45z"/>
			<path class="st11" d="M17.93,268.55h-2.94v-1.28h4.54v6.88h-1.6V268.55z M17.49,264.93c0-0.64,0.48-1.09,1.14-1.09
				c0.66,0,1.14,0.45,1.14,1.09c0,0.65-0.48,1.08-1.14,1.08C17.96,266.01,17.49,265.58,17.49,264.93z"/>
			<path class="st11" d="M23.28,267.26h1.31l0.12,1.04h0.06c0.65-0.67,1.42-1.2,2.45-1.2c1.57,0,2.28,1.01,2.28,2.79v4.26h-1.6
				v-4.05c0-1.1-0.35-1.61-1.27-1.61c-0.67,0-1.13,0.33-1.75,0.97v4.69h-1.6V267.26z"/>
			<path class="st11" d="M41.98,264.99h1.9l2.93,9.16h-1.71l-1.36-4.87c-0.27-0.97-0.56-2-0.81-3.02h-0.06
				c-0.25,1.01-0.53,2.05-0.8,3.02l-1.38,4.87h-1.65L41.98,264.99z M40.78,270.38h4.25v1.29h-4.25V270.38z"/>
			<path class="st11" d="M48.25,272.77h2.18v-6.42h-2.18v-1.37h5.98v1.37h-2.18v6.42h2.18v1.37h-5.98V272.77z"/>
		</g>
	</g>
</g>
<g id="Layer_4" class="st12">
	<g class="st13">
		<defs>
			<rect id="SVGID_1_" width="283.46" height="283.46"/>
		</defs>
		<clipPath id="SVGID_2_">
			<use xlink:href="#SVGID_1_"  style="overflow:visible;"/>
		</clipPath>
		
			<ellipse transform="matrix(0.8779 -0.4788 0.4788 0.8779 -47.344 -7.77)" class="st14" cx="-38.91" cy="88.97" rx="163.52" ry="205.22"/>
		
			<ellipse transform="matrix(0.8779 -0.4788 0.4788 0.8779 -64.1714 -88.6064)" class="st15" cx="-205.86" cy="81.55" rx="254.37" ry="184.26"/>
		
			<ellipse transform="matrix(0.6772 -0.7358 0.7358 0.6772 -221.4775 29.9575)" class="st16" cx="-76.6" cy="267.38" rx="239.3" ry="184.26"/>
		<polygon class="st17" points="-12.43,267.66 -64.82,284.05 -105.21,246.88 -93.21,193.32 -40.83,176.92 -0.44,214.09 		"/>
	</g>
</g>
</svg>
