<?xml version="1.0" encoding="UTF-8" standalone="no"?>
<svg
   xmlns:dc="http://purl.org/dc/elements/1.1/"
   xmlns:cc="http://creativecommons.org/ns#"
   xmlns:rdf="http://www.w3.org/1999/02/22-rdf-syntax-ns#"
   xmlns:svg="http://www.w3.org/2000/svg"
   xmlns="http://www.w3.org/2000/svg"
   viewBox="0 0 377.94666 377.94666"
   height="377.94666"
   width="377.94666"
   xml:space="preserve"
   id="svg2"
   version="1.1"><metadata
     id="metadata8"><rdf:RDF><cc:Work
         rdf:about=""><dc:format>image/svg+xml</dc:format><dc:type
           rdf:resource="http://purl.org/dc/dcmitype/StillImage" /></cc:Work></rdf:RDF></metadata><defs
     id="defs6" /><g
     transform="matrix(1.3333333,0,0,-1.3333333,0,377.94667)"
     id="g10"><g
       transform="scale(0.1)"
       id="g12"><path
         id="path14"
         style="fill:#98a3bd;fill-opacity:1;fill-rule:nonzero;stroke:none"
         d="m 1723.67,1642.31 -388.13,425.09 174.08,548.67 412.1,90.59 -120.85,-131.32 97.87,-312.75 319.78,-71.61 177.83,193.23 63.59,-69.64 -88.43,-278.73 -128.5,20.36 -276.61,-341.58 6.7,-17.48 -249.43,-54.83" /><path
         id="path16"
         style="fill:#a4c5cc;fill-opacity:1;fill-rule:nonzero;stroke:none"
         d="m 2558.03,1235.5 -168.01,26.61 -321.1,185.38 -95.82,249.65 312.77,68.76 85.64,269.94 305.63,-48.41 157.51,-410.35 -276.62,-341.58" /><path
         id="path18"
         style="fill:#80a8b9;fill-opacity:1;fill-rule:nonzero;stroke:none"
         d="m 1973.1,1697.14 -6.7,17.48 276.61,341.58 128.5,-20.36 -85.64,-269.94 -312.77,-68.76" /><path
         id="path20"
         style="fill:#e1b4de;fill-opacity:1;fill-rule:nonzero;stroke:none"
         d="m 2396.35,2384.21 -324.53,355.45 -150.1,-33 101.06,109.82 319.79,-71.61 97.87,-312.76 -44.09,-47.9" /><path
         id="path22"
         style="fill:#dbaeda;fill-opacity:1;fill-rule:nonzero;stroke:none"
         d="m 2218.52,2190.98 -319.78,71.61 -97.87,312.75 120.85,131.32 150.1,33 324.53,-355.45 -177.83,-193.23" /><path
         id="path24"
         style="fill:#e0e1f1;fill-opacity:1;fill-rule:nonzero;stroke:none"
         d="m 2062.18,38.3906 -6.85,3.961 h 13.69 l -6.84,-3.961 m 611.5,521.4884 H 1451.32 l 0.34,537.491 611.4,353.51 5.86,-3.39 54.98,-143.22 266.12,-42.16 284,-163.96 -0.34,-538.271 m -846.59,492.851 -86.24,-93.71 38.04,-121.54 124.26,-27.82 86.23,93.699 -38.02,121.531 -124.27,27.84" /><path
         id="path26"
         style="fill:#a7bfd1;fill-opacity:1;fill-rule:nonzero;stroke:none"
         d="m 2390.02,1262.11 -266.12,42.16 -54.98,143.22 321.1,-185.38" /><path
         id="path28"
         style="fill:#696161;fill-opacity:1;fill-rule:nonzero;stroke:none"
         d="m 2834.65,42.3516 h -765.63 l 604.55,349.5464 0.11,167.981 h 160.97 V 42.3516 m -779.32,0 H 1417.32 V 559.879 h 34 l -0.11,-168.758 604.12,-348.7694" /><path
         id="path30"
         style="fill:#615b5f;fill-opacity:1;fill-rule:nonzero;stroke:none"
         d="m 2069.02,42.3516 h -13.69 l -604.12,348.7694 0.11,168.758 H 2673.68 L 2673.57,391.898 2069.02,42.3516" /><g
         transform="scale(10)"
         id="g32"><text
           id="text38"
           style="font-variant:normal;font-weight:600;font-size:14px;font-family:'Source Code Pro';-inkscape-font-specification:SourceCodeRoman-Semibold;writing-mode:lr-tb;fill:#f5e3eb;fill-opacity:1;fill-rule:nonzero;stroke:none"
           transform="matrix(0.99,0,0,-1,146.355,42.9219)"><tspan
             id="tspan34"
             y="0"
             x="0 8.3994207 16.798841 25.198261 33.597683 41.997101 50.396523">Topics:</tspan><tspan
             id="tspan36"
             y="16.799999"
             x="0 8.3994207 16.798841 25.198261 33.597683 41.997101 50.396523 58.795944 67.195374 75.59481 83.99424 92.393677 100.79311 109.19254">Cryptocurrency</tspan></text>
</g><path
         id="path40"
         style="fill:#8387af;fill-opacity:1;fill-rule:nonzero;stroke:none"
         d="m 2680.2,2234.15 -107.5,24.07 -32.91,105.14 74.6,81.05 107.51,-24.07 32.89,-105.13 -74.59,-81.06" /><path
         id="path42"
         style="fill:#c6c0e6;fill-opacity:1;fill-rule:nonzero;stroke:none"
         d="m 1622.06,1338.56 -128.13,28.7 -39.21,125.31 88.91,96.62 128.13,-28.7 39.22,-125.31 -88.92,-96.62" /><path
         id="path44"
         style="fill:#e3c8df;fill-opacity:1;fill-rule:nonzero;stroke:none"
         d="m 1903.15,809.66 -124.26,27.82 -38.04,121.54 86.24,93.71 124.27,-27.84 38.02,-121.531 -86.23,-93.699" /><path
         id="path46"
         style="fill:#1e1b1b;fill-opacity:1;fill-rule:nonzero;stroke:none"
         d="M 593.418,143.262 C -199.441,-289.109 -1282.08,167.039 -1824.71,1162.1 -2367.34,2157.16 -2164.5,3314.32 -1371.64,3746.69 -578.77,4179.06 503.863,3722.91 1046.5,2727.86 1589.13,1732.79 1386.28,575.641 593.418,143.262" /><path
         id="path48"
         style="fill:#433d3c;fill-opacity:1;fill-rule:nonzero;stroke:none"
         d="M 311.707,2236.93 C 211.477,2269.52 107.23,2292.3 0,2305.47 v 529.18 h 317.762 c 36.367,-192.6 33.179,-394.19 -6.055,-597.72" /><path
         id="path50"
         style="fill:#efabb8;fill-opacity:1;fill-rule:nonzero;stroke:none"
         d="M 1231.68,0 H 179.629 C 322.984,24.4688 462.176,71.6914 593.418,143.262 962.848,344.719 1204.19,703.582 1301.71,1130.04 1380.49,780.461 1355.82,388.879 1231.68,0" /><path
         id="path52"
         style="fill:#6a3d47;fill-opacity:1;fill-rule:nonzero;stroke:none"
         d="M 179.629,0 H 0 v 1475.73 c 156.145,246.75 262.41,505.47 311.707,761.2 200.582,-65.23 384.625,-169.76 542.762,-315.29 230.071,-211.73 378.281,-485.61 447.241,-791.6 C 1204.19,703.582 962.848,344.719 593.418,143.262 462.176,71.6914 322.984,24.4688 179.629,0" /><path
         id="path54"
         style="fill:#88535e;fill-opacity:1;fill-rule:nonzero;stroke:none"
         d="m 0,1475.73 v 829.74 C 107.23,2292.3 211.477,2269.52 311.707,2236.93 262.41,1981.2 156.145,1722.48 0,1475.73" /></g></g></svg>