<?xml version="1.0" encoding="utf-8"?>
<!-- Generator: Adobe Illustrator 23.0.6, SVG Export Plug-In . SVG Version: 6.00 Build 0)  -->
<svg version="1.1" xmlns="http://www.w3.org/2000/svg" xmlns:xlink="http://www.w3.org/1999/xlink" x="0px" y="0px"
	 viewBox="0 0 283.46 283.46" style="enable-background:new 0 0 283.46 283.46;" xml:space="preserve">
<style type="text/css">
	.st0{fill:#40557D;}
	.st1{clip-path:url(#SVGID_2_);fill:#151414;}
	.st2{opacity:0.27;clip-path:url(#SVGID_2_);fill:#FFFFFF;}
	.st3{opacity:0.5;clip-path:url(#SVGID_2_);fill:#E07986;}
	.st4{opacity:0.85;fill:#295F84;}
	.st5{opacity:0.63;fill:#72A8B6;}
	.st6{opacity:0.68;fill:#901E78;}
	.st7{opacity:0.55;fill:#E0D120;}
	.st8{opacity:0.67;fill:#E0D120;}
	.st9{opacity:0.94;fill:#AF5FA0;}
	.st10{opacity:0.36;fill:#AAB6D5;}
	.st11{fill:#F2E4E7;}
</style>
<g id="Layer_1">
	<rect class="st0" width="283.46" height="283.46"/>
</g>
<g id="Layer_4">
	<g>
		<defs>
			<rect id="SVGID_1_" width="283.46" height="283.37"/>
		</defs>
		<clipPath id="SVGID_2_">
			<use xlink:href="#SVGID_1_"  style="overflow:visible;"/>
		</clipPath>
		
			<ellipse transform="matrix(0.8776 -0.4793 0.4793 0.8776 -12.1726 128.1401)" class="st1" cx="244.89" cy="87.91" rx="163.96" ry="205.73"/>
		
			<ellipse transform="matrix(0.8782 -0.4784 0.4784 0.8782 -29.0581 46.8646)" class="st2" cx="77.47" cy="80.48" rx="255.05" ry="184.72"/>
		
			<ellipse transform="matrix(0.6777 -0.7354 0.7354 0.6777 -129.4129 238.2789)" class="st3" cx="207.09" cy="266.76" rx="239.91" ry="184.74"/>
	</g>
</g>
<g id="Layer_2">
	<polygon class="st4" points="160.61,164.57 65.6,185.46 0,113.61 29.42,20.89 124.43,0 190.03,71.84 	"/>
	<polygon class="st5" points="116.99,132.31 178.3,142.03 200.54,199.98 161.48,248.22 100.17,238.51 77.93,180.55 	"/>
	<polygon class="st6" points="137.97,90.98 150.69,36.23 204.2,19.02 244.99,56.55 232.27,111.31 178.76,128.52 	"/>
	<polygon class="st7" points="271.47,267.07 219.08,283.46 178.69,246.29 190.69,192.73 243.07,176.34 283.46,213.51 	"/>
	<polygon class="st8" points="186.82,196.71 138.01,184.08 124.55,135.5 159.9,99.54 208.7,112.18 222.17,160.76 	"/>
	<polygon class="st9" points="217.09,259.64 207.3,228.36 229.5,204.25 261.47,211.41 271.26,242.68 249.07,266.8 	"/>
	<polygon class="st10" points="238.3,219.3 202.83,197.62 203.82,156.07 240.27,136.19 275.74,157.86 274.75,199.42 	"/>
</g>
<g id="Layer_3">
	<g>
		<g>
			<path class="st11" d="M11.42,201.11h1.8l1.09,3.57l0.38,1.37h0.06l0.37-1.37l1.1-3.57h1.8v9.16h-1.44v-3.69
				c0-0.96,0.16-2.87,0.24-3.75h-0.04l-0.61,2.13l-1.01,2.89h-0.92l-1-2.89l-0.59-2.13h-0.04c0.09,0.89,0.24,2.79,0.24,3.75v3.69
				h-1.41V201.11z"/>
			<path class="st11" d="M19.77,206.82c0-2.24,1.7-3.6,3.55-3.6c2.05,0,3.19,1.36,3.19,3.27c0,0.32-0.04,0.64-0.07,0.81h-5.51v-1.14
				h4.46l-0.31,0.36c0-1.36-0.64-2.05-1.72-2.05c-1.14,0-2.01,0.82-2.01,2.35c0,1.6,0.96,2.36,2.39,2.36c0.72,0,1.31-0.21,1.93-0.56
				l0.55,1c-0.73,0.48-1.68,0.81-2.7,0.81C21.43,210.43,19.77,209.11,19.77,206.82z"/>
			<path class="st11" d="M28.06,206.83c0-2.24,1.47-3.62,3.03-3.62c0.79,0,1.36,0.3,1.9,0.81h0.04l-0.08-1.16v-2.49h1.62v9.89h-1.32
				l-0.12-0.8h-0.05c-0.53,0.54-1.3,0.97-2.07,0.97C29.22,210.43,28.06,209.1,28.06,206.83z M32.94,208.27v-3.09
				c-0.49-0.46-0.97-0.62-1.47-0.62c-0.96,0-1.76,0.82-1.76,2.26c0,1.49,0.63,2.28,1.67,2.28
				C31.95,209.09,32.46,208.84,32.94,208.27z"/>
			<path class="st11" d="M39.86,204.67h-2.97v-1.28h4.59v6.88h-1.62V204.67z M39.41,201.05c0-0.65,0.49-1.09,1.15-1.09
				s1.15,0.45,1.15,1.09c0,0.65-0.48,1.08-1.15,1.08S39.41,201.71,39.41,201.05z"/>
			<path class="st11" d="M45.14,206.83c0-2.3,1.81-3.62,3.91-3.62c1.1,0,1.97,0.42,2.54,0.97l-0.76,1.02
				c-0.54-0.43-1.08-0.66-1.7-0.66c-1.38,0-2.33,0.91-2.33,2.3c0,1.38,0.94,2.28,2.28,2.28c0.78,0,1.43-0.35,1.96-0.76l0.68,1.03
				c-0.8,0.69-1.8,1.04-2.78,1.04C46.77,210.43,45.14,209.12,45.14,206.83z"/>
			<path class="st11" d="M53.5,208.42c0-1.54,1.36-2.31,4.75-2.55c-0.06-0.77-0.52-1.35-1.64-1.35c-0.78,0-1.54,0.34-2.25,0.73
				l-0.6-1.07c0.83-0.5,1.96-0.96,3.15-0.96c1.91,0,2.96,1.06,2.96,2.98v4.07h-1.33l-0.12-0.85h-0.05
				c-0.72,0.56-1.65,1.02-2.57,1.02C54.46,210.43,53.5,209.61,53.5,208.42z M58.25,208.33v-1.45c-2.47,0.16-3.18,0.67-3.18,1.41
				c0,0.61,0.54,0.87,1.22,0.87C56.98,209.16,57.61,208.84,58.25,208.33z"/>
			<path class="st11" d="M64.07,207.76v-6.1h-2.3v-1.28h3.92v7.47c0,0.92,0.54,1.27,1.24,1.27c0.36,0,0.74-0.08,1.18-0.27l0.38,1.2
				c-0.68,0.25-1.15,0.39-1.95,0.39C64.92,210.43,64.07,209.45,64.07,207.76z"/>
			<path class="st11" d="M78.88,201.11h3.06c1.9,0,3.38,0.67,3.38,2.72c0,1.97-1.48,2.86-3.38,2.86h-1.42v3.58h-1.64V201.11z
				 M81.78,205.39c1.25,0,1.94-0.53,1.94-1.56c0-1.05-0.68-1.42-1.94-1.42h-1.26v2.98H81.78z M82.82,205.28l2.86,4.99h-1.83
				l-2.21-4.01L82.82,205.28z"/>
			<path class="st11" d="M86.97,206.82c0-2.24,1.7-3.6,3.55-3.6c2.05,0,3.19,1.36,3.19,3.27c0,0.32-0.04,0.64-0.07,0.81h-5.51v-1.14
				h4.46l-0.31,0.36c0-1.36-0.64-2.05-1.72-2.05c-1.14,0-2.01,0.82-2.01,2.35c0,1.6,0.96,2.36,2.39,2.36c0.72,0,1.31-0.21,1.93-0.56
				l0.55,1c-0.73,0.48-1.68,0.81-2.7,0.81C88.62,210.43,86.97,209.11,86.97,206.82z"/>
			<path class="st11" d="M95.53,206.83c0-2.3,1.81-3.62,3.91-3.62c1.1,0,1.97,0.42,2.54,0.97l-0.76,1.02
				c-0.54-0.43-1.08-0.66-1.7-0.66c-1.38,0-2.33,0.91-2.33,2.3c0,1.38,0.94,2.28,2.28,2.28c0.78,0,1.43-0.35,1.96-0.76l0.68,1.03
				c-0.8,0.69-1.8,1.04-2.78,1.04C97.17,210.43,95.53,209.12,95.53,206.83z"/>
			<path class="st11" d="M103.65,206.83c0-2.3,1.64-3.62,3.45-3.62s3.45,1.32,3.45,3.62c0,2.28-1.64,3.6-3.45,3.6
				S103.65,209.12,103.65,206.83z M108.9,206.83c0-1.38-0.67-2.3-1.8-2.3s-1.8,0.91-1.8,2.3c0,1.38,0.67,2.28,1.8,2.28
				S108.9,208.21,108.9,206.83z"/>
			<path class="st11" d="M113.12,203.39h1.34l0.14,1.57h0.04c0.7-1.12,1.74-1.73,2.93-1.73c0.56,0,0.93,0.09,1.34,0.28l-0.34,1.37
				c-0.46-0.14-0.72-0.21-1.25-0.21c-0.94,0-1.87,0.48-2.57,1.82v3.79h-1.62V203.39z"/>
			<path class="st11" d="M120.45,206.83c0-2.24,1.47-3.62,3.03-3.62c0.79,0,1.36,0.3,1.9,0.81h0.04l-0.08-1.16v-2.49h1.62v9.89
				h-1.32l-0.12-0.8h-0.05c-0.54,0.54-1.3,0.97-2.07,0.97C121.62,210.43,120.45,209.1,120.45,206.83z M125.33,208.27v-3.09
				c-0.49-0.46-0.97-0.62-1.47-0.62c-0.96,0-1.76,0.82-1.76,2.26c0,1.49,0.63,2.28,1.67,2.28
				C124.35,209.09,124.85,208.84,125.33,208.27z"/>
			<path class="st11" d="M128.97,209.37l0.71-1.03c0.82,0.54,1.76,0.87,2.88,0.87c0.95,0,1.4-0.36,1.4-0.82c0-0.45-0.3-0.7-1.9-1.03
				c-1.83-0.38-2.65-1.03-2.65-2.08c0-1.2,1.09-2.06,3.01-2.06c1.14,0,2.18,0.45,2.88,0.91l-0.75,0.99
				c-0.67-0.43-1.46-0.69-2.28-0.69c-0.89,0-1.26,0.34-1.26,0.76c0,0.49,0.51,0.66,1.79,0.93c2.2,0.49,2.77,1.07,2.77,2.16
				c0,1.18-1.14,2.14-3.23,2.14C131.06,210.43,129.82,209.95,128.97,209.37z"/>
			<path class="st11" d="M11.61,217.91h2.4c2.7,0,4.33,1.51,4.33,4.54c0,3.04-1.62,4.62-4.24,4.62h-2.48V217.91z M13.91,225.74
				c1.75,0,2.75-1.05,2.75-3.3c0-2.24-1-3.22-2.75-3.22h-0.67v6.52H13.91z"/>
			<path class="st11" d="M19.77,223.62c0-2.24,1.7-3.6,3.55-3.6c2.05,0,3.19,1.36,3.19,3.27c0,0.32-0.04,0.64-0.07,0.81h-5.51v-1.14
				h4.46l-0.31,0.36c0-1.36-0.64-2.05-1.72-2.05c-1.14,0-2.01,0.82-2.01,2.35c0,1.6,0.96,2.36,2.39,2.36c0.72,0,1.31-0.21,1.93-0.56
				l0.55,1c-0.73,0.48-1.68,0.81-2.7,0.81C21.43,227.23,19.77,225.91,19.77,223.62z"/>
			<path class="st11" d="M28.18,226.17l0.71-1.03c0.82,0.54,1.76,0.87,2.88,0.87c0.95,0,1.4-0.36,1.4-0.82c0-0.45-0.3-0.7-1.9-1.03
				c-1.83-0.38-2.65-1.03-2.65-2.08c0-1.2,1.09-2.06,3.01-2.06c1.14,0,2.18,0.45,2.88,0.91l-0.75,0.99
				c-0.67-0.43-1.46-0.69-2.28-0.69c-0.89,0-1.26,0.34-1.26,0.76c0,0.49,0.51,0.66,1.79,0.93c2.2,0.49,2.77,1.07,2.77,2.16
				c0,1.18-1.14,2.14-3.23,2.14C30.26,227.23,29.03,226.75,28.18,226.17z"/>
			<path class="st11" d="M36.97,217.17h1.62v6.19h0.06l3.1-3.18h1.8l-4.95,5.08v1.8h-1.62V217.17z M39.73,223.69l0.95-1.02l3.16,4.4
				h-1.77L39.73,223.69z"/>
			<path class="st11" d="M46.77,224.3v-2.83h-1.84v-1.21l1.91-0.08l0.21-2.15h1.34v2.15h3.13v1.28h-3.13v2.82
				c0,1.14,0.43,1.65,1.59,1.65c0.57,0,1.05-0.12,1.5-0.28l0.31,1.18c-0.62,0.2-1.31,0.39-2.2,0.39
				C47.48,227.23,46.77,226.05,46.77,224.3z"/>
			<path class="st11" d="M53.26,223.63c0-2.3,1.64-3.62,3.45-3.62s3.45,1.32,3.45,3.62c0,2.28-1.64,3.6-3.45,3.6
				S53.26,225.92,53.26,223.63z M58.51,223.63c0-1.38-0.67-2.3-1.8-2.3s-1.8,0.91-1.8,2.3c0,1.38,0.67,2.28,1.8,2.28
				S58.51,225.01,58.51,223.63z"/>
			<path class="st11" d="M62.06,220.19h1.32l0.12,0.79h0.05c0.59-0.56,1.42-0.96,2.21-0.96c1.78,0,2.8,1.37,2.8,3.5
				c0,2.35-1.46,3.71-3.05,3.71c-0.62,0-1.31-0.3-1.87-0.82H63.6l0.08,1.21v2.16h-1.62V220.19z M66.91,223.53
				c0-1.37-0.48-2.17-1.59-2.17c-0.52,0-1.07,0.25-1.63,0.82v3.09c0.51,0.46,1.08,0.62,1.49,0.62
				C66.15,225.89,66.91,225.09,66.91,223.53z"/>
			<path class="st11" d="M80.95,217.91h1.92l2.97,9.16H84.1l-1.38-4.87c-0.28-0.97-0.57-2.01-0.82-3.02h-0.06
				c-0.26,1.01-0.53,2.05-0.81,3.02l-1.39,4.87h-1.67L80.95,217.91z M79.74,223.3h4.29v1.29h-4.29V223.3z"/>
			<path class="st11" d="M87.26,220.19h1.32l0.12,0.79h0.05c0.59-0.56,1.42-0.96,2.21-0.96c1.78,0,2.8,1.37,2.8,3.5
				c0,2.35-1.46,3.71-3.05,3.71c-0.62,0-1.31-0.3-1.87-0.82H88.8l0.08,1.21v2.16h-1.62V220.19z M92.1,223.53
				c0-1.37-0.48-2.17-1.59-2.17c-0.52,0-1.07,0.25-1.63,0.82v3.09c0.51,0.46,1.08,0.62,1.49,0.62
				C91.35,225.89,92.1,225.09,92.1,223.53z"/>
			<path class="st11" d="M95.66,220.19h1.32l0.12,0.79h0.05c0.59-0.56,1.42-0.96,2.21-0.96c1.78,0,2.8,1.37,2.8,3.5
				c0,2.35-1.46,3.71-3.05,3.71c-0.62,0-1.31-0.3-1.87-0.82H97.2l0.08,1.21v2.16h-1.62V220.19z M100.5,223.53
				c0-1.37-0.48-2.17-1.59-2.17c-0.52,0-1.07,0.25-1.63,0.82v3.09c0.51,0.46,1.08,0.62,1.49,0.62
				C99.75,225.89,100.5,225.09,100.5,223.53z"/>
			<path class="st11" d="M106.06,224.56v-6.1h-2.3v-1.28h3.92v7.47c0,0.92,0.54,1.27,1.24,1.27c0.36,0,0.74-0.08,1.18-0.27l0.38,1.2
				c-0.68,0.25-1.15,0.39-1.95,0.39C106.92,227.23,106.06,226.25,106.06,224.56z"/>
			<path class="st11" d="M115.45,221.47h-2.97v-1.28h4.59v6.88h-1.62V221.47z M115.01,217.85c0-0.65,0.49-1.09,1.15-1.09
				s1.15,0.45,1.15,1.09c0,0.65-0.48,1.08-1.15,1.08S115.01,218.5,115.01,217.85z"/>
			<path class="st11" d="M120.73,223.63c0-2.3,1.81-3.62,3.91-3.62c1.1,0,1.97,0.42,2.54,0.97l-0.76,1.02
				c-0.54-0.43-1.08-0.66-1.7-0.66c-1.38,0-2.33,0.91-2.33,2.3c0,1.38,0.94,2.28,2.28,2.28c0.78,0,1.43-0.35,1.96-0.76l0.68,1.03
				c-0.8,0.69-1.8,1.04-2.78,1.04C122.37,227.23,120.73,225.92,120.73,223.63z"/>
			<path class="st11" d="M129.09,225.22c0-1.54,1.36-2.31,4.75-2.55c-0.06-0.77-0.52-1.35-1.64-1.35c-0.78,0-1.54,0.34-2.25,0.73
				l-0.6-1.07c0.83-0.5,1.96-0.96,3.15-0.96c1.91,0,2.96,1.06,2.96,2.98v4.07h-1.33l-0.12-0.85h-0.05
				c-0.72,0.56-1.65,1.02-2.57,1.02C130.05,227.23,129.09,226.41,129.09,225.22z M133.84,225.13v-1.45
				c-2.47,0.16-3.18,0.67-3.18,1.41c0,0.61,0.54,0.87,1.22,0.87C132.57,225.96,133.21,225.64,133.84,225.13z"/>
			<path class="st11" d="M139.16,224.3v-2.83h-1.84v-1.21l1.91-0.08l0.21-2.15h1.34v2.15h3.13v1.28h-3.13v2.82
				c0,1.14,0.43,1.65,1.59,1.65c0.57,0,1.05-0.12,1.5-0.28l0.31,1.18c-0.62,0.2-1.31,0.39-2.2,0.39
				C139.88,227.23,139.16,226.05,139.16,224.3z"/>
			<path class="st11" d="M149.05,221.47h-2.97v-1.28h4.59v6.88h-1.62V221.47z M148.6,217.85c0-0.65,0.49-1.09,1.15-1.09
				s1.15,0.45,1.15,1.09c0,0.65-0.48,1.08-1.15,1.08S148.6,218.5,148.6,217.85z"/>
			<path class="st11" d="M154.05,223.63c0-2.3,1.64-3.62,3.45-3.62s3.45,1.32,3.45,3.62c0,2.28-1.64,3.6-3.45,3.6
				S154.05,225.92,154.05,223.63z M159.3,223.63c0-1.38-0.67-2.3-1.8-2.3s-1.8,0.91-1.8,2.3c0,1.38,0.67,2.28,1.8,2.28
				S159.3,225.01,159.3,223.63z"/>
			<path class="st11" d="M162.85,220.19h1.32l0.12,1.04h0.06c0.66-0.67,1.43-1.2,2.48-1.2c1.59,0,2.31,1.01,2.31,2.79v4.26h-1.62
				v-4.05c0-1.1-0.36-1.61-1.28-1.61c-0.68,0-1.14,0.33-1.77,0.97v4.69h-1.62V220.19z"/>
		</g>
	</g>
	<g>
		<g>
			<path class="st11" d="M11.74,248.5h3.01c2.01,0,3.49,0.7,3.49,2.82c0,2.05-1.51,2.97-3.49,2.97h-1.38v3.36h-1.63V248.5z
				 M14.62,252.99c1.36,0,2.01-0.55,2.01-1.67c0-1.13-0.68-1.52-2.01-1.52h-1.25v3.19H14.62z"/>
			<path class="st11" d="M19.85,260.34l0.3-1.25c0.18,0.06,0.39,0.09,0.58,0.09c0.88,0,1.38-0.48,1.66-1.17l0.17-0.43l-3.08-6.8
				h1.62l1.41,3.36c0.26,0.63,0.51,1.34,0.76,2.03h0.06c0.21-0.67,0.46-1.38,0.68-2.03l1.24-3.36h1.54l-2.87,7.19
				c-0.59,1.54-1.42,2.51-3.08,2.51C20.46,260.48,20.12,260.42,19.85,260.34z"/>
			<path class="st11" d="M29.97,254.89v-2.83h-1.84v-1.21l1.91-0.08l0.21-2.15h1.34v2.15h3.13v1.28h-3.13v2.82
				c0,1.14,0.43,1.65,1.59,1.65c0.57,0,1.05-0.12,1.5-0.28l0.31,1.18c-0.62,0.2-1.31,0.39-2.2,0.39
				C30.69,257.83,29.97,256.65,29.97,254.89z"/>
			<path class="st11" d="M36.86,247.77h1.62v2.55l-0.1,1.47h0.05c0.6-0.64,1.37-1.18,2.42-1.18c1.58,0,2.3,1.01,2.3,2.79v4.26h-1.62
				v-4.05c0-1.1-0.36-1.61-1.28-1.61c-0.68,0-1.14,0.33-1.77,0.97v4.69h-1.62V247.77z"/>
			<path class="st11" d="M44.86,254.23c0-2.3,1.64-3.62,3.45-3.62s3.45,1.32,3.45,3.62c0,2.28-1.64,3.6-3.45,3.6
				S44.86,256.51,44.86,254.23z M50.11,254.23c0-1.38-0.67-2.29-1.8-2.29s-1.8,0.91-1.8,2.29c0,1.38,0.67,2.28,1.8,2.28
				S50.11,255.6,50.11,254.23z"/>
			<path class="st11" d="M53.66,250.78h1.32l0.12,1.04h0.06c0.66-0.67,1.43-1.2,2.48-1.2c1.59,0,2.31,1.01,2.31,2.79v4.26h-1.62
				v-4.05c0-1.1-0.36-1.61-1.28-1.61c-0.68,0-1.14,0.33-1.77,0.97v4.69h-1.62V250.78z"/>
			<path class="st11" d="M11.33,273.29l0.95-1.12c0.7,0.62,1.6,1.04,2.56,1.04c1.07,0,1.63-0.47,1.63-1.11
				c0-0.82-0.63-1.04-1.52-1.41l-1.26-0.55c-0.96-0.37-1.95-1.09-1.95-2.43c0-1.46,1.31-2.58,3.18-2.58c1.12,0,2.18,0.44,2.93,1.17
				l-0.83,1.03c-0.62-0.5-1.26-0.78-2.18-0.78c-0.87,0-1.46,0.39-1.46,1.07c0,0.71,0.73,0.97,1.56,1.29l1.2,0.52
				c1.17,0.45,1.99,1.14,1.99,2.47c0,1.49-1.25,2.73-3.39,2.73C13.45,274.63,12.23,274.14,11.33,273.29z"/>
			<path class="st11" d="M19.51,269.84c0-3.01,1.48-4.71,3.6-4.71c2.13,0,3.6,1.69,3.6,4.71c0,3.07-1.48,4.79-3.6,4.79
				C20.99,274.63,19.51,272.91,19.51,269.84z M25.04,269.84c0-2.1-0.76-3.29-1.93-3.29s-1.93,1.19-1.93,3.29
				c0,2.27,0.76,3.45,1.93,3.45S25.04,272.11,25.04,269.84z M22.3,274.44l1.67-0.15c0.26,0.87,1.04,1.23,1.91,1.23
				c0.28,0,0.52-0.07,0.71-0.15l0.29,1.24c-0.3,0.14-0.7,0.25-1.19,0.25C23.95,276.85,22.8,275.83,22.3,274.44z"/>
			<path class="st11" d="M28.99,265.3h1.62v7.79h4.3v1.37h-5.92V265.3z"/>
			<path class="st11" d="M39.86,268.86h-2.97v-1.28h4.59v6.88h-1.62V268.86z M39.41,265.24c0-0.64,0.49-1.09,1.15-1.09
				s1.15,0.45,1.15,1.09c0,0.65-0.48,1.08-1.15,1.08S39.41,265.9,39.41,265.24z"/>
			<path class="st11" d="M46.77,271.69v-2.83h-1.84v-1.21l1.91-0.08l0.21-2.15h1.34v2.15h3.13v1.28h-3.13v2.82
				c0,1.14,0.43,1.65,1.59,1.65c0.57,0,1.05-0.12,1.5-0.28l0.31,1.18c-0.62,0.2-1.31,0.39-2.2,0.39
				C47.48,274.63,46.77,273.45,46.77,271.69z"/>
			<path class="st11" d="M53.37,271.01c0-2.24,1.7-3.6,3.55-3.6c2.05,0,3.19,1.36,3.19,3.27c0,0.32-0.04,0.64-0.07,0.81h-5.51v-1.14
				h4.46l-0.31,0.36c0-1.36-0.64-2.05-1.72-2.05c-1.14,0-2.01,0.82-2.01,2.35c0,1.6,0.96,2.36,2.39,2.36c0.72,0,1.31-0.21,1.93-0.56
				l0.55,1c-0.73,0.48-1.68,0.81-2.7,0.81C55.02,274.63,53.37,273.3,53.37,271.01z"/>
		</g>
	</g>
</g>
</svg>
